G04 #@! TF.GenerationSoftware,KiCad,Pcbnew,(5.1.2)-2*
G04 #@! TF.CreationDate,2019-11-11T22:41:20-05:00*
G04 #@! TF.ProjectId,LightStar_RevA,4c696768-7453-4746-9172-5f526576412e,rev?*
G04 #@! TF.SameCoordinates,Original*
G04 #@! TF.FileFunction,Soldermask,Top*
G04 #@! TF.FilePolarity,Negative*
%FSLAX46Y46*%
G04 Gerber Fmt 4.6, Leading zero omitted, Abs format (unit mm)*
G04 Created by KiCad (PCBNEW (5.1.2)-2) date 2019-11-11 22:41:20*
%MOMM*%
%LPD*%
G04 APERTURE LIST*
%ADD10C,0.050000*%
G04 APERTURE END LIST*
D10*
G36*
X129467395Y-136385546D02*
G01*
X129640466Y-136457234D01*
X129640467Y-136457235D01*
X129796227Y-136561310D01*
X129928690Y-136693773D01*
X129940429Y-136711342D01*
X130032766Y-136849534D01*
X130104454Y-137022605D01*
X130141000Y-137206333D01*
X130141000Y-137393667D01*
X130104454Y-137577395D01*
X130032766Y-137750466D01*
X130032765Y-137750467D01*
X129928690Y-137906227D01*
X129796227Y-138038690D01*
X129717818Y-138091081D01*
X129640466Y-138142766D01*
X129467395Y-138214454D01*
X129283667Y-138251000D01*
X129096333Y-138251000D01*
X128912605Y-138214454D01*
X128739534Y-138142766D01*
X128662182Y-138091081D01*
X128583773Y-138038690D01*
X128451310Y-137906227D01*
X128347235Y-137750467D01*
X128347234Y-137750466D01*
X128275546Y-137577395D01*
X128239000Y-137393667D01*
X128239000Y-137206333D01*
X128275546Y-137022605D01*
X128347234Y-136849534D01*
X128439571Y-136711342D01*
X128451310Y-136693773D01*
X128583773Y-136561310D01*
X128739533Y-136457235D01*
X128739534Y-136457234D01*
X128912605Y-136385546D01*
X129096333Y-136349000D01*
X129283667Y-136349000D01*
X129467395Y-136385546D01*
X129467395Y-136385546D01*
G37*
G36*
X127601000Y-138251000D02*
G01*
X125699000Y-138251000D01*
X125699000Y-136349000D01*
X127601000Y-136349000D01*
X127601000Y-138251000D01*
X127601000Y-138251000D01*
G37*
G36*
X170617395Y-136385546D02*
G01*
X170790466Y-136457234D01*
X170790467Y-136457235D01*
X170946227Y-136561310D01*
X171078690Y-136693773D01*
X171090429Y-136711342D01*
X171182766Y-136849534D01*
X171254454Y-137022605D01*
X171291000Y-137206333D01*
X171291000Y-137393667D01*
X171254454Y-137577395D01*
X171182766Y-137750466D01*
X171182765Y-137750467D01*
X171078690Y-137906227D01*
X170946227Y-138038690D01*
X170867818Y-138091081D01*
X170790466Y-138142766D01*
X170617395Y-138214454D01*
X170433667Y-138251000D01*
X170246333Y-138251000D01*
X170062605Y-138214454D01*
X169889534Y-138142766D01*
X169812182Y-138091081D01*
X169733773Y-138038690D01*
X169601310Y-137906227D01*
X169497235Y-137750467D01*
X169497234Y-137750466D01*
X169425546Y-137577395D01*
X169389000Y-137393667D01*
X169389000Y-137206333D01*
X169425546Y-137022605D01*
X169497234Y-136849534D01*
X169589571Y-136711342D01*
X169601310Y-136693773D01*
X169733773Y-136561310D01*
X169889533Y-136457235D01*
X169889534Y-136457234D01*
X170062605Y-136385546D01*
X170246333Y-136349000D01*
X170433667Y-136349000D01*
X170617395Y-136385546D01*
X170617395Y-136385546D01*
G37*
G36*
X168751000Y-138251000D02*
G01*
X166849000Y-138251000D01*
X166849000Y-136349000D01*
X168751000Y-136349000D01*
X168751000Y-138251000D01*
X168751000Y-138251000D01*
G37*
G36*
X161867067Y-136457234D02*
G01*
X161915692Y-136466906D01*
X161953458Y-136482549D01*
X162006867Y-136504672D01*
X162006868Y-136504673D01*
X162088925Y-136559501D01*
X162158708Y-136629284D01*
X162158709Y-136629286D01*
X162213537Y-136711342D01*
X162251303Y-136802518D01*
X162270556Y-136899308D01*
X162270556Y-136997998D01*
X162251303Y-137094788D01*
X162213537Y-137185964D01*
X162186308Y-137226715D01*
X162158708Y-137268022D01*
X162088925Y-137337805D01*
X162047618Y-137365405D01*
X162006867Y-137392634D01*
X161953458Y-137414757D01*
X161915692Y-137430400D01*
X161867296Y-137440026D01*
X161818901Y-137449653D01*
X161720211Y-137449653D01*
X161671816Y-137440026D01*
X161623420Y-137430400D01*
X161585654Y-137414757D01*
X161532245Y-137392634D01*
X161491494Y-137365405D01*
X161450187Y-137337805D01*
X161380404Y-137268022D01*
X161352804Y-137226715D01*
X161325575Y-137185964D01*
X161287809Y-137094788D01*
X161268556Y-136997998D01*
X161268556Y-136899308D01*
X161287809Y-136802518D01*
X161325575Y-136711342D01*
X161380403Y-136629286D01*
X161380404Y-136629284D01*
X161450187Y-136559501D01*
X161532244Y-136504673D01*
X161532245Y-136504672D01*
X161585654Y-136482549D01*
X161623420Y-136466906D01*
X161672045Y-136457234D01*
X161720211Y-136447653D01*
X161818901Y-136447653D01*
X161867067Y-136457234D01*
X161867067Y-136457234D01*
G37*
G36*
X159440245Y-134693925D02*
G01*
X159488641Y-134703551D01*
X159526407Y-134719194D01*
X159579816Y-134741317D01*
X159579817Y-134741318D01*
X159661874Y-134796146D01*
X159731657Y-134865929D01*
X159731658Y-134865931D01*
X159786486Y-134947987D01*
X159824252Y-135039163D01*
X159843505Y-135135953D01*
X159843505Y-135234643D01*
X159824252Y-135331433D01*
X159786486Y-135422609D01*
X159786485Y-135422610D01*
X159731657Y-135504667D01*
X159661874Y-135574450D01*
X159620567Y-135602050D01*
X159579816Y-135629279D01*
X159526407Y-135651402D01*
X159488641Y-135667045D01*
X159440245Y-135676672D01*
X159391850Y-135686298D01*
X159293160Y-135686298D01*
X159244765Y-135676672D01*
X159196369Y-135667045D01*
X159158603Y-135651402D01*
X159105194Y-135629279D01*
X159064443Y-135602050D01*
X159023136Y-135574450D01*
X158953353Y-135504667D01*
X158898525Y-135422610D01*
X158898524Y-135422609D01*
X158860758Y-135331433D01*
X158841505Y-135234643D01*
X158841505Y-135135953D01*
X158860758Y-135039163D01*
X158898524Y-134947987D01*
X158953352Y-134865931D01*
X158953353Y-134865929D01*
X159023136Y-134796146D01*
X159105193Y-134741318D01*
X159105194Y-134741317D01*
X159158603Y-134719194D01*
X159196369Y-134703551D01*
X159244765Y-134693925D01*
X159293160Y-134684298D01*
X159391850Y-134684298D01*
X159440245Y-134693925D01*
X159440245Y-134693925D01*
G37*
G36*
X148201000Y-109951000D02*
G01*
X146299000Y-109951000D01*
X146299000Y-108049000D01*
X148201000Y-108049000D01*
X148201000Y-109951000D01*
X148201000Y-109951000D01*
G37*
G36*
X150067395Y-108085546D02*
G01*
X150240466Y-108157234D01*
X150240467Y-108157235D01*
X150396227Y-108261310D01*
X150528690Y-108393773D01*
X150528691Y-108393775D01*
X150632766Y-108549534D01*
X150704454Y-108722605D01*
X150741000Y-108906333D01*
X150741000Y-109093667D01*
X150704454Y-109277395D01*
X150632766Y-109450466D01*
X150632765Y-109450467D01*
X150528690Y-109606227D01*
X150396227Y-109738690D01*
X150317818Y-109791081D01*
X150240466Y-109842766D01*
X150067395Y-109914454D01*
X149883667Y-109951000D01*
X149696333Y-109951000D01*
X149512605Y-109914454D01*
X149339534Y-109842766D01*
X149262182Y-109791081D01*
X149183773Y-109738690D01*
X149051310Y-109606227D01*
X148947235Y-109450467D01*
X148947234Y-109450466D01*
X148875546Y-109277395D01*
X148839000Y-109093667D01*
X148839000Y-108906333D01*
X148875546Y-108722605D01*
X148947234Y-108549534D01*
X149051309Y-108393775D01*
X149051310Y-108393773D01*
X149183773Y-108261310D01*
X149339533Y-108157235D01*
X149339534Y-108157234D01*
X149512605Y-108085546D01*
X149696333Y-108049000D01*
X149883667Y-108049000D01*
X150067395Y-108085546D01*
X150067395Y-108085546D01*
G37*
G36*
X146266564Y-97839389D02*
G01*
X146457833Y-97918615D01*
X146457835Y-97918616D01*
X146629973Y-98033635D01*
X146776365Y-98180027D01*
X146852296Y-98293665D01*
X146891385Y-98352167D01*
X146970611Y-98543436D01*
X147011000Y-98746484D01*
X147011000Y-98953516D01*
X146970611Y-99156564D01*
X146891385Y-99347833D01*
X146891384Y-99347835D01*
X146776365Y-99519973D01*
X146629973Y-99666365D01*
X146457835Y-99781384D01*
X146457834Y-99781385D01*
X146457833Y-99781385D01*
X146266564Y-99860611D01*
X146063516Y-99901000D01*
X145856484Y-99901000D01*
X145653436Y-99860611D01*
X145462167Y-99781385D01*
X145462166Y-99781385D01*
X145462165Y-99781384D01*
X145290027Y-99666365D01*
X145143635Y-99519973D01*
X145028616Y-99347835D01*
X145028615Y-99347833D01*
X144949389Y-99156564D01*
X144909000Y-98953516D01*
X144909000Y-98746484D01*
X144949389Y-98543436D01*
X145028615Y-98352167D01*
X145067705Y-98293665D01*
X145143635Y-98180027D01*
X145290027Y-98033635D01*
X145462165Y-97918616D01*
X145462167Y-97918615D01*
X145653436Y-97839389D01*
X145856484Y-97799000D01*
X146063516Y-97799000D01*
X146266564Y-97839389D01*
X146266564Y-97839389D01*
G37*
G36*
X149551000Y-99901000D02*
G01*
X147449000Y-99901000D01*
X147449000Y-97799000D01*
X149551000Y-97799000D01*
X149551000Y-99901000D01*
X149551000Y-99901000D01*
G37*
G36*
X151346564Y-97839389D02*
G01*
X151537833Y-97918615D01*
X151537835Y-97918616D01*
X151709973Y-98033635D01*
X151856365Y-98180027D01*
X151932296Y-98293665D01*
X151971385Y-98352167D01*
X152050611Y-98543436D01*
X152091000Y-98746484D01*
X152091000Y-98953516D01*
X152050611Y-99156564D01*
X151971385Y-99347833D01*
X151971384Y-99347835D01*
X151856365Y-99519973D01*
X151709973Y-99666365D01*
X151537835Y-99781384D01*
X151537834Y-99781385D01*
X151537833Y-99781385D01*
X151346564Y-99860611D01*
X151143516Y-99901000D01*
X150936484Y-99901000D01*
X150733436Y-99860611D01*
X150542167Y-99781385D01*
X150542166Y-99781385D01*
X150542165Y-99781384D01*
X150370027Y-99666365D01*
X150223635Y-99519973D01*
X150108616Y-99347835D01*
X150108615Y-99347833D01*
X150029389Y-99156564D01*
X149989000Y-98953516D01*
X149989000Y-98746484D01*
X150029389Y-98543436D01*
X150108615Y-98352167D01*
X150147705Y-98293665D01*
X150223635Y-98180027D01*
X150370027Y-98033635D01*
X150542165Y-97918616D01*
X150542167Y-97918615D01*
X150733436Y-97839389D01*
X150936484Y-97799000D01*
X151143516Y-97799000D01*
X151346564Y-97839389D01*
X151346564Y-97839389D01*
G37*
G36*
X114901000Y-99151000D02*
G01*
X112999000Y-99151000D01*
X112999000Y-97249000D01*
X114901000Y-97249000D01*
X114901000Y-99151000D01*
X114901000Y-99151000D01*
G37*
G36*
X116767395Y-97285546D02*
G01*
X116940466Y-97357234D01*
X116940467Y-97357235D01*
X117096227Y-97461310D01*
X117228690Y-97593773D01*
X117228691Y-97593775D01*
X117332766Y-97749534D01*
X117404454Y-97922605D01*
X117441000Y-98106333D01*
X117441000Y-98293667D01*
X117404454Y-98477395D01*
X117332766Y-98650466D01*
X117332765Y-98650467D01*
X117228690Y-98806227D01*
X117096227Y-98938690D01*
X117074041Y-98953514D01*
X116940466Y-99042766D01*
X116767395Y-99114454D01*
X116583667Y-99151000D01*
X116396333Y-99151000D01*
X116212605Y-99114454D01*
X116039534Y-99042766D01*
X115905959Y-98953514D01*
X115883773Y-98938690D01*
X115751310Y-98806227D01*
X115647235Y-98650467D01*
X115647234Y-98650466D01*
X115575546Y-98477395D01*
X115539000Y-98293667D01*
X115539000Y-98106333D01*
X115575546Y-97922605D01*
X115647234Y-97749534D01*
X115751309Y-97593775D01*
X115751310Y-97593773D01*
X115883773Y-97461310D01*
X116039533Y-97357235D01*
X116039534Y-97357234D01*
X116212605Y-97285546D01*
X116396333Y-97249000D01*
X116583667Y-97249000D01*
X116767395Y-97285546D01*
X116767395Y-97285546D01*
G37*
G36*
X183317395Y-97285546D02*
G01*
X183490466Y-97357234D01*
X183490467Y-97357235D01*
X183646227Y-97461310D01*
X183778690Y-97593773D01*
X183778691Y-97593775D01*
X183882766Y-97749534D01*
X183954454Y-97922605D01*
X183991000Y-98106333D01*
X183991000Y-98293667D01*
X183954454Y-98477395D01*
X183882766Y-98650466D01*
X183882765Y-98650467D01*
X183778690Y-98806227D01*
X183646227Y-98938690D01*
X183624041Y-98953514D01*
X183490466Y-99042766D01*
X183317395Y-99114454D01*
X183133667Y-99151000D01*
X182946333Y-99151000D01*
X182762605Y-99114454D01*
X182589534Y-99042766D01*
X182455959Y-98953514D01*
X182433773Y-98938690D01*
X182301310Y-98806227D01*
X182197235Y-98650467D01*
X182197234Y-98650466D01*
X182125546Y-98477395D01*
X182089000Y-98293667D01*
X182089000Y-98106333D01*
X182125546Y-97922605D01*
X182197234Y-97749534D01*
X182301309Y-97593775D01*
X182301310Y-97593773D01*
X182433773Y-97461310D01*
X182589533Y-97357235D01*
X182589534Y-97357234D01*
X182762605Y-97285546D01*
X182946333Y-97249000D01*
X183133667Y-97249000D01*
X183317395Y-97285546D01*
X183317395Y-97285546D01*
G37*
G36*
X181451000Y-99151000D02*
G01*
X179549000Y-99151000D01*
X179549000Y-97249000D01*
X181451000Y-97249000D01*
X181451000Y-99151000D01*
X181451000Y-99151000D01*
G37*
G36*
X148201000Y-74951000D02*
G01*
X146299000Y-74951000D01*
X146299000Y-73049000D01*
X148201000Y-73049000D01*
X148201000Y-74951000D01*
X148201000Y-74951000D01*
G37*
G36*
X150067395Y-73085546D02*
G01*
X150240466Y-73157234D01*
X150240467Y-73157235D01*
X150396227Y-73261310D01*
X150528690Y-73393773D01*
X150528691Y-73393775D01*
X150632766Y-73549534D01*
X150704454Y-73722605D01*
X150741000Y-73906333D01*
X150741000Y-74093667D01*
X150704454Y-74277395D01*
X150632766Y-74450466D01*
X150632765Y-74450467D01*
X150528690Y-74606227D01*
X150396227Y-74738690D01*
X150317818Y-74791081D01*
X150240466Y-74842766D01*
X150067395Y-74914454D01*
X149883667Y-74951000D01*
X149696333Y-74951000D01*
X149512605Y-74914454D01*
X149339534Y-74842766D01*
X149262182Y-74791081D01*
X149183773Y-74738690D01*
X149051310Y-74606227D01*
X148947235Y-74450467D01*
X148947234Y-74450466D01*
X148875546Y-74277395D01*
X148839000Y-74093667D01*
X148839000Y-73906333D01*
X148875546Y-73722605D01*
X148947234Y-73549534D01*
X149051309Y-73393775D01*
X149051310Y-73393773D01*
X149183773Y-73261310D01*
X149339533Y-73157235D01*
X149339534Y-73157234D01*
X149512605Y-73085546D01*
X149696333Y-73049000D01*
X149883667Y-73049000D01*
X150067395Y-73085546D01*
X150067395Y-73085546D01*
G37*
M02*
