M48
; DRILL file {KiCad (5.1.2)-2} date 11/11/19 22:41:23
; FORMAT={-:-/ absolute / inch / decimal}
; #@! TF.CreationDate,2019-11-11T22:41:23-05:00
; #@! TF.GenerationSoftware,Kicad,Pcbnew,(5.1.2)-2
FMAT,2
INCH
T1C0.0157
T2C0.0354
T3C0.0394
T4C0.0354
%
G90
G05
T1
X4.639Y-3.7941
X5.7925Y-3.598
X5.8122Y-3.4996
X5.8469Y-2.7972
X5.8516Y-3.6571
X5.8752Y-3.5035
X5.9106Y-3.539
X7.1075Y-3.7909
X7.224Y-3.9579
T2
X4.9862Y-5.4055
X5.0862Y-5.4055
X5.7972Y-2.9134
X5.8972Y-2.9134
X6.6063Y-5.4055
X6.7063Y-5.4055
X4.4862Y-3.8661
X4.5862Y-3.8661
X5.7972Y-4.2913
X5.8972Y-4.2913
X7.1063Y-3.8661
X7.2063Y-3.8661
T3
X5.7465Y-3.8917
X5.8465Y-3.8917
X5.9465Y-3.8917
T4
X6.2733Y-5.3223
X6.3689Y-5.3917
T0
M30
