G04 #@! TF.GenerationSoftware,KiCad,Pcbnew,(5.1.2)-2*
G04 #@! TF.CreationDate,2019-11-11T22:41:21-05:00*
G04 #@! TF.ProjectId,LightStar_RevA,4c696768-7453-4746-9172-5f526576412e,rev?*
G04 #@! TF.SameCoordinates,Original*
G04 #@! TF.FileFunction,Soldermask,Bot*
G04 #@! TF.FilePolarity,Negative*
%FSLAX46Y46*%
G04 Gerber Fmt 4.6, Leading zero omitted, Abs format (unit mm)*
G04 Created by KiCad (PCBNEW (5.1.2)-2) date 2019-11-11 22:41:21*
%MOMM*%
%LPD*%
G04 APERTURE LIST*
%ADD10C,0.050000*%
G04 APERTURE END LIST*
D10*
G36*
X163573239Y-139061313D02*
G01*
X163043056Y-139791046D01*
X162151519Y-139143307D01*
X162681702Y-138413574D01*
X163573239Y-139061313D01*
X163573239Y-139061313D01*
G37*
G36*
X170617395Y-136385546D02*
G01*
X170790466Y-136457234D01*
X170790467Y-136457235D01*
X170946227Y-136561310D01*
X171078690Y-136693773D01*
X171090429Y-136711342D01*
X171182766Y-136849534D01*
X171254454Y-137022605D01*
X171291000Y-137206333D01*
X171291000Y-137393667D01*
X171254454Y-137577395D01*
X171182766Y-137750466D01*
X171182765Y-137750467D01*
X171078690Y-137906227D01*
X170946227Y-138038690D01*
X170867818Y-138091081D01*
X170790466Y-138142766D01*
X170617395Y-138214454D01*
X170433667Y-138251000D01*
X170246333Y-138251000D01*
X170062605Y-138214454D01*
X169889534Y-138142766D01*
X169812182Y-138091081D01*
X169733773Y-138038690D01*
X169601310Y-137906227D01*
X169497235Y-137750467D01*
X169497234Y-137750466D01*
X169425546Y-137577395D01*
X169389000Y-137393667D01*
X169389000Y-137206333D01*
X169425546Y-137022605D01*
X169497234Y-136849534D01*
X169589571Y-136711342D01*
X169601310Y-136693773D01*
X169733773Y-136561310D01*
X169889533Y-136457235D01*
X169889534Y-136457234D01*
X170062605Y-136385546D01*
X170246333Y-136349000D01*
X170433667Y-136349000D01*
X170617395Y-136385546D01*
X170617395Y-136385546D01*
G37*
G36*
X168751000Y-138251000D02*
G01*
X166849000Y-138251000D01*
X166849000Y-136349000D01*
X168751000Y-136349000D01*
X168751000Y-138251000D01*
X168751000Y-138251000D01*
G37*
G36*
X129467395Y-136385546D02*
G01*
X129640466Y-136457234D01*
X129640467Y-136457235D01*
X129796227Y-136561310D01*
X129928690Y-136693773D01*
X129940429Y-136711342D01*
X130032766Y-136849534D01*
X130104454Y-137022605D01*
X130141000Y-137206333D01*
X130141000Y-137393667D01*
X130104454Y-137577395D01*
X130032766Y-137750466D01*
X130032765Y-137750467D01*
X129928690Y-137906227D01*
X129796227Y-138038690D01*
X129717818Y-138091081D01*
X129640466Y-138142766D01*
X129467395Y-138214454D01*
X129283667Y-138251000D01*
X129096333Y-138251000D01*
X128912605Y-138214454D01*
X128739534Y-138142766D01*
X128662182Y-138091081D01*
X128583773Y-138038690D01*
X128451310Y-137906227D01*
X128347235Y-137750467D01*
X128347234Y-137750466D01*
X128275546Y-137577395D01*
X128239000Y-137393667D01*
X128239000Y-137206333D01*
X128275546Y-137022605D01*
X128347234Y-136849534D01*
X128439571Y-136711342D01*
X128451310Y-136693773D01*
X128583773Y-136561310D01*
X128739533Y-136457235D01*
X128739534Y-136457234D01*
X128912605Y-136385546D01*
X129096333Y-136349000D01*
X129283667Y-136349000D01*
X129467395Y-136385546D01*
X129467395Y-136385546D01*
G37*
G36*
X127601000Y-138251000D02*
G01*
X125699000Y-138251000D01*
X125699000Y-136349000D01*
X127601000Y-136349000D01*
X127601000Y-138251000D01*
X127601000Y-138251000D01*
G37*
G36*
X164872245Y-137273386D02*
G01*
X164342062Y-138003119D01*
X163450525Y-137355380D01*
X163980708Y-136625647D01*
X164872245Y-137273386D01*
X164872245Y-137273386D01*
G37*
G36*
X161867067Y-136457234D02*
G01*
X161915692Y-136466906D01*
X161953458Y-136482549D01*
X162006867Y-136504672D01*
X162006868Y-136504673D01*
X162088925Y-136559501D01*
X162158708Y-136629284D01*
X162158709Y-136629286D01*
X162213537Y-136711342D01*
X162251303Y-136802518D01*
X162270556Y-136899308D01*
X162270556Y-136997998D01*
X162251303Y-137094788D01*
X162213537Y-137185964D01*
X162186308Y-137226715D01*
X162158708Y-137268022D01*
X162088925Y-137337805D01*
X162062622Y-137355380D01*
X162006867Y-137392634D01*
X161953458Y-137414757D01*
X161915692Y-137430400D01*
X161867296Y-137440026D01*
X161818901Y-137449653D01*
X161720211Y-137449653D01*
X161671816Y-137440026D01*
X161623420Y-137430400D01*
X161585654Y-137414757D01*
X161532245Y-137392634D01*
X161476490Y-137355380D01*
X161450187Y-137337805D01*
X161380404Y-137268022D01*
X161352804Y-137226715D01*
X161325575Y-137185964D01*
X161287809Y-137094788D01*
X161268556Y-136997998D01*
X161268556Y-136899308D01*
X161287809Y-136802518D01*
X161325575Y-136711342D01*
X161380403Y-136629286D01*
X161380404Y-136629284D01*
X161450187Y-136559501D01*
X161532244Y-136504673D01*
X161532245Y-136504672D01*
X161585654Y-136482549D01*
X161623420Y-136466906D01*
X161672045Y-136457234D01*
X161720211Y-136447653D01*
X161818901Y-136447653D01*
X161867067Y-136457234D01*
X161867067Y-136457234D01*
G37*
G36*
X164206053Y-135553302D02*
G01*
X164206053Y-135553303D01*
X163264421Y-136849347D01*
X162615589Y-136377944D01*
X162615589Y-136377943D01*
X163557221Y-135081899D01*
X164206053Y-135553302D01*
X164206053Y-135553302D01*
G37*
G36*
X159440245Y-134693925D02*
G01*
X159488641Y-134703551D01*
X159526407Y-134719194D01*
X159579816Y-134741317D01*
X159579817Y-134741318D01*
X159661874Y-134796146D01*
X159731657Y-134865929D01*
X159731658Y-134865931D01*
X159786486Y-134947987D01*
X159824252Y-135039163D01*
X159843505Y-135135953D01*
X159843505Y-135234643D01*
X159824252Y-135331433D01*
X159786486Y-135422609D01*
X159786485Y-135422610D01*
X159731657Y-135504667D01*
X159661874Y-135574450D01*
X159620567Y-135602050D01*
X159579816Y-135629279D01*
X159526407Y-135651402D01*
X159488641Y-135667045D01*
X159440245Y-135676672D01*
X159391850Y-135686298D01*
X159293160Y-135686298D01*
X159244765Y-135676672D01*
X159196369Y-135667045D01*
X159158603Y-135651402D01*
X159105194Y-135629279D01*
X159064443Y-135602050D01*
X159023136Y-135574450D01*
X158953353Y-135504667D01*
X158898525Y-135422610D01*
X158898524Y-135422609D01*
X158860758Y-135331433D01*
X158841505Y-135234643D01*
X158841505Y-135135953D01*
X158860758Y-135039163D01*
X158898524Y-134947987D01*
X158953352Y-134865931D01*
X158953353Y-134865929D01*
X159023136Y-134796146D01*
X159105193Y-134741318D01*
X159105194Y-134741317D01*
X159158603Y-134719194D01*
X159196369Y-134703551D01*
X159244765Y-134693925D01*
X159293160Y-134684298D01*
X159391850Y-134684298D01*
X159440245Y-134693925D01*
X159440245Y-134693925D01*
G37*
G36*
X157667415Y-134770481D02*
G01*
X157137232Y-135500214D01*
X156245695Y-134852475D01*
X156775878Y-134122742D01*
X157667415Y-134770481D01*
X157667415Y-134770481D01*
G37*
G36*
X161779002Y-133789946D02*
G01*
X161779002Y-133789947D01*
X160837370Y-135085991D01*
X160188538Y-134614588D01*
X160188538Y-134614587D01*
X161130170Y-133318543D01*
X161779002Y-133789946D01*
X161779002Y-133789946D01*
G37*
G36*
X160565477Y-132908268D02*
G01*
X160565477Y-132908269D01*
X159623845Y-134204313D01*
X158975013Y-133732910D01*
X158975013Y-133732909D01*
X159916645Y-132436865D01*
X160565477Y-132908268D01*
X160565477Y-132908268D01*
G37*
G36*
X158966420Y-132982554D02*
G01*
X158436237Y-133712287D01*
X157544700Y-133064548D01*
X158074883Y-132334815D01*
X158966420Y-132982554D01*
X158966420Y-132982554D01*
G37*
G36*
X165662199Y-128449954D02*
G01*
X165674450Y-128450556D01*
X165692869Y-128450556D01*
X165715149Y-128452750D01*
X165799233Y-128469476D01*
X165820660Y-128475976D01*
X165899858Y-128508780D01*
X165905303Y-128511691D01*
X165905309Y-128511693D01*
X165914169Y-128516429D01*
X165914173Y-128516432D01*
X165919614Y-128519340D01*
X165990899Y-128566971D01*
X166008204Y-128581172D01*
X166068828Y-128641796D01*
X166083029Y-128659101D01*
X166130660Y-128730386D01*
X166133568Y-128735827D01*
X166133571Y-128735831D01*
X166138307Y-128744691D01*
X166138309Y-128744697D01*
X166141220Y-128750142D01*
X166174024Y-128829340D01*
X166180524Y-128850767D01*
X166197250Y-128934851D01*
X166199444Y-128957131D01*
X166199444Y-128975550D01*
X166200046Y-128987801D01*
X166201852Y-129006139D01*
X166201852Y-129493860D01*
X166200263Y-129509999D01*
X166197348Y-129519608D01*
X166192610Y-129528472D01*
X166186237Y-129536237D01*
X166173794Y-129546448D01*
X166163425Y-129553378D01*
X166146098Y-129570705D01*
X166132485Y-129591080D01*
X166123109Y-129613720D01*
X166118329Y-129637753D01*
X166118330Y-129662257D01*
X166123112Y-129686290D01*
X166132490Y-129708929D01*
X166146105Y-129729302D01*
X166163432Y-129746629D01*
X166173802Y-129753558D01*
X166186237Y-129763763D01*
X166192610Y-129771528D01*
X166197348Y-129780392D01*
X166200263Y-129790001D01*
X166201852Y-129806140D01*
X166201852Y-130293862D01*
X166200046Y-130312199D01*
X166199444Y-130324450D01*
X166199444Y-130342869D01*
X166197250Y-130365149D01*
X166180524Y-130449233D01*
X166174024Y-130470660D01*
X166141220Y-130549858D01*
X166138309Y-130555303D01*
X166138307Y-130555309D01*
X166133571Y-130564169D01*
X166133568Y-130564173D01*
X166130660Y-130569614D01*
X166083029Y-130640899D01*
X166068828Y-130658204D01*
X166008204Y-130718828D01*
X165990899Y-130733029D01*
X165919614Y-130780660D01*
X165914173Y-130783568D01*
X165914169Y-130783571D01*
X165905309Y-130788307D01*
X165905303Y-130788309D01*
X165899858Y-130791220D01*
X165820660Y-130824024D01*
X165799233Y-130830524D01*
X165715149Y-130847250D01*
X165692869Y-130849444D01*
X165674450Y-130849444D01*
X165662199Y-130850046D01*
X165643862Y-130851852D01*
X165156138Y-130851852D01*
X165137801Y-130850046D01*
X165125550Y-130849444D01*
X165107131Y-130849444D01*
X165084851Y-130847250D01*
X165000767Y-130830524D01*
X164979340Y-130824024D01*
X164900142Y-130791220D01*
X164894697Y-130788309D01*
X164894691Y-130788307D01*
X164885831Y-130783571D01*
X164885827Y-130783568D01*
X164880386Y-130780660D01*
X164809101Y-130733029D01*
X164791796Y-130718828D01*
X164731172Y-130658204D01*
X164716971Y-130640899D01*
X164669340Y-130569614D01*
X164666432Y-130564173D01*
X164666429Y-130564169D01*
X164661693Y-130555309D01*
X164661691Y-130555303D01*
X164658780Y-130549858D01*
X164625976Y-130470660D01*
X164619476Y-130449233D01*
X164602750Y-130365149D01*
X164600556Y-130342869D01*
X164600556Y-130324450D01*
X164599954Y-130312199D01*
X164598148Y-130293862D01*
X164598148Y-129806140D01*
X164599737Y-129790001D01*
X164602652Y-129780392D01*
X164607390Y-129771528D01*
X164613763Y-129763763D01*
X164626206Y-129753552D01*
X164636575Y-129746622D01*
X164653902Y-129729295D01*
X164667515Y-129708920D01*
X164676891Y-129686280D01*
X164681671Y-129662247D01*
X164681670Y-129637743D01*
X164676888Y-129613710D01*
X164667510Y-129591071D01*
X164653895Y-129570698D01*
X164636568Y-129553371D01*
X164626198Y-129546442D01*
X164613763Y-129536237D01*
X164607390Y-129528472D01*
X164602652Y-129519608D01*
X164599737Y-129509999D01*
X164598148Y-129493860D01*
X164598148Y-129006139D01*
X164599954Y-128987801D01*
X164600556Y-128975550D01*
X164600556Y-128957131D01*
X164602750Y-128934851D01*
X164619476Y-128850767D01*
X164625976Y-128829340D01*
X164658780Y-128750142D01*
X164661691Y-128744697D01*
X164661693Y-128744691D01*
X164666429Y-128735831D01*
X164666432Y-128735827D01*
X164669340Y-128730386D01*
X164716971Y-128659101D01*
X164731172Y-128641796D01*
X164791796Y-128581172D01*
X164809101Y-128566971D01*
X164880386Y-128519340D01*
X164885827Y-128516432D01*
X164885831Y-128516429D01*
X164894691Y-128511693D01*
X164894697Y-128511691D01*
X164900142Y-128508780D01*
X164979340Y-128475976D01*
X165000767Y-128469476D01*
X165084851Y-128452750D01*
X165107131Y-128450556D01*
X165125550Y-128450556D01*
X165137801Y-128449954D01*
X165156139Y-128448148D01*
X165643861Y-128448148D01*
X165662199Y-128449954D01*
X165662199Y-128449954D01*
G37*
G36*
X164501000Y-123101000D02*
G01*
X161799000Y-123101000D01*
X161799000Y-119399000D01*
X164501000Y-119399000D01*
X164501000Y-123101000D01*
X164501000Y-123101000D01*
G37*
G36*
X135201000Y-123101000D02*
G01*
X132499000Y-123101000D01*
X132499000Y-119399000D01*
X135201000Y-119399000D01*
X135201000Y-123101000D01*
X135201000Y-123101000D01*
G37*
G36*
X148201000Y-109951000D02*
G01*
X146299000Y-109951000D01*
X146299000Y-108049000D01*
X148201000Y-108049000D01*
X148201000Y-109951000D01*
X148201000Y-109951000D01*
G37*
G36*
X150067395Y-108085546D02*
G01*
X150240466Y-108157234D01*
X150240467Y-108157235D01*
X150396227Y-108261310D01*
X150528690Y-108393773D01*
X150551634Y-108428112D01*
X150632766Y-108549534D01*
X150704454Y-108722605D01*
X150741000Y-108906333D01*
X150741000Y-109093667D01*
X150704454Y-109277395D01*
X150632766Y-109450466D01*
X150632765Y-109450467D01*
X150528690Y-109606227D01*
X150396227Y-109738690D01*
X150317818Y-109791081D01*
X150240466Y-109842766D01*
X150067395Y-109914454D01*
X149883667Y-109951000D01*
X149696333Y-109951000D01*
X149512605Y-109914454D01*
X149339534Y-109842766D01*
X149262182Y-109791081D01*
X149183773Y-109738690D01*
X149051310Y-109606227D01*
X148947235Y-109450467D01*
X148947234Y-109450466D01*
X148875546Y-109277395D01*
X148839000Y-109093667D01*
X148839000Y-108906333D01*
X148875546Y-108722605D01*
X148947234Y-108549534D01*
X149028366Y-108428112D01*
X149051310Y-108393773D01*
X149183773Y-108261310D01*
X149339533Y-108157235D01*
X149339534Y-108157234D01*
X149512605Y-108085546D01*
X149696333Y-108049000D01*
X149883667Y-108049000D01*
X150067395Y-108085546D01*
X150067395Y-108085546D01*
G37*
G36*
X156939468Y-107143565D02*
G01*
X156978138Y-107155296D01*
X157013777Y-107174346D01*
X157045017Y-107199983D01*
X157070654Y-107231223D01*
X157089704Y-107266862D01*
X157101435Y-107305532D01*
X157106000Y-107351888D01*
X157106000Y-108428112D01*
X157101435Y-108474468D01*
X157089704Y-108513138D01*
X157070654Y-108548777D01*
X157045017Y-108580017D01*
X157013777Y-108605654D01*
X156978138Y-108624704D01*
X156939468Y-108636435D01*
X156893112Y-108641000D01*
X156241888Y-108641000D01*
X156195532Y-108636435D01*
X156156862Y-108624704D01*
X156121223Y-108605654D01*
X156089983Y-108580017D01*
X156064346Y-108548777D01*
X156045296Y-108513138D01*
X156033565Y-108474468D01*
X156029000Y-108428112D01*
X156029000Y-107351888D01*
X156033565Y-107305532D01*
X156045296Y-107266862D01*
X156064346Y-107231223D01*
X156089983Y-107199983D01*
X156121223Y-107174346D01*
X156156862Y-107155296D01*
X156195532Y-107143565D01*
X156241888Y-107139000D01*
X156893112Y-107139000D01*
X156939468Y-107143565D01*
X156939468Y-107143565D01*
G37*
G36*
X155064468Y-107143565D02*
G01*
X155103138Y-107155296D01*
X155138777Y-107174346D01*
X155170017Y-107199983D01*
X155195654Y-107231223D01*
X155214704Y-107266862D01*
X155226435Y-107305532D01*
X155231000Y-107351888D01*
X155231000Y-108428112D01*
X155226435Y-108474468D01*
X155214704Y-108513138D01*
X155195654Y-108548777D01*
X155170017Y-108580017D01*
X155138777Y-108605654D01*
X155103138Y-108624704D01*
X155064468Y-108636435D01*
X155018112Y-108641000D01*
X154366888Y-108641000D01*
X154320532Y-108636435D01*
X154281862Y-108624704D01*
X154246223Y-108605654D01*
X154214983Y-108580017D01*
X154189346Y-108548777D01*
X154170296Y-108513138D01*
X154158565Y-108474468D01*
X154154000Y-108428112D01*
X154154000Y-107351888D01*
X154158565Y-107305532D01*
X154170296Y-107266862D01*
X154189346Y-107231223D01*
X154214983Y-107199983D01*
X154246223Y-107174346D01*
X154281862Y-107155296D01*
X154320532Y-107143565D01*
X154366888Y-107139000D01*
X155018112Y-107139000D01*
X155064468Y-107143565D01*
X155064468Y-107143565D01*
G37*
G36*
X155184591Y-103368085D02*
G01*
X155218569Y-103378393D01*
X155249890Y-103395134D01*
X155277339Y-103417661D01*
X155299866Y-103445110D01*
X155316607Y-103476431D01*
X155326915Y-103510409D01*
X155331000Y-103551890D01*
X155331000Y-104228110D01*
X155326915Y-104269591D01*
X155316607Y-104303569D01*
X155299866Y-104334890D01*
X155277339Y-104362339D01*
X155249890Y-104384866D01*
X155218569Y-104401607D01*
X155184591Y-104411915D01*
X155143110Y-104416000D01*
X154541890Y-104416000D01*
X154500409Y-104411915D01*
X154466431Y-104401607D01*
X154435110Y-104384866D01*
X154407661Y-104362339D01*
X154385134Y-104334890D01*
X154368393Y-104303569D01*
X154358085Y-104269591D01*
X154354000Y-104228110D01*
X154354000Y-103551890D01*
X154358085Y-103510409D01*
X154368393Y-103476431D01*
X154385134Y-103445110D01*
X154407661Y-103417661D01*
X154435110Y-103395134D01*
X154466431Y-103378393D01*
X154500409Y-103368085D01*
X154541890Y-103364000D01*
X155143110Y-103364000D01*
X155184591Y-103368085D01*
X155184591Y-103368085D01*
G37*
G36*
X156759591Y-103368085D02*
G01*
X156793569Y-103378393D01*
X156824890Y-103395134D01*
X156852339Y-103417661D01*
X156874866Y-103445110D01*
X156891607Y-103476431D01*
X156901915Y-103510409D01*
X156906000Y-103551890D01*
X156906000Y-104228110D01*
X156901915Y-104269591D01*
X156891607Y-104303569D01*
X156874866Y-104334890D01*
X156852339Y-104362339D01*
X156824890Y-104384866D01*
X156793569Y-104401607D01*
X156759591Y-104411915D01*
X156718110Y-104416000D01*
X156116890Y-104416000D01*
X156075409Y-104411915D01*
X156041431Y-104401607D01*
X156010110Y-104384866D01*
X155982661Y-104362339D01*
X155960134Y-104334890D01*
X155943393Y-104303569D01*
X155933085Y-104269591D01*
X155929000Y-104228110D01*
X155929000Y-103551890D01*
X155933085Y-103510409D01*
X155943393Y-103476431D01*
X155960134Y-103445110D01*
X155982661Y-103417661D01*
X156010110Y-103395134D01*
X156041431Y-103378393D01*
X156075409Y-103368085D01*
X156116890Y-103364000D01*
X156718110Y-103364000D01*
X156759591Y-103368085D01*
X156759591Y-103368085D01*
G37*
G36*
X166813097Y-101384069D02*
G01*
X166916032Y-101394207D01*
X167114146Y-101454305D01*
X167114149Y-101454306D01*
X167210975Y-101506061D01*
X167296729Y-101551897D01*
X167456765Y-101683235D01*
X167588103Y-101843271D01*
X167633939Y-101929025D01*
X167685694Y-102025851D01*
X167685695Y-102025854D01*
X167745793Y-102223968D01*
X167766085Y-102430000D01*
X167745793Y-102636032D01*
X167701589Y-102781750D01*
X167685694Y-102834149D01*
X167633939Y-102930975D01*
X167588103Y-103016729D01*
X167456765Y-103176765D01*
X167296729Y-103308103D01*
X167210975Y-103353939D01*
X167114149Y-103405694D01*
X167114146Y-103405695D01*
X166916032Y-103465793D01*
X166813097Y-103475931D01*
X166761631Y-103481000D01*
X166658369Y-103481000D01*
X166606903Y-103475931D01*
X166503968Y-103465793D01*
X166305854Y-103405695D01*
X166305851Y-103405694D01*
X166209025Y-103353939D01*
X166123271Y-103308103D01*
X165963235Y-103176765D01*
X165831897Y-103016729D01*
X165786061Y-102930975D01*
X165734306Y-102834149D01*
X165718411Y-102781750D01*
X165674207Y-102636032D01*
X165653915Y-102430000D01*
X165674207Y-102223968D01*
X165734305Y-102025854D01*
X165734306Y-102025851D01*
X165786061Y-101929025D01*
X165831897Y-101843271D01*
X165963235Y-101683235D01*
X166123271Y-101551897D01*
X166209025Y-101506061D01*
X166305851Y-101454306D01*
X166305854Y-101454305D01*
X166503968Y-101394207D01*
X166606903Y-101384069D01*
X166658369Y-101379000D01*
X166761631Y-101379000D01*
X166813097Y-101384069D01*
X166813097Y-101384069D01*
G37*
G36*
X164273097Y-101384069D02*
G01*
X164376032Y-101394207D01*
X164574146Y-101454305D01*
X164574149Y-101454306D01*
X164670975Y-101506061D01*
X164756729Y-101551897D01*
X164916765Y-101683235D01*
X165048103Y-101843271D01*
X165093939Y-101929025D01*
X165145694Y-102025851D01*
X165145695Y-102025854D01*
X165205793Y-102223968D01*
X165226085Y-102430000D01*
X165205793Y-102636032D01*
X165161589Y-102781750D01*
X165145694Y-102834149D01*
X165093939Y-102930975D01*
X165048103Y-103016729D01*
X164916765Y-103176765D01*
X164756729Y-103308103D01*
X164670975Y-103353939D01*
X164574149Y-103405694D01*
X164574146Y-103405695D01*
X164376032Y-103465793D01*
X164273097Y-103475931D01*
X164221631Y-103481000D01*
X164118369Y-103481000D01*
X164066903Y-103475931D01*
X163963968Y-103465793D01*
X163765854Y-103405695D01*
X163765851Y-103405694D01*
X163669025Y-103353939D01*
X163583271Y-103308103D01*
X163423235Y-103176765D01*
X163291897Y-103016729D01*
X163246061Y-102930975D01*
X163194306Y-102834149D01*
X163178411Y-102781750D01*
X163134207Y-102636032D01*
X163113915Y-102430000D01*
X163134207Y-102223968D01*
X163194305Y-102025854D01*
X163194306Y-102025851D01*
X163246061Y-101929025D01*
X163291897Y-101843271D01*
X163423235Y-101683235D01*
X163583271Y-101551897D01*
X163669025Y-101506061D01*
X163765851Y-101454306D01*
X163765854Y-101454305D01*
X163963968Y-101394207D01*
X164066903Y-101384069D01*
X164118369Y-101379000D01*
X164221631Y-101379000D01*
X164273097Y-101384069D01*
X164273097Y-101384069D01*
G37*
G36*
X161733097Y-101384069D02*
G01*
X161836032Y-101394207D01*
X162034146Y-101454305D01*
X162034149Y-101454306D01*
X162130975Y-101506061D01*
X162216729Y-101551897D01*
X162376765Y-101683235D01*
X162508103Y-101843271D01*
X162553939Y-101929025D01*
X162605694Y-102025851D01*
X162605695Y-102025854D01*
X162665793Y-102223968D01*
X162686085Y-102430000D01*
X162665793Y-102636032D01*
X162621589Y-102781750D01*
X162605694Y-102834149D01*
X162553939Y-102930975D01*
X162508103Y-103016729D01*
X162376765Y-103176765D01*
X162216729Y-103308103D01*
X162130975Y-103353939D01*
X162034149Y-103405694D01*
X162034146Y-103405695D01*
X161836032Y-103465793D01*
X161733097Y-103475931D01*
X161681631Y-103481000D01*
X161578369Y-103481000D01*
X161526903Y-103475931D01*
X161423968Y-103465793D01*
X161225854Y-103405695D01*
X161225851Y-103405694D01*
X161129025Y-103353939D01*
X161043271Y-103308103D01*
X160883235Y-103176765D01*
X160751897Y-103016729D01*
X160706061Y-102930975D01*
X160654306Y-102834149D01*
X160638411Y-102781750D01*
X160594207Y-102636032D01*
X160573915Y-102430000D01*
X160594207Y-102223968D01*
X160654305Y-102025854D01*
X160654306Y-102025851D01*
X160706061Y-101929025D01*
X160751897Y-101843271D01*
X160883235Y-101683235D01*
X161043271Y-101551897D01*
X161129025Y-101506061D01*
X161225851Y-101454306D01*
X161225854Y-101454305D01*
X161423968Y-101394207D01*
X161526903Y-101384069D01*
X161578369Y-101379000D01*
X161681631Y-101379000D01*
X161733097Y-101384069D01*
X161733097Y-101384069D01*
G37*
G36*
X150917092Y-101978085D02*
G01*
X150951070Y-101988393D01*
X150982391Y-102005134D01*
X151009840Y-102027661D01*
X151032367Y-102055110D01*
X151049108Y-102086431D01*
X151059416Y-102120409D01*
X151063501Y-102161890D01*
X151063501Y-102838110D01*
X151059416Y-102879591D01*
X151049108Y-102913569D01*
X151032367Y-102944890D01*
X151009840Y-102972339D01*
X150982391Y-102994866D01*
X150951070Y-103011607D01*
X150917092Y-103021915D01*
X150875611Y-103026000D01*
X150274391Y-103026000D01*
X150232910Y-103021915D01*
X150198932Y-103011607D01*
X150167611Y-102994866D01*
X150140162Y-102972339D01*
X150117635Y-102944890D01*
X150100894Y-102913569D01*
X150090586Y-102879591D01*
X150086501Y-102838110D01*
X150086501Y-102161890D01*
X150090586Y-102120409D01*
X150100894Y-102086431D01*
X150117635Y-102055110D01*
X150140162Y-102027661D01*
X150167611Y-102005134D01*
X150198932Y-101988393D01*
X150232910Y-101978085D01*
X150274391Y-101974000D01*
X150875611Y-101974000D01*
X150917092Y-101978085D01*
X150917092Y-101978085D01*
G37*
G36*
X149342092Y-101978085D02*
G01*
X149376070Y-101988393D01*
X149407391Y-102005134D01*
X149434840Y-102027661D01*
X149457367Y-102055110D01*
X149474108Y-102086431D01*
X149484416Y-102120409D01*
X149488501Y-102161890D01*
X149488501Y-102838110D01*
X149484416Y-102879591D01*
X149474108Y-102913569D01*
X149457367Y-102944890D01*
X149434840Y-102972339D01*
X149407391Y-102994866D01*
X149376070Y-103011607D01*
X149342092Y-103021915D01*
X149300611Y-103026000D01*
X148699391Y-103026000D01*
X148657910Y-103021915D01*
X148623932Y-103011607D01*
X148592611Y-102994866D01*
X148565162Y-102972339D01*
X148542635Y-102944890D01*
X148525894Y-102913569D01*
X148515586Y-102879591D01*
X148511501Y-102838110D01*
X148511501Y-102161890D01*
X148515586Y-102120409D01*
X148525894Y-102086431D01*
X148542635Y-102055110D01*
X148565162Y-102027661D01*
X148592611Y-102005134D01*
X148623932Y-101988393D01*
X148657910Y-101978085D01*
X148699391Y-101974000D01*
X149300611Y-101974000D01*
X149342092Y-101978085D01*
X149342092Y-101978085D01*
G37*
G36*
X164356425Y-98852760D02*
G01*
X164356428Y-98852761D01*
X164356429Y-98852761D01*
X164535693Y-98907140D01*
X164535696Y-98907142D01*
X164535697Y-98907142D01*
X164700903Y-98995446D01*
X164845712Y-99114288D01*
X164964554Y-99259097D01*
X165027788Y-99377401D01*
X165052860Y-99424307D01*
X165107239Y-99603572D01*
X165107240Y-99603576D01*
X165121000Y-99743283D01*
X165121000Y-100036718D01*
X165107240Y-100176425D01*
X165107239Y-100176428D01*
X165107239Y-100176429D01*
X165052860Y-100355693D01*
X165052858Y-100355696D01*
X165052858Y-100355697D01*
X164964554Y-100520903D01*
X164845712Y-100665712D01*
X164700903Y-100784554D01*
X164549099Y-100865694D01*
X164535692Y-100872860D01*
X164356428Y-100927239D01*
X164356427Y-100927239D01*
X164356424Y-100927240D01*
X164170000Y-100945601D01*
X163983575Y-100927240D01*
X163983572Y-100927239D01*
X163983571Y-100927239D01*
X163804307Y-100872860D01*
X163790900Y-100865694D01*
X163639097Y-100784554D01*
X163494288Y-100665712D01*
X163375446Y-100520903D01*
X163287142Y-100355696D01*
X163287141Y-100355693D01*
X163287140Y-100355692D01*
X163232761Y-100176428D01*
X163232761Y-100176427D01*
X163232760Y-100176424D01*
X163219000Y-100036717D01*
X163219000Y-99743282D01*
X163232760Y-99603575D01*
X163232761Y-99603571D01*
X163287140Y-99424307D01*
X163295723Y-99408250D01*
X163375446Y-99259098D01*
X163393517Y-99237078D01*
X163494288Y-99114288D01*
X163581440Y-99042765D01*
X163639098Y-98995446D01*
X163804304Y-98907142D01*
X163804305Y-98907142D01*
X163804308Y-98907140D01*
X163983572Y-98852761D01*
X163983573Y-98852761D01*
X163983576Y-98852760D01*
X164170000Y-98834399D01*
X164356425Y-98852760D01*
X164356425Y-98852760D01*
G37*
G36*
X162581000Y-100941000D02*
G01*
X160679000Y-100941000D01*
X160679000Y-98839000D01*
X162581000Y-98839000D01*
X162581000Y-100941000D01*
X162581000Y-100941000D01*
G37*
G36*
X166813097Y-98844069D02*
G01*
X166916032Y-98854207D01*
X167090526Y-98907140D01*
X167114149Y-98914306D01*
X167187505Y-98953516D01*
X167296729Y-99011897D01*
X167456765Y-99143235D01*
X167588103Y-99303271D01*
X167611923Y-99347835D01*
X167685694Y-99485851D01*
X167685695Y-99485854D01*
X167745793Y-99683968D01*
X167766085Y-99890000D01*
X167745793Y-100096032D01*
X167685695Y-100294146D01*
X167685694Y-100294149D01*
X167652798Y-100355692D01*
X167588103Y-100476729D01*
X167456765Y-100636765D01*
X167296729Y-100768103D01*
X167210975Y-100813939D01*
X167114149Y-100865694D01*
X167114146Y-100865695D01*
X166916032Y-100925793D01*
X166813097Y-100935931D01*
X166761631Y-100941000D01*
X166658369Y-100941000D01*
X166606903Y-100935931D01*
X166503968Y-100925793D01*
X166305854Y-100865695D01*
X166305851Y-100865694D01*
X166209025Y-100813939D01*
X166123271Y-100768103D01*
X165963235Y-100636765D01*
X165831897Y-100476729D01*
X165767202Y-100355692D01*
X165734306Y-100294149D01*
X165734305Y-100294146D01*
X165674207Y-100096032D01*
X165653915Y-99890000D01*
X165674207Y-99683968D01*
X165734305Y-99485854D01*
X165734306Y-99485851D01*
X165808077Y-99347835D01*
X165831897Y-99303271D01*
X165963235Y-99143235D01*
X166123271Y-99011897D01*
X166232495Y-98953516D01*
X166305851Y-98914306D01*
X166329474Y-98907140D01*
X166503968Y-98854207D01*
X166606903Y-98844069D01*
X166658369Y-98839000D01*
X166761631Y-98839000D01*
X166813097Y-98844069D01*
X166813097Y-98844069D01*
G37*
G36*
X156939468Y-99143565D02*
G01*
X156978138Y-99155296D01*
X157013777Y-99174346D01*
X157045017Y-99199983D01*
X157070654Y-99231223D01*
X157089704Y-99266862D01*
X157101435Y-99305532D01*
X157106000Y-99351888D01*
X157106000Y-100428112D01*
X157101435Y-100474468D01*
X157089704Y-100513138D01*
X157070654Y-100548777D01*
X157045017Y-100580017D01*
X157013777Y-100605654D01*
X156978138Y-100624704D01*
X156939468Y-100636435D01*
X156893112Y-100641000D01*
X156241888Y-100641000D01*
X156195532Y-100636435D01*
X156156862Y-100624704D01*
X156121223Y-100605654D01*
X156089983Y-100580017D01*
X156064346Y-100548777D01*
X156045296Y-100513138D01*
X156033565Y-100474468D01*
X156029000Y-100428112D01*
X156029000Y-99351888D01*
X156033565Y-99305532D01*
X156045296Y-99266862D01*
X156064346Y-99231223D01*
X156089983Y-99199983D01*
X156121223Y-99174346D01*
X156156862Y-99155296D01*
X156195532Y-99143565D01*
X156241888Y-99139000D01*
X156893112Y-99139000D01*
X156939468Y-99143565D01*
X156939468Y-99143565D01*
G37*
G36*
X155064468Y-99143565D02*
G01*
X155103138Y-99155296D01*
X155138777Y-99174346D01*
X155170017Y-99199983D01*
X155195654Y-99231223D01*
X155214704Y-99266862D01*
X155226435Y-99305532D01*
X155231000Y-99351888D01*
X155231000Y-100428112D01*
X155226435Y-100474468D01*
X155214704Y-100513138D01*
X155195654Y-100548777D01*
X155170017Y-100580017D01*
X155138777Y-100605654D01*
X155103138Y-100624704D01*
X155064468Y-100636435D01*
X155018112Y-100641000D01*
X154366888Y-100641000D01*
X154320532Y-100636435D01*
X154281862Y-100624704D01*
X154246223Y-100605654D01*
X154214983Y-100580017D01*
X154189346Y-100548777D01*
X154170296Y-100513138D01*
X154158565Y-100474468D01*
X154154000Y-100428112D01*
X154154000Y-99351888D01*
X154158565Y-99305532D01*
X154170296Y-99266862D01*
X154189346Y-99231223D01*
X154214983Y-99199983D01*
X154246223Y-99174346D01*
X154281862Y-99155296D01*
X154320532Y-99143565D01*
X154366888Y-99139000D01*
X155018112Y-99139000D01*
X155064468Y-99143565D01*
X155064468Y-99143565D01*
G37*
G36*
X146266564Y-97839389D02*
G01*
X146457833Y-97918615D01*
X146457835Y-97918616D01*
X146629973Y-98033635D01*
X146776365Y-98180027D01*
X146852296Y-98293665D01*
X146891385Y-98352167D01*
X146970611Y-98543436D01*
X147011000Y-98746484D01*
X147011000Y-98953516D01*
X146970611Y-99156564D01*
X146891385Y-99347833D01*
X146891384Y-99347835D01*
X146776365Y-99519973D01*
X146629973Y-99666365D01*
X146457835Y-99781384D01*
X146457834Y-99781385D01*
X146457833Y-99781385D01*
X146266564Y-99860611D01*
X146063516Y-99901000D01*
X145856484Y-99901000D01*
X145653436Y-99860611D01*
X145462167Y-99781385D01*
X145462166Y-99781385D01*
X145462165Y-99781384D01*
X145290027Y-99666365D01*
X145143635Y-99519973D01*
X145028616Y-99347835D01*
X145028615Y-99347833D01*
X144949389Y-99156564D01*
X144909000Y-98953516D01*
X144909000Y-98746484D01*
X144949389Y-98543436D01*
X145028615Y-98352167D01*
X145067705Y-98293665D01*
X145143635Y-98180027D01*
X145290027Y-98033635D01*
X145462165Y-97918616D01*
X145462167Y-97918615D01*
X145653436Y-97839389D01*
X145856484Y-97799000D01*
X146063516Y-97799000D01*
X146266564Y-97839389D01*
X146266564Y-97839389D01*
G37*
G36*
X151346564Y-97839389D02*
G01*
X151537833Y-97918615D01*
X151537835Y-97918616D01*
X151709973Y-98033635D01*
X151856365Y-98180027D01*
X151932296Y-98293665D01*
X151971385Y-98352167D01*
X152050611Y-98543436D01*
X152091000Y-98746484D01*
X152091000Y-98953516D01*
X152050611Y-99156564D01*
X151971385Y-99347833D01*
X151971384Y-99347835D01*
X151856365Y-99519973D01*
X151709973Y-99666365D01*
X151537835Y-99781384D01*
X151537834Y-99781385D01*
X151537833Y-99781385D01*
X151346564Y-99860611D01*
X151143516Y-99901000D01*
X150936484Y-99901000D01*
X150733436Y-99860611D01*
X150542167Y-99781385D01*
X150542166Y-99781385D01*
X150542165Y-99781384D01*
X150370027Y-99666365D01*
X150223635Y-99519973D01*
X150108616Y-99347835D01*
X150108615Y-99347833D01*
X150029389Y-99156564D01*
X149989000Y-98953516D01*
X149989000Y-98746484D01*
X150029389Y-98543436D01*
X150108615Y-98352167D01*
X150147705Y-98293665D01*
X150223635Y-98180027D01*
X150370027Y-98033635D01*
X150542165Y-97918616D01*
X150542167Y-97918615D01*
X150733436Y-97839389D01*
X150936484Y-97799000D01*
X151143516Y-97799000D01*
X151346564Y-97839389D01*
X151346564Y-97839389D01*
G37*
G36*
X149551000Y-99901000D02*
G01*
X147449000Y-99901000D01*
X147449000Y-97799000D01*
X149551000Y-97799000D01*
X149551000Y-99901000D01*
X149551000Y-99901000D01*
G37*
G36*
X183317395Y-97285546D02*
G01*
X183490466Y-97357234D01*
X183490467Y-97357235D01*
X183646227Y-97461310D01*
X183778690Y-97593773D01*
X183778691Y-97593775D01*
X183882766Y-97749534D01*
X183954454Y-97922605D01*
X183991000Y-98106333D01*
X183991000Y-98293667D01*
X183954454Y-98477395D01*
X183882766Y-98650466D01*
X183882765Y-98650467D01*
X183778690Y-98806227D01*
X183646227Y-98938690D01*
X183624041Y-98953514D01*
X183490466Y-99042766D01*
X183317395Y-99114454D01*
X183133667Y-99151000D01*
X182946333Y-99151000D01*
X182762605Y-99114454D01*
X182589534Y-99042766D01*
X182455959Y-98953514D01*
X182433773Y-98938690D01*
X182301310Y-98806227D01*
X182197235Y-98650467D01*
X182197234Y-98650466D01*
X182125546Y-98477395D01*
X182089000Y-98293667D01*
X182089000Y-98106333D01*
X182125546Y-97922605D01*
X182197234Y-97749534D01*
X182301309Y-97593775D01*
X182301310Y-97593773D01*
X182433773Y-97461310D01*
X182589533Y-97357235D01*
X182589534Y-97357234D01*
X182762605Y-97285546D01*
X182946333Y-97249000D01*
X183133667Y-97249000D01*
X183317395Y-97285546D01*
X183317395Y-97285546D01*
G37*
G36*
X114901000Y-99151000D02*
G01*
X112999000Y-99151000D01*
X112999000Y-97249000D01*
X114901000Y-97249000D01*
X114901000Y-99151000D01*
X114901000Y-99151000D01*
G37*
G36*
X116767395Y-97285546D02*
G01*
X116940466Y-97357234D01*
X116940467Y-97357235D01*
X117096227Y-97461310D01*
X117228690Y-97593773D01*
X117228691Y-97593775D01*
X117332766Y-97749534D01*
X117404454Y-97922605D01*
X117441000Y-98106333D01*
X117441000Y-98293667D01*
X117404454Y-98477395D01*
X117332766Y-98650466D01*
X117332765Y-98650467D01*
X117228690Y-98806227D01*
X117096227Y-98938690D01*
X117074041Y-98953514D01*
X116940466Y-99042766D01*
X116767395Y-99114454D01*
X116583667Y-99151000D01*
X116396333Y-99151000D01*
X116212605Y-99114454D01*
X116039534Y-99042766D01*
X115905959Y-98953514D01*
X115883773Y-98938690D01*
X115751310Y-98806227D01*
X115647235Y-98650467D01*
X115647234Y-98650466D01*
X115575546Y-98477395D01*
X115539000Y-98293667D01*
X115539000Y-98106333D01*
X115575546Y-97922605D01*
X115647234Y-97749534D01*
X115751309Y-97593775D01*
X115751310Y-97593773D01*
X115883773Y-97461310D01*
X116039533Y-97357235D01*
X116039534Y-97357234D01*
X116212605Y-97285546D01*
X116396333Y-97249000D01*
X116583667Y-97249000D01*
X116767395Y-97285546D01*
X116767395Y-97285546D01*
G37*
G36*
X181451000Y-99151000D02*
G01*
X179549000Y-99151000D01*
X179549000Y-97249000D01*
X181451000Y-97249000D01*
X181451000Y-99151000D01*
X181451000Y-99151000D01*
G37*
G36*
X148064468Y-94143565D02*
G01*
X148103138Y-94155296D01*
X148138777Y-94174346D01*
X148170017Y-94199983D01*
X148195654Y-94231223D01*
X148214704Y-94266862D01*
X148226435Y-94305532D01*
X148231000Y-94351888D01*
X148231000Y-95428112D01*
X148226435Y-95474468D01*
X148214704Y-95513138D01*
X148195654Y-95548777D01*
X148170017Y-95580017D01*
X148138777Y-95605654D01*
X148103138Y-95624704D01*
X148064468Y-95636435D01*
X148018112Y-95641000D01*
X147366888Y-95641000D01*
X147320532Y-95636435D01*
X147281862Y-95624704D01*
X147246223Y-95605654D01*
X147214983Y-95580017D01*
X147189346Y-95548777D01*
X147170296Y-95513138D01*
X147158565Y-95474468D01*
X147154000Y-95428112D01*
X147154000Y-94351888D01*
X147158565Y-94305532D01*
X147170296Y-94266862D01*
X147189346Y-94231223D01*
X147214983Y-94199983D01*
X147246223Y-94174346D01*
X147281862Y-94155296D01*
X147320532Y-94143565D01*
X147366888Y-94139000D01*
X148018112Y-94139000D01*
X148064468Y-94143565D01*
X148064468Y-94143565D01*
G37*
G36*
X149939468Y-94143565D02*
G01*
X149978138Y-94155296D01*
X150013777Y-94174346D01*
X150045017Y-94199983D01*
X150070654Y-94231223D01*
X150089704Y-94266862D01*
X150101435Y-94305532D01*
X150106000Y-94351888D01*
X150106000Y-95428112D01*
X150101435Y-95474468D01*
X150089704Y-95513138D01*
X150070654Y-95548777D01*
X150045017Y-95580017D01*
X150013777Y-95605654D01*
X149978138Y-95624704D01*
X149939468Y-95636435D01*
X149893112Y-95641000D01*
X149241888Y-95641000D01*
X149195532Y-95636435D01*
X149156862Y-95624704D01*
X149121223Y-95605654D01*
X149089983Y-95580017D01*
X149064346Y-95548777D01*
X149045296Y-95513138D01*
X149033565Y-95474468D01*
X149029000Y-95428112D01*
X149029000Y-94351888D01*
X149033565Y-94305532D01*
X149045296Y-94266862D01*
X149064346Y-94231223D01*
X149089983Y-94199983D01*
X149121223Y-94174346D01*
X149156862Y-94155296D01*
X149195532Y-94143565D01*
X149241888Y-94139000D01*
X149893112Y-94139000D01*
X149939468Y-94143565D01*
X149939468Y-94143565D01*
G37*
G36*
X153051000Y-91081000D02*
G01*
X151249000Y-91081000D01*
X151249000Y-90329000D01*
X153051000Y-90329000D01*
X153051000Y-91081000D01*
X153051000Y-91081000D01*
G37*
G36*
X145751000Y-91081000D02*
G01*
X143949000Y-91081000D01*
X143949000Y-90329000D01*
X145751000Y-90329000D01*
X145751000Y-91081000D01*
X145751000Y-91081000D01*
G37*
G36*
X153051000Y-89811000D02*
G01*
X151249000Y-89811000D01*
X151249000Y-89059000D01*
X153051000Y-89059000D01*
X153051000Y-89811000D01*
X153051000Y-89811000D01*
G37*
G36*
X145751000Y-89811000D02*
G01*
X143949000Y-89811000D01*
X143949000Y-89059000D01*
X145751000Y-89059000D01*
X145751000Y-89811000D01*
X145751000Y-89811000D01*
G37*
G36*
X153051000Y-88541000D02*
G01*
X151249000Y-88541000D01*
X151249000Y-87789000D01*
X153051000Y-87789000D01*
X153051000Y-88541000D01*
X153051000Y-88541000D01*
G37*
G36*
X145751000Y-88541000D02*
G01*
X143949000Y-88541000D01*
X143949000Y-87789000D01*
X145751000Y-87789000D01*
X145751000Y-88541000D01*
X145751000Y-88541000D01*
G37*
G36*
X153051000Y-87271000D02*
G01*
X151249000Y-87271000D01*
X151249000Y-86519000D01*
X153051000Y-86519000D01*
X153051000Y-87271000D01*
X153051000Y-87271000D01*
G37*
G36*
X145751000Y-87271000D02*
G01*
X143949000Y-87271000D01*
X143949000Y-86519000D01*
X145751000Y-86519000D01*
X145751000Y-87271000D01*
X145751000Y-87271000D01*
G37*
G36*
X149809468Y-81253565D02*
G01*
X149848138Y-81265296D01*
X149883777Y-81284346D01*
X149915017Y-81309983D01*
X149940654Y-81341223D01*
X149959704Y-81376862D01*
X149971435Y-81415532D01*
X149976000Y-81461888D01*
X149976000Y-82538112D01*
X149971435Y-82584468D01*
X149959704Y-82623138D01*
X149940654Y-82658777D01*
X149915017Y-82690017D01*
X149883777Y-82715654D01*
X149848138Y-82734704D01*
X149809468Y-82746435D01*
X149763112Y-82751000D01*
X149111888Y-82751000D01*
X149065532Y-82746435D01*
X149026862Y-82734704D01*
X148991223Y-82715654D01*
X148959983Y-82690017D01*
X148934346Y-82658777D01*
X148915296Y-82623138D01*
X148903565Y-82584468D01*
X148899000Y-82538112D01*
X148899000Y-81461888D01*
X148903565Y-81415532D01*
X148915296Y-81376862D01*
X148934346Y-81341223D01*
X148959983Y-81309983D01*
X148991223Y-81284346D01*
X149026862Y-81265296D01*
X149065532Y-81253565D01*
X149111888Y-81249000D01*
X149763112Y-81249000D01*
X149809468Y-81253565D01*
X149809468Y-81253565D01*
G37*
G36*
X147934468Y-81253565D02*
G01*
X147973138Y-81265296D01*
X148008777Y-81284346D01*
X148040017Y-81309983D01*
X148065654Y-81341223D01*
X148084704Y-81376862D01*
X148096435Y-81415532D01*
X148101000Y-81461888D01*
X148101000Y-82538112D01*
X148096435Y-82584468D01*
X148084704Y-82623138D01*
X148065654Y-82658777D01*
X148040017Y-82690017D01*
X148008777Y-82715654D01*
X147973138Y-82734704D01*
X147934468Y-82746435D01*
X147888112Y-82751000D01*
X147236888Y-82751000D01*
X147190532Y-82746435D01*
X147151862Y-82734704D01*
X147116223Y-82715654D01*
X147084983Y-82690017D01*
X147059346Y-82658777D01*
X147040296Y-82623138D01*
X147028565Y-82584468D01*
X147024000Y-82538112D01*
X147024000Y-81461888D01*
X147028565Y-81415532D01*
X147040296Y-81376862D01*
X147059346Y-81341223D01*
X147084983Y-81309983D01*
X147116223Y-81284346D01*
X147151862Y-81265296D01*
X147190532Y-81253565D01*
X147236888Y-81249000D01*
X147888112Y-81249000D01*
X147934468Y-81253565D01*
X147934468Y-81253565D01*
G37*
G36*
X148201000Y-74951000D02*
G01*
X146299000Y-74951000D01*
X146299000Y-73049000D01*
X148201000Y-73049000D01*
X148201000Y-74951000D01*
X148201000Y-74951000D01*
G37*
G36*
X150067395Y-73085546D02*
G01*
X150240466Y-73157234D01*
X150240467Y-73157235D01*
X150396227Y-73261310D01*
X150528690Y-73393773D01*
X150528691Y-73393775D01*
X150632766Y-73549534D01*
X150704454Y-73722605D01*
X150741000Y-73906333D01*
X150741000Y-74093667D01*
X150704454Y-74277395D01*
X150632766Y-74450466D01*
X150632765Y-74450467D01*
X150528690Y-74606227D01*
X150396227Y-74738690D01*
X150317818Y-74791081D01*
X150240466Y-74842766D01*
X150067395Y-74914454D01*
X149883667Y-74951000D01*
X149696333Y-74951000D01*
X149512605Y-74914454D01*
X149339534Y-74842766D01*
X149262182Y-74791081D01*
X149183773Y-74738690D01*
X149051310Y-74606227D01*
X148947235Y-74450467D01*
X148947234Y-74450466D01*
X148875546Y-74277395D01*
X148839000Y-74093667D01*
X148839000Y-73906333D01*
X148875546Y-73722605D01*
X148947234Y-73549534D01*
X149051309Y-73393775D01*
X149051310Y-73393773D01*
X149183773Y-73261310D01*
X149339533Y-73157235D01*
X149339534Y-73157234D01*
X149512605Y-73085546D01*
X149696333Y-73049000D01*
X149883667Y-73049000D01*
X150067395Y-73085546D01*
X150067395Y-73085546D01*
G37*
M02*
