G04 #@! TF.GenerationSoftware,KiCad,Pcbnew,(5.1.2)-2*
G04 #@! TF.CreationDate,2019-11-11T22:41:20-05:00*
G04 #@! TF.ProjectId,LightStar_RevA,4c696768-7453-4746-9172-5f526576412e,rev?*
G04 #@! TF.SameCoordinates,Original*
G04 #@! TF.FileFunction,Copper,L2,Bot*
G04 #@! TF.FilePolarity,Positive*
%FSLAX46Y46*%
G04 Gerber Fmt 4.6, Leading zero omitted, Abs format (unit mm)*
G04 Created by KiCad (PCBNEW (5.1.2)-2) date 2019-11-11 22:41:20*
%MOMM*%
%LPD*%
G04 APERTURE LIST*
%ADD10R,2.600000X3.600000*%
%ADD11R,1.800000X2.000000*%
%ADD12O,2.000000X2.000000*%
%ADD13O,1.800000X2.000000*%
%ADD14C,0.050000*%
%ADD15C,0.875000*%
%ADD16C,0.975000*%
%ADD17R,1.800000X1.800000*%
%ADD18C,1.800000*%
%ADD19C,0.500000*%
%ADD20C,0.700000*%
%ADD21C,0.800000*%
%ADD22R,1.700000X0.650000*%
%ADD23C,2.000000*%
%ADD24R,2.000000X2.000000*%
%ADD25C,0.450000*%
%ADD26C,0.900000*%
%ADD27C,0.400000*%
G04 APERTURE END LIST*
D10*
X133850000Y-121250000D03*
X163150000Y-121250000D03*
D11*
X161630000Y-99890000D03*
D12*
X161630000Y-102430000D03*
D13*
X164170000Y-99890000D03*
D12*
X164170000Y-102430000D03*
X166710000Y-99890000D03*
X166710000Y-102430000D03*
D14*
G36*
X155082691Y-103416053D02*
G01*
X155103926Y-103419203D01*
X155124750Y-103424419D01*
X155144962Y-103431651D01*
X155164368Y-103440830D01*
X155182781Y-103451866D01*
X155200024Y-103464654D01*
X155215930Y-103479070D01*
X155230346Y-103494976D01*
X155243134Y-103512219D01*
X155254170Y-103530632D01*
X155263349Y-103550038D01*
X155270581Y-103570250D01*
X155275797Y-103591074D01*
X155278947Y-103612309D01*
X155280000Y-103633750D01*
X155280000Y-104146250D01*
X155278947Y-104167691D01*
X155275797Y-104188926D01*
X155270581Y-104209750D01*
X155263349Y-104229962D01*
X155254170Y-104249368D01*
X155243134Y-104267781D01*
X155230346Y-104285024D01*
X155215930Y-104300930D01*
X155200024Y-104315346D01*
X155182781Y-104328134D01*
X155164368Y-104339170D01*
X155144962Y-104348349D01*
X155124750Y-104355581D01*
X155103926Y-104360797D01*
X155082691Y-104363947D01*
X155061250Y-104365000D01*
X154623750Y-104365000D01*
X154602309Y-104363947D01*
X154581074Y-104360797D01*
X154560250Y-104355581D01*
X154540038Y-104348349D01*
X154520632Y-104339170D01*
X154502219Y-104328134D01*
X154484976Y-104315346D01*
X154469070Y-104300930D01*
X154454654Y-104285024D01*
X154441866Y-104267781D01*
X154430830Y-104249368D01*
X154421651Y-104229962D01*
X154414419Y-104209750D01*
X154409203Y-104188926D01*
X154406053Y-104167691D01*
X154405000Y-104146250D01*
X154405000Y-103633750D01*
X154406053Y-103612309D01*
X154409203Y-103591074D01*
X154414419Y-103570250D01*
X154421651Y-103550038D01*
X154430830Y-103530632D01*
X154441866Y-103512219D01*
X154454654Y-103494976D01*
X154469070Y-103479070D01*
X154484976Y-103464654D01*
X154502219Y-103451866D01*
X154520632Y-103440830D01*
X154540038Y-103431651D01*
X154560250Y-103424419D01*
X154581074Y-103419203D01*
X154602309Y-103416053D01*
X154623750Y-103415000D01*
X155061250Y-103415000D01*
X155082691Y-103416053D01*
X155082691Y-103416053D01*
G37*
D15*
X154842500Y-103890000D03*
D14*
G36*
X156657691Y-103416053D02*
G01*
X156678926Y-103419203D01*
X156699750Y-103424419D01*
X156719962Y-103431651D01*
X156739368Y-103440830D01*
X156757781Y-103451866D01*
X156775024Y-103464654D01*
X156790930Y-103479070D01*
X156805346Y-103494976D01*
X156818134Y-103512219D01*
X156829170Y-103530632D01*
X156838349Y-103550038D01*
X156845581Y-103570250D01*
X156850797Y-103591074D01*
X156853947Y-103612309D01*
X156855000Y-103633750D01*
X156855000Y-104146250D01*
X156853947Y-104167691D01*
X156850797Y-104188926D01*
X156845581Y-104209750D01*
X156838349Y-104229962D01*
X156829170Y-104249368D01*
X156818134Y-104267781D01*
X156805346Y-104285024D01*
X156790930Y-104300930D01*
X156775024Y-104315346D01*
X156757781Y-104328134D01*
X156739368Y-104339170D01*
X156719962Y-104348349D01*
X156699750Y-104355581D01*
X156678926Y-104360797D01*
X156657691Y-104363947D01*
X156636250Y-104365000D01*
X156198750Y-104365000D01*
X156177309Y-104363947D01*
X156156074Y-104360797D01*
X156135250Y-104355581D01*
X156115038Y-104348349D01*
X156095632Y-104339170D01*
X156077219Y-104328134D01*
X156059976Y-104315346D01*
X156044070Y-104300930D01*
X156029654Y-104285024D01*
X156016866Y-104267781D01*
X156005830Y-104249368D01*
X155996651Y-104229962D01*
X155989419Y-104209750D01*
X155984203Y-104188926D01*
X155981053Y-104167691D01*
X155980000Y-104146250D01*
X155980000Y-103633750D01*
X155981053Y-103612309D01*
X155984203Y-103591074D01*
X155989419Y-103570250D01*
X155996651Y-103550038D01*
X156005830Y-103530632D01*
X156016866Y-103512219D01*
X156029654Y-103494976D01*
X156044070Y-103479070D01*
X156059976Y-103464654D01*
X156077219Y-103451866D01*
X156095632Y-103440830D01*
X156115038Y-103431651D01*
X156135250Y-103424419D01*
X156156074Y-103419203D01*
X156177309Y-103416053D01*
X156198750Y-103415000D01*
X156636250Y-103415000D01*
X156657691Y-103416053D01*
X156657691Y-103416053D01*
G37*
D15*
X156417500Y-103890000D03*
D14*
G36*
X156835142Y-107191174D02*
G01*
X156858803Y-107194684D01*
X156882007Y-107200496D01*
X156904529Y-107208554D01*
X156926153Y-107218782D01*
X156946670Y-107231079D01*
X156965883Y-107245329D01*
X156983607Y-107261393D01*
X156999671Y-107279117D01*
X157013921Y-107298330D01*
X157026218Y-107318847D01*
X157036446Y-107340471D01*
X157044504Y-107362993D01*
X157050316Y-107386197D01*
X157053826Y-107409858D01*
X157055000Y-107433750D01*
X157055000Y-108346250D01*
X157053826Y-108370142D01*
X157050316Y-108393803D01*
X157044504Y-108417007D01*
X157036446Y-108439529D01*
X157026218Y-108461153D01*
X157013921Y-108481670D01*
X156999671Y-108500883D01*
X156983607Y-108518607D01*
X156965883Y-108534671D01*
X156946670Y-108548921D01*
X156926153Y-108561218D01*
X156904529Y-108571446D01*
X156882007Y-108579504D01*
X156858803Y-108585316D01*
X156835142Y-108588826D01*
X156811250Y-108590000D01*
X156323750Y-108590000D01*
X156299858Y-108588826D01*
X156276197Y-108585316D01*
X156252993Y-108579504D01*
X156230471Y-108571446D01*
X156208847Y-108561218D01*
X156188330Y-108548921D01*
X156169117Y-108534671D01*
X156151393Y-108518607D01*
X156135329Y-108500883D01*
X156121079Y-108481670D01*
X156108782Y-108461153D01*
X156098554Y-108439529D01*
X156090496Y-108417007D01*
X156084684Y-108393803D01*
X156081174Y-108370142D01*
X156080000Y-108346250D01*
X156080000Y-107433750D01*
X156081174Y-107409858D01*
X156084684Y-107386197D01*
X156090496Y-107362993D01*
X156098554Y-107340471D01*
X156108782Y-107318847D01*
X156121079Y-107298330D01*
X156135329Y-107279117D01*
X156151393Y-107261393D01*
X156169117Y-107245329D01*
X156188330Y-107231079D01*
X156208847Y-107218782D01*
X156230471Y-107208554D01*
X156252993Y-107200496D01*
X156276197Y-107194684D01*
X156299858Y-107191174D01*
X156323750Y-107190000D01*
X156811250Y-107190000D01*
X156835142Y-107191174D01*
X156835142Y-107191174D01*
G37*
D16*
X156567500Y-107890000D03*
D14*
G36*
X154960142Y-107191174D02*
G01*
X154983803Y-107194684D01*
X155007007Y-107200496D01*
X155029529Y-107208554D01*
X155051153Y-107218782D01*
X155071670Y-107231079D01*
X155090883Y-107245329D01*
X155108607Y-107261393D01*
X155124671Y-107279117D01*
X155138921Y-107298330D01*
X155151218Y-107318847D01*
X155161446Y-107340471D01*
X155169504Y-107362993D01*
X155175316Y-107386197D01*
X155178826Y-107409858D01*
X155180000Y-107433750D01*
X155180000Y-108346250D01*
X155178826Y-108370142D01*
X155175316Y-108393803D01*
X155169504Y-108417007D01*
X155161446Y-108439529D01*
X155151218Y-108461153D01*
X155138921Y-108481670D01*
X155124671Y-108500883D01*
X155108607Y-108518607D01*
X155090883Y-108534671D01*
X155071670Y-108548921D01*
X155051153Y-108561218D01*
X155029529Y-108571446D01*
X155007007Y-108579504D01*
X154983803Y-108585316D01*
X154960142Y-108588826D01*
X154936250Y-108590000D01*
X154448750Y-108590000D01*
X154424858Y-108588826D01*
X154401197Y-108585316D01*
X154377993Y-108579504D01*
X154355471Y-108571446D01*
X154333847Y-108561218D01*
X154313330Y-108548921D01*
X154294117Y-108534671D01*
X154276393Y-108518607D01*
X154260329Y-108500883D01*
X154246079Y-108481670D01*
X154233782Y-108461153D01*
X154223554Y-108439529D01*
X154215496Y-108417007D01*
X154209684Y-108393803D01*
X154206174Y-108370142D01*
X154205000Y-108346250D01*
X154205000Y-107433750D01*
X154206174Y-107409858D01*
X154209684Y-107386197D01*
X154215496Y-107362993D01*
X154223554Y-107340471D01*
X154233782Y-107318847D01*
X154246079Y-107298330D01*
X154260329Y-107279117D01*
X154276393Y-107261393D01*
X154294117Y-107245329D01*
X154313330Y-107231079D01*
X154333847Y-107218782D01*
X154355471Y-107208554D01*
X154377993Y-107200496D01*
X154401197Y-107194684D01*
X154424858Y-107191174D01*
X154448750Y-107190000D01*
X154936250Y-107190000D01*
X154960142Y-107191174D01*
X154960142Y-107191174D01*
G37*
D16*
X154692500Y-107890000D03*
D14*
G36*
X150815192Y-102026053D02*
G01*
X150836427Y-102029203D01*
X150857251Y-102034419D01*
X150877463Y-102041651D01*
X150896869Y-102050830D01*
X150915282Y-102061866D01*
X150932525Y-102074654D01*
X150948431Y-102089070D01*
X150962847Y-102104976D01*
X150975635Y-102122219D01*
X150986671Y-102140632D01*
X150995850Y-102160038D01*
X151003082Y-102180250D01*
X151008298Y-102201074D01*
X151011448Y-102222309D01*
X151012501Y-102243750D01*
X151012501Y-102756250D01*
X151011448Y-102777691D01*
X151008298Y-102798926D01*
X151003082Y-102819750D01*
X150995850Y-102839962D01*
X150986671Y-102859368D01*
X150975635Y-102877781D01*
X150962847Y-102895024D01*
X150948431Y-102910930D01*
X150932525Y-102925346D01*
X150915282Y-102938134D01*
X150896869Y-102949170D01*
X150877463Y-102958349D01*
X150857251Y-102965581D01*
X150836427Y-102970797D01*
X150815192Y-102973947D01*
X150793751Y-102975000D01*
X150356251Y-102975000D01*
X150334810Y-102973947D01*
X150313575Y-102970797D01*
X150292751Y-102965581D01*
X150272539Y-102958349D01*
X150253133Y-102949170D01*
X150234720Y-102938134D01*
X150217477Y-102925346D01*
X150201571Y-102910930D01*
X150187155Y-102895024D01*
X150174367Y-102877781D01*
X150163331Y-102859368D01*
X150154152Y-102839962D01*
X150146920Y-102819750D01*
X150141704Y-102798926D01*
X150138554Y-102777691D01*
X150137501Y-102756250D01*
X150137501Y-102243750D01*
X150138554Y-102222309D01*
X150141704Y-102201074D01*
X150146920Y-102180250D01*
X150154152Y-102160038D01*
X150163331Y-102140632D01*
X150174367Y-102122219D01*
X150187155Y-102104976D01*
X150201571Y-102089070D01*
X150217477Y-102074654D01*
X150234720Y-102061866D01*
X150253133Y-102050830D01*
X150272539Y-102041651D01*
X150292751Y-102034419D01*
X150313575Y-102029203D01*
X150334810Y-102026053D01*
X150356251Y-102025000D01*
X150793751Y-102025000D01*
X150815192Y-102026053D01*
X150815192Y-102026053D01*
G37*
D15*
X150575001Y-102500000D03*
D14*
G36*
X149240192Y-102026053D02*
G01*
X149261427Y-102029203D01*
X149282251Y-102034419D01*
X149302463Y-102041651D01*
X149321869Y-102050830D01*
X149340282Y-102061866D01*
X149357525Y-102074654D01*
X149373431Y-102089070D01*
X149387847Y-102104976D01*
X149400635Y-102122219D01*
X149411671Y-102140632D01*
X149420850Y-102160038D01*
X149428082Y-102180250D01*
X149433298Y-102201074D01*
X149436448Y-102222309D01*
X149437501Y-102243750D01*
X149437501Y-102756250D01*
X149436448Y-102777691D01*
X149433298Y-102798926D01*
X149428082Y-102819750D01*
X149420850Y-102839962D01*
X149411671Y-102859368D01*
X149400635Y-102877781D01*
X149387847Y-102895024D01*
X149373431Y-102910930D01*
X149357525Y-102925346D01*
X149340282Y-102938134D01*
X149321869Y-102949170D01*
X149302463Y-102958349D01*
X149282251Y-102965581D01*
X149261427Y-102970797D01*
X149240192Y-102973947D01*
X149218751Y-102975000D01*
X148781251Y-102975000D01*
X148759810Y-102973947D01*
X148738575Y-102970797D01*
X148717751Y-102965581D01*
X148697539Y-102958349D01*
X148678133Y-102949170D01*
X148659720Y-102938134D01*
X148642477Y-102925346D01*
X148626571Y-102910930D01*
X148612155Y-102895024D01*
X148599367Y-102877781D01*
X148588331Y-102859368D01*
X148579152Y-102839962D01*
X148571920Y-102819750D01*
X148566704Y-102798926D01*
X148563554Y-102777691D01*
X148562501Y-102756250D01*
X148562501Y-102243750D01*
X148563554Y-102222309D01*
X148566704Y-102201074D01*
X148571920Y-102180250D01*
X148579152Y-102160038D01*
X148588331Y-102140632D01*
X148599367Y-102122219D01*
X148612155Y-102104976D01*
X148626571Y-102089070D01*
X148642477Y-102074654D01*
X148659720Y-102061866D01*
X148678133Y-102050830D01*
X148697539Y-102041651D01*
X148717751Y-102034419D01*
X148738575Y-102029203D01*
X148759810Y-102026053D01*
X148781251Y-102025000D01*
X149218751Y-102025000D01*
X149240192Y-102026053D01*
X149240192Y-102026053D01*
G37*
D15*
X149000001Y-102500000D03*
D17*
X147250000Y-109000000D03*
D18*
X149790000Y-109000000D03*
X129190000Y-137300000D03*
D17*
X126650000Y-137300000D03*
X113950000Y-98200000D03*
D18*
X116490000Y-98200000D03*
X149790000Y-74000000D03*
D17*
X147250000Y-74000000D03*
X180500000Y-98200000D03*
D18*
X183040000Y-98200000D03*
X170340000Y-137300000D03*
D17*
X167800000Y-137300000D03*
D19*
X165400000Y-130300000D03*
D14*
G36*
X166150000Y-129800000D02*
G01*
X166150000Y-130300000D01*
X166149398Y-130300000D01*
X166149398Y-130324534D01*
X166144588Y-130373365D01*
X166135016Y-130421490D01*
X166120772Y-130468445D01*
X166101995Y-130513778D01*
X166078864Y-130557051D01*
X166051604Y-130597850D01*
X166020476Y-130635779D01*
X165985779Y-130670476D01*
X165947850Y-130701604D01*
X165907051Y-130728864D01*
X165863778Y-130751995D01*
X165818445Y-130770772D01*
X165771490Y-130785016D01*
X165723365Y-130794588D01*
X165674534Y-130799398D01*
X165650000Y-130799398D01*
X165650000Y-130800000D01*
X165150000Y-130800000D01*
X165150000Y-130799398D01*
X165125466Y-130799398D01*
X165076635Y-130794588D01*
X165028510Y-130785016D01*
X164981555Y-130770772D01*
X164936222Y-130751995D01*
X164892949Y-130728864D01*
X164852150Y-130701604D01*
X164814221Y-130670476D01*
X164779524Y-130635779D01*
X164748396Y-130597850D01*
X164721136Y-130557051D01*
X164698005Y-130513778D01*
X164679228Y-130468445D01*
X164664984Y-130421490D01*
X164655412Y-130373365D01*
X164650602Y-130324534D01*
X164650602Y-130300000D01*
X164650000Y-130300000D01*
X164650000Y-129800000D01*
X166150000Y-129800000D01*
X166150000Y-129800000D01*
G37*
D19*
X165400000Y-129000000D03*
D14*
G36*
X164650602Y-129000000D02*
G01*
X164650602Y-128975466D01*
X164655412Y-128926635D01*
X164664984Y-128878510D01*
X164679228Y-128831555D01*
X164698005Y-128786222D01*
X164721136Y-128742949D01*
X164748396Y-128702150D01*
X164779524Y-128664221D01*
X164814221Y-128629524D01*
X164852150Y-128598396D01*
X164892949Y-128571136D01*
X164936222Y-128548005D01*
X164981555Y-128529228D01*
X165028510Y-128514984D01*
X165076635Y-128505412D01*
X165125466Y-128500602D01*
X165150000Y-128500602D01*
X165150000Y-128500000D01*
X165650000Y-128500000D01*
X165650000Y-128500602D01*
X165674534Y-128500602D01*
X165723365Y-128505412D01*
X165771490Y-128514984D01*
X165818445Y-128529228D01*
X165863778Y-128548005D01*
X165907051Y-128571136D01*
X165947850Y-128598396D01*
X165985779Y-128629524D01*
X166020476Y-128664221D01*
X166051604Y-128702150D01*
X166078864Y-128742949D01*
X166101995Y-128786222D01*
X166120772Y-128831555D01*
X166135016Y-128878510D01*
X166144588Y-128926635D01*
X166149398Y-128975466D01*
X166149398Y-129000000D01*
X166150000Y-129000000D01*
X166150000Y-129500000D01*
X164650000Y-129500000D01*
X164650000Y-129000000D01*
X164650602Y-129000000D01*
X164650602Y-129000000D01*
G37*
G36*
X149705142Y-81301174D02*
G01*
X149728803Y-81304684D01*
X149752007Y-81310496D01*
X149774529Y-81318554D01*
X149796153Y-81328782D01*
X149816670Y-81341079D01*
X149835883Y-81355329D01*
X149853607Y-81371393D01*
X149869671Y-81389117D01*
X149883921Y-81408330D01*
X149896218Y-81428847D01*
X149906446Y-81450471D01*
X149914504Y-81472993D01*
X149920316Y-81496197D01*
X149923826Y-81519858D01*
X149925000Y-81543750D01*
X149925000Y-82456250D01*
X149923826Y-82480142D01*
X149920316Y-82503803D01*
X149914504Y-82527007D01*
X149906446Y-82549529D01*
X149896218Y-82571153D01*
X149883921Y-82591670D01*
X149869671Y-82610883D01*
X149853607Y-82628607D01*
X149835883Y-82644671D01*
X149816670Y-82658921D01*
X149796153Y-82671218D01*
X149774529Y-82681446D01*
X149752007Y-82689504D01*
X149728803Y-82695316D01*
X149705142Y-82698826D01*
X149681250Y-82700000D01*
X149193750Y-82700000D01*
X149169858Y-82698826D01*
X149146197Y-82695316D01*
X149122993Y-82689504D01*
X149100471Y-82681446D01*
X149078847Y-82671218D01*
X149058330Y-82658921D01*
X149039117Y-82644671D01*
X149021393Y-82628607D01*
X149005329Y-82610883D01*
X148991079Y-82591670D01*
X148978782Y-82571153D01*
X148968554Y-82549529D01*
X148960496Y-82527007D01*
X148954684Y-82503803D01*
X148951174Y-82480142D01*
X148950000Y-82456250D01*
X148950000Y-81543750D01*
X148951174Y-81519858D01*
X148954684Y-81496197D01*
X148960496Y-81472993D01*
X148968554Y-81450471D01*
X148978782Y-81428847D01*
X148991079Y-81408330D01*
X149005329Y-81389117D01*
X149021393Y-81371393D01*
X149039117Y-81355329D01*
X149058330Y-81341079D01*
X149078847Y-81328782D01*
X149100471Y-81318554D01*
X149122993Y-81310496D01*
X149146197Y-81304684D01*
X149169858Y-81301174D01*
X149193750Y-81300000D01*
X149681250Y-81300000D01*
X149705142Y-81301174D01*
X149705142Y-81301174D01*
G37*
D16*
X149437500Y-82000000D03*
D14*
G36*
X147830142Y-81301174D02*
G01*
X147853803Y-81304684D01*
X147877007Y-81310496D01*
X147899529Y-81318554D01*
X147921153Y-81328782D01*
X147941670Y-81341079D01*
X147960883Y-81355329D01*
X147978607Y-81371393D01*
X147994671Y-81389117D01*
X148008921Y-81408330D01*
X148021218Y-81428847D01*
X148031446Y-81450471D01*
X148039504Y-81472993D01*
X148045316Y-81496197D01*
X148048826Y-81519858D01*
X148050000Y-81543750D01*
X148050000Y-82456250D01*
X148048826Y-82480142D01*
X148045316Y-82503803D01*
X148039504Y-82527007D01*
X148031446Y-82549529D01*
X148021218Y-82571153D01*
X148008921Y-82591670D01*
X147994671Y-82610883D01*
X147978607Y-82628607D01*
X147960883Y-82644671D01*
X147941670Y-82658921D01*
X147921153Y-82671218D01*
X147899529Y-82681446D01*
X147877007Y-82689504D01*
X147853803Y-82695316D01*
X147830142Y-82698826D01*
X147806250Y-82700000D01*
X147318750Y-82700000D01*
X147294858Y-82698826D01*
X147271197Y-82695316D01*
X147247993Y-82689504D01*
X147225471Y-82681446D01*
X147203847Y-82671218D01*
X147183330Y-82658921D01*
X147164117Y-82644671D01*
X147146393Y-82628607D01*
X147130329Y-82610883D01*
X147116079Y-82591670D01*
X147103782Y-82571153D01*
X147093554Y-82549529D01*
X147085496Y-82527007D01*
X147079684Y-82503803D01*
X147076174Y-82480142D01*
X147075000Y-82456250D01*
X147075000Y-81543750D01*
X147076174Y-81519858D01*
X147079684Y-81496197D01*
X147085496Y-81472993D01*
X147093554Y-81450471D01*
X147103782Y-81428847D01*
X147116079Y-81408330D01*
X147130329Y-81389117D01*
X147146393Y-81371393D01*
X147164117Y-81355329D01*
X147183330Y-81341079D01*
X147203847Y-81328782D01*
X147225471Y-81318554D01*
X147247993Y-81310496D01*
X147271197Y-81304684D01*
X147294858Y-81301174D01*
X147318750Y-81300000D01*
X147806250Y-81300000D01*
X147830142Y-81301174D01*
X147830142Y-81301174D01*
G37*
D16*
X147562500Y-82000000D03*
D14*
G36*
X154960142Y-99191174D02*
G01*
X154983803Y-99194684D01*
X155007007Y-99200496D01*
X155029529Y-99208554D01*
X155051153Y-99218782D01*
X155071670Y-99231079D01*
X155090883Y-99245329D01*
X155108607Y-99261393D01*
X155124671Y-99279117D01*
X155138921Y-99298330D01*
X155151218Y-99318847D01*
X155161446Y-99340471D01*
X155169504Y-99362993D01*
X155175316Y-99386197D01*
X155178826Y-99409858D01*
X155180000Y-99433750D01*
X155180000Y-100346250D01*
X155178826Y-100370142D01*
X155175316Y-100393803D01*
X155169504Y-100417007D01*
X155161446Y-100439529D01*
X155151218Y-100461153D01*
X155138921Y-100481670D01*
X155124671Y-100500883D01*
X155108607Y-100518607D01*
X155090883Y-100534671D01*
X155071670Y-100548921D01*
X155051153Y-100561218D01*
X155029529Y-100571446D01*
X155007007Y-100579504D01*
X154983803Y-100585316D01*
X154960142Y-100588826D01*
X154936250Y-100590000D01*
X154448750Y-100590000D01*
X154424858Y-100588826D01*
X154401197Y-100585316D01*
X154377993Y-100579504D01*
X154355471Y-100571446D01*
X154333847Y-100561218D01*
X154313330Y-100548921D01*
X154294117Y-100534671D01*
X154276393Y-100518607D01*
X154260329Y-100500883D01*
X154246079Y-100481670D01*
X154233782Y-100461153D01*
X154223554Y-100439529D01*
X154215496Y-100417007D01*
X154209684Y-100393803D01*
X154206174Y-100370142D01*
X154205000Y-100346250D01*
X154205000Y-99433750D01*
X154206174Y-99409858D01*
X154209684Y-99386197D01*
X154215496Y-99362993D01*
X154223554Y-99340471D01*
X154233782Y-99318847D01*
X154246079Y-99298330D01*
X154260329Y-99279117D01*
X154276393Y-99261393D01*
X154294117Y-99245329D01*
X154313330Y-99231079D01*
X154333847Y-99218782D01*
X154355471Y-99208554D01*
X154377993Y-99200496D01*
X154401197Y-99194684D01*
X154424858Y-99191174D01*
X154448750Y-99190000D01*
X154936250Y-99190000D01*
X154960142Y-99191174D01*
X154960142Y-99191174D01*
G37*
D16*
X154692500Y-99890000D03*
D14*
G36*
X156835142Y-99191174D02*
G01*
X156858803Y-99194684D01*
X156882007Y-99200496D01*
X156904529Y-99208554D01*
X156926153Y-99218782D01*
X156946670Y-99231079D01*
X156965883Y-99245329D01*
X156983607Y-99261393D01*
X156999671Y-99279117D01*
X157013921Y-99298330D01*
X157026218Y-99318847D01*
X157036446Y-99340471D01*
X157044504Y-99362993D01*
X157050316Y-99386197D01*
X157053826Y-99409858D01*
X157055000Y-99433750D01*
X157055000Y-100346250D01*
X157053826Y-100370142D01*
X157050316Y-100393803D01*
X157044504Y-100417007D01*
X157036446Y-100439529D01*
X157026218Y-100461153D01*
X157013921Y-100481670D01*
X156999671Y-100500883D01*
X156983607Y-100518607D01*
X156965883Y-100534671D01*
X156946670Y-100548921D01*
X156926153Y-100561218D01*
X156904529Y-100571446D01*
X156882007Y-100579504D01*
X156858803Y-100585316D01*
X156835142Y-100588826D01*
X156811250Y-100590000D01*
X156323750Y-100590000D01*
X156299858Y-100588826D01*
X156276197Y-100585316D01*
X156252993Y-100579504D01*
X156230471Y-100571446D01*
X156208847Y-100561218D01*
X156188330Y-100548921D01*
X156169117Y-100534671D01*
X156151393Y-100518607D01*
X156135329Y-100500883D01*
X156121079Y-100481670D01*
X156108782Y-100461153D01*
X156098554Y-100439529D01*
X156090496Y-100417007D01*
X156084684Y-100393803D01*
X156081174Y-100370142D01*
X156080000Y-100346250D01*
X156080000Y-99433750D01*
X156081174Y-99409858D01*
X156084684Y-99386197D01*
X156090496Y-99362993D01*
X156098554Y-99340471D01*
X156108782Y-99318847D01*
X156121079Y-99298330D01*
X156135329Y-99279117D01*
X156151393Y-99261393D01*
X156169117Y-99245329D01*
X156188330Y-99231079D01*
X156208847Y-99218782D01*
X156230471Y-99208554D01*
X156252993Y-99200496D01*
X156276197Y-99194684D01*
X156299858Y-99191174D01*
X156323750Y-99190000D01*
X156811250Y-99190000D01*
X156835142Y-99191174D01*
X156835142Y-99191174D01*
G37*
D16*
X156567500Y-99890000D03*
D14*
G36*
X149835142Y-94191174D02*
G01*
X149858803Y-94194684D01*
X149882007Y-94200496D01*
X149904529Y-94208554D01*
X149926153Y-94218782D01*
X149946670Y-94231079D01*
X149965883Y-94245329D01*
X149983607Y-94261393D01*
X149999671Y-94279117D01*
X150013921Y-94298330D01*
X150026218Y-94318847D01*
X150036446Y-94340471D01*
X150044504Y-94362993D01*
X150050316Y-94386197D01*
X150053826Y-94409858D01*
X150055000Y-94433750D01*
X150055000Y-95346250D01*
X150053826Y-95370142D01*
X150050316Y-95393803D01*
X150044504Y-95417007D01*
X150036446Y-95439529D01*
X150026218Y-95461153D01*
X150013921Y-95481670D01*
X149999671Y-95500883D01*
X149983607Y-95518607D01*
X149965883Y-95534671D01*
X149946670Y-95548921D01*
X149926153Y-95561218D01*
X149904529Y-95571446D01*
X149882007Y-95579504D01*
X149858803Y-95585316D01*
X149835142Y-95588826D01*
X149811250Y-95590000D01*
X149323750Y-95590000D01*
X149299858Y-95588826D01*
X149276197Y-95585316D01*
X149252993Y-95579504D01*
X149230471Y-95571446D01*
X149208847Y-95561218D01*
X149188330Y-95548921D01*
X149169117Y-95534671D01*
X149151393Y-95518607D01*
X149135329Y-95500883D01*
X149121079Y-95481670D01*
X149108782Y-95461153D01*
X149098554Y-95439529D01*
X149090496Y-95417007D01*
X149084684Y-95393803D01*
X149081174Y-95370142D01*
X149080000Y-95346250D01*
X149080000Y-94433750D01*
X149081174Y-94409858D01*
X149084684Y-94386197D01*
X149090496Y-94362993D01*
X149098554Y-94340471D01*
X149108782Y-94318847D01*
X149121079Y-94298330D01*
X149135329Y-94279117D01*
X149151393Y-94261393D01*
X149169117Y-94245329D01*
X149188330Y-94231079D01*
X149208847Y-94218782D01*
X149230471Y-94208554D01*
X149252993Y-94200496D01*
X149276197Y-94194684D01*
X149299858Y-94191174D01*
X149323750Y-94190000D01*
X149811250Y-94190000D01*
X149835142Y-94191174D01*
X149835142Y-94191174D01*
G37*
D16*
X149567500Y-94890000D03*
D14*
G36*
X147960142Y-94191174D02*
G01*
X147983803Y-94194684D01*
X148007007Y-94200496D01*
X148029529Y-94208554D01*
X148051153Y-94218782D01*
X148071670Y-94231079D01*
X148090883Y-94245329D01*
X148108607Y-94261393D01*
X148124671Y-94279117D01*
X148138921Y-94298330D01*
X148151218Y-94318847D01*
X148161446Y-94340471D01*
X148169504Y-94362993D01*
X148175316Y-94386197D01*
X148178826Y-94409858D01*
X148180000Y-94433750D01*
X148180000Y-95346250D01*
X148178826Y-95370142D01*
X148175316Y-95393803D01*
X148169504Y-95417007D01*
X148161446Y-95439529D01*
X148151218Y-95461153D01*
X148138921Y-95481670D01*
X148124671Y-95500883D01*
X148108607Y-95518607D01*
X148090883Y-95534671D01*
X148071670Y-95548921D01*
X148051153Y-95561218D01*
X148029529Y-95571446D01*
X148007007Y-95579504D01*
X147983803Y-95585316D01*
X147960142Y-95588826D01*
X147936250Y-95590000D01*
X147448750Y-95590000D01*
X147424858Y-95588826D01*
X147401197Y-95585316D01*
X147377993Y-95579504D01*
X147355471Y-95571446D01*
X147333847Y-95561218D01*
X147313330Y-95548921D01*
X147294117Y-95534671D01*
X147276393Y-95518607D01*
X147260329Y-95500883D01*
X147246079Y-95481670D01*
X147233782Y-95461153D01*
X147223554Y-95439529D01*
X147215496Y-95417007D01*
X147209684Y-95393803D01*
X147206174Y-95370142D01*
X147205000Y-95346250D01*
X147205000Y-94433750D01*
X147206174Y-94409858D01*
X147209684Y-94386197D01*
X147215496Y-94362993D01*
X147223554Y-94340471D01*
X147233782Y-94318847D01*
X147246079Y-94298330D01*
X147260329Y-94279117D01*
X147276393Y-94261393D01*
X147294117Y-94245329D01*
X147313330Y-94231079D01*
X147333847Y-94218782D01*
X147355471Y-94208554D01*
X147377993Y-94200496D01*
X147401197Y-94194684D01*
X147424858Y-94191174D01*
X147448750Y-94190000D01*
X147936250Y-94190000D01*
X147960142Y-94191174D01*
X147960142Y-94191174D01*
G37*
D16*
X147692500Y-94890000D03*
D20*
X163410821Y-135965623D03*
D14*
G36*
X164134816Y-135564585D02*
G01*
X163253138Y-136778111D01*
X162686826Y-136366661D01*
X163568504Y-135153135D01*
X164134816Y-135564585D01*
X164134816Y-135564585D01*
G37*
D20*
X160983770Y-134202267D03*
D14*
G36*
X161707765Y-133801229D02*
G01*
X160826087Y-135014755D01*
X160259775Y-134603305D01*
X161141453Y-133389779D01*
X161707765Y-133801229D01*
X161707765Y-133801229D01*
G37*
D20*
X159770245Y-133320589D03*
D14*
G36*
X160494240Y-132919551D02*
G01*
X159612562Y-134133077D01*
X159046250Y-133721627D01*
X159927928Y-132508101D01*
X160494240Y-132919551D01*
X160494240Y-132919551D01*
G37*
D21*
X162862379Y-139102310D03*
D14*
G36*
X163502002Y-139072596D02*
G01*
X163031773Y-139719809D01*
X162222756Y-139132024D01*
X162692985Y-138484811D01*
X163502002Y-139072596D01*
X163502002Y-139072596D01*
G37*
D21*
X156956555Y-134811478D03*
D14*
G36*
X157596178Y-134781764D02*
G01*
X157125949Y-135428977D01*
X156316932Y-134841192D01*
X156787161Y-134193979D01*
X157596178Y-134781764D01*
X157596178Y-134781764D01*
G37*
D21*
X158255560Y-133023551D03*
D14*
G36*
X158895183Y-132993837D02*
G01*
X158424954Y-133641050D01*
X157615937Y-133053265D01*
X158086166Y-132406052D01*
X158895183Y-132993837D01*
X158895183Y-132993837D01*
G37*
D21*
X164161385Y-137314383D03*
D14*
G36*
X164801008Y-137284669D02*
G01*
X164330779Y-137931882D01*
X163521762Y-137344097D01*
X163991991Y-136696884D01*
X164801008Y-137284669D01*
X164801008Y-137284669D01*
G37*
D22*
X152150000Y-86895000D03*
X152150000Y-88165000D03*
X152150000Y-89435000D03*
X152150000Y-90705000D03*
X144850000Y-90705000D03*
X144850000Y-89435000D03*
X144850000Y-88165000D03*
X144850000Y-86895000D03*
D23*
X151040000Y-98850000D03*
D24*
X148500000Y-98850000D03*
D23*
X145960000Y-98850000D03*
D21*
X148630000Y-92890000D03*
X149230000Y-88990000D03*
X150130000Y-89890000D03*
X180530000Y-96290000D03*
X117830000Y-96370000D03*
X183490000Y-100530000D03*
X148510000Y-71050000D03*
X147130000Y-91390000D03*
X147630000Y-88890000D03*
D25*
X147562500Y-82000000D02*
X145750000Y-82000000D01*
X144850000Y-82900000D02*
X144850000Y-86895000D01*
X145750000Y-82000000D02*
X144850000Y-82900000D01*
D26*
X160983770Y-134202267D02*
X162300000Y-132500000D01*
X162300000Y-132500000D02*
X164500000Y-132500000D01*
X164500000Y-132500000D02*
X165430000Y-132500000D01*
X165430000Y-132500000D02*
X165630000Y-132500000D01*
X165630000Y-132500000D02*
X168380000Y-132500000D01*
X165490000Y-116980000D02*
X161330000Y-105990000D01*
X168380000Y-132500000D02*
X169840000Y-130390000D01*
X169840000Y-130390000D02*
X165490000Y-116980000D01*
D25*
X158630000Y-107190000D02*
X158630000Y-105990000D01*
X158630000Y-105990000D02*
X158630000Y-103890000D01*
X158630000Y-103890000D02*
X158630000Y-102890000D01*
X158630000Y-98890000D02*
X158630000Y-99890000D01*
X149567500Y-94890000D02*
X151130000Y-94890000D01*
X158630000Y-102890000D02*
X158630000Y-99890000D01*
X161630000Y-102430000D02*
X158630000Y-102430000D01*
X158630000Y-102430000D02*
X158630000Y-102890000D01*
X156567500Y-99890000D02*
X158630000Y-99890000D01*
X156417500Y-103890000D02*
X158630000Y-103890000D01*
X156567500Y-107890000D02*
X157930000Y-107890000D01*
X150630000Y-94890000D02*
X151130000Y-94890000D01*
X148630000Y-92890000D02*
X150630000Y-94890000D01*
X144850000Y-86895000D02*
X147135000Y-86895000D01*
X147135000Y-86895000D02*
X149230000Y-88990000D01*
X149567500Y-94890000D02*
X154630000Y-94890000D01*
X154630000Y-94890000D02*
X158630000Y-98890000D01*
D26*
X161330000Y-105990000D02*
X158630000Y-105990000D01*
X161330000Y-105990000D02*
X161330000Y-103690000D01*
X161330000Y-103690000D02*
X161630000Y-102430000D01*
D25*
X157930000Y-107890000D02*
X158630000Y-107190000D01*
D26*
X165430000Y-132500000D02*
X165430000Y-130330000D01*
X165430000Y-130330000D02*
X165400000Y-130300000D01*
D25*
X147750000Y-99600000D02*
X148500000Y-98850000D01*
X147750000Y-102000000D02*
X147750000Y-99600000D01*
X152150000Y-90705000D02*
X150945000Y-90705000D01*
X150945000Y-90705000D02*
X150130000Y-89890000D01*
X133850000Y-121250000D02*
X147270000Y-121250000D01*
X147750000Y-103510000D02*
X147750000Y-102490000D01*
X147750000Y-102490000D02*
X147750000Y-102000000D01*
X148630000Y-104390000D02*
X147750000Y-103510000D01*
X151130000Y-104390000D02*
X148630000Y-104390000D01*
X152630000Y-105890000D02*
X151930000Y-105190000D01*
X151930000Y-105190000D02*
X151130000Y-104390000D01*
X152630000Y-115890000D02*
X152630000Y-107890000D01*
X152630000Y-107890000D02*
X152630000Y-105890000D01*
X147270000Y-121250000D02*
X152630000Y-115890000D01*
X149000001Y-102500000D02*
X147750000Y-102500000D01*
X147830000Y-102490000D02*
X147750000Y-102490000D01*
X147760000Y-102490000D02*
X147830000Y-102490000D01*
X147750000Y-102500000D02*
X147760000Y-102490000D01*
X154692500Y-107890000D02*
X152630000Y-107890000D01*
X154842500Y-103890000D02*
X153230000Y-103890000D01*
X153230000Y-103890000D02*
X151930000Y-105190000D01*
X166710000Y-102430000D02*
X171890000Y-102430000D01*
X171890000Y-102430000D02*
X178030000Y-96290000D01*
X178030000Y-96290000D02*
X180530000Y-96290000D01*
X167800000Y-137300000D02*
X171442542Y-132076929D01*
X167530000Y-113330000D02*
X168676394Y-112496831D01*
X166440000Y-114820000D02*
X167530000Y-113330000D01*
X166440000Y-116680000D02*
X166440000Y-114820000D01*
X171442542Y-132076929D02*
X166440000Y-116680000D01*
X168676394Y-112496831D02*
X169753800Y-111713801D01*
X169753800Y-111713801D02*
X180526861Y-103884224D01*
X143250000Y-90750000D02*
X144850000Y-90705000D01*
X179470000Y-94310000D02*
X161340000Y-94310000D01*
X137410000Y-93740000D02*
X135660000Y-94310000D01*
X138500000Y-92240000D02*
X137410000Y-93740000D01*
X161340000Y-94310000D02*
X159590000Y-93740000D01*
X159590000Y-93740000D02*
X158500000Y-92240000D01*
X158500000Y-92240000D02*
X152446478Y-73617895D01*
X183040000Y-98200000D02*
X182220000Y-95630000D01*
X182220000Y-95630000D02*
X179470000Y-94310000D01*
X113950000Y-98200000D02*
X114000000Y-95350000D01*
X114000000Y-95350000D02*
X114990000Y-94310000D01*
X114990000Y-94310000D02*
X135660000Y-94310000D01*
X117830000Y-96370000D02*
X132510000Y-96361790D01*
X141940000Y-91190000D02*
X143250000Y-90750000D01*
X140420000Y-92930000D02*
X141940000Y-91190000D01*
X138590000Y-95350000D02*
X140420000Y-92930000D01*
X135710000Y-96360000D02*
X138590000Y-95350000D01*
X132510000Y-96361790D02*
X135710000Y-96360000D01*
X143250000Y-90750000D02*
X144850000Y-90705000D01*
X183040000Y-98200000D02*
X180526861Y-103884224D01*
X144623979Y-73401152D02*
X138500000Y-92240000D01*
X152446478Y-73617895D02*
X150890000Y-72200000D01*
X144623979Y-73401151D02*
X144623979Y-73401152D01*
X146190000Y-72220000D02*
X144623979Y-73401151D01*
X150890000Y-72200000D02*
X146190000Y-72220000D01*
X132510000Y-97970000D02*
X132510000Y-96361790D01*
X141950000Y-107410000D02*
X132510000Y-97970000D01*
X148650000Y-107410000D02*
X141950000Y-107410000D01*
X164170000Y-102430000D02*
X164170000Y-106130000D01*
X149790000Y-109000000D02*
X149790000Y-108550000D01*
X149790000Y-108550000D02*
X148650000Y-107410000D01*
X164170000Y-106130000D02*
X168676394Y-112496831D01*
X149437500Y-82000000D02*
X151250000Y-82000000D01*
X152150000Y-82900000D02*
X152150000Y-86895000D01*
X151250000Y-82000000D02*
X152150000Y-82900000D01*
X152150000Y-86895000D02*
X154235000Y-86895000D01*
X166710000Y-96970000D02*
X166710000Y-99890000D01*
X165230000Y-95490000D02*
X166710000Y-96970000D01*
X159830000Y-95490000D02*
X165230000Y-95490000D01*
X156030000Y-91690000D02*
X159830000Y-95490000D01*
X156030000Y-88690000D02*
X156030000Y-91690000D01*
X154235000Y-86895000D02*
X156030000Y-88690000D01*
D26*
X165400000Y-129000000D02*
X165400000Y-125150000D01*
D25*
X163150000Y-121650000D02*
X163150000Y-121250000D01*
D26*
X165400000Y-125150000D02*
X163150000Y-121650000D01*
X163150000Y-129062425D02*
X163150000Y-121250000D01*
X159770245Y-133320589D02*
X163150000Y-129062425D01*
D25*
X151040000Y-98850000D02*
X152250000Y-100060000D01*
X152250000Y-100060000D02*
X152250000Y-101770000D01*
X150575001Y-102500000D02*
X151520000Y-102500000D01*
X151520000Y-102500000D02*
X152250000Y-101770000D01*
X154692500Y-99890000D02*
X152080000Y-99890000D01*
X152080000Y-99890000D02*
X151040000Y-98850000D01*
X147250000Y-74000000D02*
X144670000Y-76490000D01*
X131510000Y-114520000D02*
X131510000Y-116990000D01*
X126478371Y-132482870D02*
X126478371Y-132482869D01*
X129190000Y-137300000D02*
X126478371Y-132482870D01*
X131510000Y-116990000D02*
X126478371Y-132482869D01*
X117047515Y-103067534D02*
X130060000Y-112520000D01*
X130060000Y-112520000D02*
X131510000Y-114520000D01*
X135660000Y-95310000D02*
X118550000Y-95310000D01*
X140473674Y-89408574D02*
X139450000Y-92560000D01*
X139450000Y-92560000D02*
X138000000Y-94550000D01*
X138000000Y-94550000D02*
X135660000Y-95310000D01*
X116547074Y-96142963D02*
X116524317Y-96152427D01*
X144670000Y-76490000D02*
X140473674Y-89408574D01*
X144850000Y-89435000D02*
X140473674Y-89408573D01*
X140473674Y-89408573D02*
X140473674Y-89408574D01*
X116490000Y-98200000D02*
X116524317Y-96152427D01*
X116490000Y-98200000D02*
X117047515Y-103067535D01*
X117047515Y-103067535D02*
X117047515Y-103067534D01*
X116547074Y-96142963D02*
X117310000Y-95310000D01*
X117310000Y-95310000D02*
X118550000Y-95310000D01*
X116490000Y-98200000D02*
X130650000Y-98200000D01*
X141450000Y-109000000D02*
X147250000Y-109000000D01*
X130650000Y-98200000D02*
X141450000Y-109000000D01*
X161630000Y-99890000D02*
X161330000Y-99890000D01*
X144850000Y-89435000D02*
X146675000Y-89435000D01*
X161130000Y-99890000D02*
X161630000Y-99890000D01*
X154630000Y-93390000D02*
X161130000Y-99890000D01*
X150630000Y-93390000D02*
X154630000Y-93390000D01*
X146675000Y-89435000D02*
X150630000Y-93390000D01*
X159450000Y-91930000D02*
X157863654Y-87048813D01*
X194430983Y-94681387D02*
X194430983Y-94681386D01*
X194140200Y-93629724D02*
X194430983Y-94681387D01*
X184687322Y-102096430D02*
X194290000Y-95120000D01*
X194290000Y-95120000D02*
X194430983Y-94681386D01*
X194140200Y-93629724D02*
X193700000Y-93310000D01*
X193700000Y-93310000D02*
X161340000Y-93310000D01*
X161340000Y-93310000D02*
X160180000Y-92930000D01*
X160180000Y-92930000D02*
X159450000Y-91930000D01*
X183964090Y-102621864D02*
X184687322Y-102096430D01*
X168110000Y-114140000D02*
X183964090Y-102621864D01*
X167390000Y-115140000D02*
X168110000Y-114140000D01*
X167390000Y-116370000D02*
X167390000Y-115140000D01*
X157863654Y-87048813D02*
X153216975Y-72750982D01*
X153216975Y-72750982D02*
X149450000Y-61160000D01*
X148520240Y-60810244D02*
X148956366Y-60806662D01*
X149450000Y-61160000D02*
X148956366Y-60806662D01*
X129560000Y-116530000D02*
X124055659Y-133467210D01*
X148033039Y-60814246D02*
X148520240Y-60810244D01*
X102543612Y-94602349D02*
X102543612Y-94602348D01*
X102819349Y-93659104D02*
X102543612Y-94602349D01*
X124055659Y-133467209D02*
X124055659Y-133467210D01*
X126650000Y-137300000D02*
X124055659Y-133467209D01*
X148033039Y-60814246D02*
X147550000Y-61160000D01*
X147550000Y-61160000D02*
X137550000Y-91930000D01*
X137550000Y-91930000D02*
X136830000Y-92930000D01*
X136830000Y-92930000D02*
X135650000Y-93310000D01*
X135650000Y-93310000D02*
X103300000Y-93310000D01*
X103300000Y-93310000D02*
X102819349Y-93659104D01*
X102543612Y-94602348D02*
X102710000Y-95120000D01*
X102710000Y-95120000D02*
X128890000Y-114140000D01*
X128890000Y-114140000D02*
X129610000Y-115140000D01*
X129610000Y-115140000D02*
X129560000Y-116530000D01*
X172887186Y-133292710D02*
X167390000Y-116370000D01*
X170340000Y-137300000D02*
X172887186Y-133292711D01*
X172887186Y-133292711D02*
X172887186Y-133292710D01*
X183490000Y-100530000D02*
X184687322Y-102096430D01*
X148510000Y-71050000D02*
X148520240Y-60810244D01*
X149790000Y-74000000D02*
X149790000Y-76920000D01*
X150285000Y-88165000D02*
X152150000Y-88165000D01*
X148500000Y-86380000D02*
X150285000Y-88165000D01*
X148500000Y-78210000D02*
X148500000Y-86380000D01*
X149790000Y-76920000D02*
X148500000Y-78210000D01*
X145960000Y-94890000D02*
X145960000Y-98850000D01*
X147692500Y-94890000D02*
X145960000Y-94890000D01*
X145960000Y-94890000D02*
X146130000Y-94890000D01*
X146130000Y-94890000D02*
X145960000Y-94890000D01*
X164170000Y-99890000D02*
X164170000Y-98430000D01*
X164170000Y-98430000D02*
X162630000Y-96890000D01*
X162630000Y-96890000D02*
X159630000Y-96890000D01*
X159630000Y-96890000D02*
X155130000Y-92390000D01*
X155130000Y-92390000D02*
X151130000Y-92390000D01*
X151130000Y-92390000D02*
X147630000Y-88890000D01*
X146905000Y-88165000D02*
X144850000Y-88165000D01*
X147630000Y-88890000D02*
X146905000Y-88165000D01*
X145960000Y-94890000D02*
X145960000Y-94060000D01*
X147130000Y-92890000D02*
X147130000Y-91390000D01*
X145960000Y-94060000D02*
X147130000Y-92890000D01*
D27*
G36*
X146776830Y-90562134D02*
G01*
X146703690Y-90592430D01*
X146556283Y-90690924D01*
X146430924Y-90816283D01*
X146332430Y-90963690D01*
X146264586Y-91127480D01*
X146230000Y-91301358D01*
X146230000Y-91478642D01*
X146264586Y-91652520D01*
X146332430Y-91816310D01*
X146405001Y-91924920D01*
X146405000Y-92589695D01*
X145472523Y-93522173D01*
X145444869Y-93544868D01*
X145422173Y-93572523D01*
X145422170Y-93572526D01*
X145354269Y-93655264D01*
X145286947Y-93781213D01*
X145266246Y-93849458D01*
X145245492Y-93917875D01*
X145235000Y-94024393D01*
X145235000Y-94024403D01*
X145231494Y-94060000D01*
X145235000Y-94095597D01*
X145235000Y-94854393D01*
X145231493Y-94890000D01*
X145235000Y-94925606D01*
X145235001Y-97530394D01*
X145003806Y-97684874D01*
X144794874Y-97893806D01*
X144630717Y-98139483D01*
X144517644Y-98412466D01*
X144460000Y-98702263D01*
X144460000Y-98997737D01*
X144517644Y-99287534D01*
X144630717Y-99560517D01*
X144794874Y-99806194D01*
X145003806Y-100015126D01*
X145249483Y-100179283D01*
X145522466Y-100292356D01*
X145812263Y-100350000D01*
X146107737Y-100350000D01*
X146397534Y-100292356D01*
X146670517Y-100179283D01*
X146916194Y-100015126D01*
X146921487Y-100009833D01*
X146942990Y-100080721D01*
X146998704Y-100184955D01*
X147073683Y-100276317D01*
X147165045Y-100351296D01*
X147269279Y-100407010D01*
X147382379Y-100441318D01*
X147500000Y-100452903D01*
X148300000Y-100450000D01*
X148450000Y-100300000D01*
X148450000Y-98900000D01*
X148430000Y-98900000D01*
X148430000Y-98800000D01*
X148450000Y-98800000D01*
X148450000Y-97400000D01*
X148300000Y-97250000D01*
X147500000Y-97247097D01*
X147382379Y-97258682D01*
X147269279Y-97292990D01*
X147165045Y-97348704D01*
X147073683Y-97423683D01*
X146998704Y-97515045D01*
X146942990Y-97619279D01*
X146921487Y-97690167D01*
X146916194Y-97684874D01*
X146685000Y-97530394D01*
X146685000Y-95615000D01*
X146754285Y-95615000D01*
X146759380Y-95631797D01*
X146828333Y-95760799D01*
X146921129Y-95873871D01*
X147034201Y-95966667D01*
X147163203Y-96035620D01*
X147303180Y-96078082D01*
X147448750Y-96092419D01*
X147936250Y-96092419D01*
X148081820Y-96078082D01*
X148221797Y-96035620D01*
X148350799Y-95966667D01*
X148463871Y-95873871D01*
X148556667Y-95760799D01*
X148625620Y-95631797D01*
X148630000Y-95617358D01*
X148634380Y-95631797D01*
X148703333Y-95760799D01*
X148796129Y-95873871D01*
X148909201Y-95966667D01*
X149038203Y-96035620D01*
X149178180Y-96078082D01*
X149323750Y-96092419D01*
X149811250Y-96092419D01*
X149956820Y-96078082D01*
X150096797Y-96035620D01*
X150225799Y-95966667D01*
X150338871Y-95873871D01*
X150431667Y-95760799D01*
X150500620Y-95631797D01*
X150505715Y-95615000D01*
X150594402Y-95615000D01*
X150629999Y-95618506D01*
X150665596Y-95615000D01*
X154329696Y-95615000D01*
X157879695Y-99165000D01*
X157505715Y-99165000D01*
X157500620Y-99148203D01*
X157431667Y-99019201D01*
X157338871Y-98906129D01*
X157225799Y-98813333D01*
X157096797Y-98744380D01*
X156956820Y-98701918D01*
X156811250Y-98687581D01*
X156323750Y-98687581D01*
X156178180Y-98701918D01*
X156038203Y-98744380D01*
X155909201Y-98813333D01*
X155796129Y-98906129D01*
X155703333Y-99019201D01*
X155634380Y-99148203D01*
X155630000Y-99162642D01*
X155625620Y-99148203D01*
X155556667Y-99019201D01*
X155463871Y-98906129D01*
X155350799Y-98813333D01*
X155221797Y-98744380D01*
X155081820Y-98701918D01*
X154936250Y-98687581D01*
X154448750Y-98687581D01*
X154303180Y-98701918D01*
X154163203Y-98744380D01*
X154034201Y-98813333D01*
X153921129Y-98906129D01*
X153828333Y-99019201D01*
X153759380Y-99148203D01*
X153754285Y-99165000D01*
X152506729Y-99165000D01*
X152540000Y-98997737D01*
X152540000Y-98702263D01*
X152482356Y-98412466D01*
X152369283Y-98139483D01*
X152205126Y-97893806D01*
X151996194Y-97684874D01*
X151750517Y-97520717D01*
X151477534Y-97407644D01*
X151187737Y-97350000D01*
X150892263Y-97350000D01*
X150602466Y-97407644D01*
X150329483Y-97520717D01*
X150083806Y-97684874D01*
X150078513Y-97690167D01*
X150057010Y-97619279D01*
X150001296Y-97515045D01*
X149926317Y-97423683D01*
X149834955Y-97348704D01*
X149730721Y-97292990D01*
X149617621Y-97258682D01*
X149500000Y-97247097D01*
X148700000Y-97250000D01*
X148550000Y-97400000D01*
X148550000Y-98800000D01*
X148570000Y-98800000D01*
X148570000Y-98900000D01*
X148550000Y-98900000D01*
X148550000Y-100300000D01*
X148700000Y-100450000D01*
X149500000Y-100452903D01*
X149617621Y-100441318D01*
X149730721Y-100407010D01*
X149834955Y-100351296D01*
X149926317Y-100276317D01*
X150001296Y-100184955D01*
X150057010Y-100080721D01*
X150078513Y-100009833D01*
X150083806Y-100015126D01*
X150329483Y-100179283D01*
X150602466Y-100292356D01*
X150892263Y-100350000D01*
X151187737Y-100350000D01*
X151460450Y-100295754D01*
X151525000Y-100360305D01*
X151525001Y-101469694D01*
X151280183Y-101714512D01*
X151194411Y-101644120D01*
X151069730Y-101577477D01*
X150934444Y-101536438D01*
X150793751Y-101522581D01*
X150356251Y-101522581D01*
X150215558Y-101536438D01*
X150080272Y-101577477D01*
X149955591Y-101644120D01*
X149923035Y-101670839D01*
X149863818Y-101598683D01*
X149772456Y-101523704D01*
X149668222Y-101467990D01*
X149555122Y-101433682D01*
X149437501Y-101422097D01*
X149200001Y-101425000D01*
X149050001Y-101575000D01*
X149050001Y-102450000D01*
X149070001Y-102450000D01*
X149070001Y-102550000D01*
X149050001Y-102550000D01*
X149050001Y-103425000D01*
X149200001Y-103575000D01*
X149437501Y-103577903D01*
X149555122Y-103566318D01*
X149668222Y-103532010D01*
X149772456Y-103476296D01*
X149863818Y-103401317D01*
X149923035Y-103329161D01*
X149955591Y-103355880D01*
X150080272Y-103422523D01*
X150215558Y-103463562D01*
X150356251Y-103477419D01*
X150793751Y-103477419D01*
X150934444Y-103463562D01*
X151069730Y-103422523D01*
X151083804Y-103415000D01*
X153802097Y-103415000D01*
X153805000Y-103690000D01*
X153955000Y-103840000D01*
X154792500Y-103840000D01*
X154792500Y-102965000D01*
X154642500Y-102815000D01*
X154405000Y-102812097D01*
X154287379Y-102823682D01*
X154174279Y-102857990D01*
X154070045Y-102913704D01*
X153978683Y-102988683D01*
X153903704Y-103080045D01*
X153847990Y-103184279D01*
X153813682Y-103297379D01*
X153802097Y-103415000D01*
X151083804Y-103415000D01*
X151194411Y-103355880D01*
X151303694Y-103266193D01*
X151337501Y-103225000D01*
X151484403Y-103225000D01*
X151520000Y-103228506D01*
X151555597Y-103225000D01*
X151555607Y-103225000D01*
X151662125Y-103214509D01*
X151798788Y-103173053D01*
X151924737Y-103105731D01*
X152035132Y-103015132D01*
X152057832Y-102987472D01*
X152737477Y-102307828D01*
X152765132Y-102285132D01*
X152799094Y-102243750D01*
X152855731Y-102174737D01*
X152923053Y-102048788D01*
X152964509Y-101912125D01*
X152975000Y-101805607D01*
X152975000Y-101805597D01*
X152978506Y-101770000D01*
X152975000Y-101734403D01*
X152975000Y-100615000D01*
X153754285Y-100615000D01*
X153759380Y-100631797D01*
X153828333Y-100760799D01*
X153921129Y-100873871D01*
X154034201Y-100966667D01*
X154163203Y-101035620D01*
X154303180Y-101078082D01*
X154448750Y-101092419D01*
X154936250Y-101092419D01*
X155081820Y-101078082D01*
X155221797Y-101035620D01*
X155350799Y-100966667D01*
X155463871Y-100873871D01*
X155556667Y-100760799D01*
X155625620Y-100631797D01*
X155630000Y-100617358D01*
X155634380Y-100631797D01*
X155703333Y-100760799D01*
X155796129Y-100873871D01*
X155909201Y-100966667D01*
X156038203Y-101035620D01*
X156178180Y-101078082D01*
X156323750Y-101092419D01*
X156811250Y-101092419D01*
X156956820Y-101078082D01*
X157096797Y-101035620D01*
X157225799Y-100966667D01*
X157338871Y-100873871D01*
X157431667Y-100760799D01*
X157500620Y-100631797D01*
X157505715Y-100615000D01*
X157905001Y-100615000D01*
X157905000Y-102394391D01*
X157901493Y-102430000D01*
X157905000Y-102465607D01*
X157905000Y-102925607D01*
X157905001Y-102925616D01*
X157905001Y-103165000D01*
X157180000Y-103165000D01*
X157146193Y-103123807D01*
X157036910Y-103034120D01*
X156912229Y-102967477D01*
X156776943Y-102926438D01*
X156636250Y-102912581D01*
X156198750Y-102912581D01*
X156058057Y-102926438D01*
X155922771Y-102967477D01*
X155798090Y-103034120D01*
X155765534Y-103060839D01*
X155706317Y-102988683D01*
X155614955Y-102913704D01*
X155510721Y-102857990D01*
X155397621Y-102823682D01*
X155280000Y-102812097D01*
X155042500Y-102815000D01*
X154892500Y-102965000D01*
X154892500Y-103840000D01*
X154912500Y-103840000D01*
X154912500Y-103940000D01*
X154892500Y-103940000D01*
X154892500Y-104815000D01*
X155042500Y-104965000D01*
X155280000Y-104967903D01*
X155397621Y-104956318D01*
X155510721Y-104922010D01*
X155614955Y-104866296D01*
X155706317Y-104791317D01*
X155765534Y-104719161D01*
X155798090Y-104745880D01*
X155922771Y-104812523D01*
X156058057Y-104853562D01*
X156198750Y-104867419D01*
X156636250Y-104867419D01*
X156776943Y-104853562D01*
X156912229Y-104812523D01*
X157036910Y-104745880D01*
X157146193Y-104656193D01*
X157180000Y-104615000D01*
X157905001Y-104615000D01*
X157905000Y-105375922D01*
X157836282Y-105459655D01*
X157748068Y-105624692D01*
X157693746Y-105803768D01*
X157675404Y-105990000D01*
X157693746Y-106176232D01*
X157748068Y-106355308D01*
X157836282Y-106520345D01*
X157905000Y-106604078D01*
X157905000Y-106889695D01*
X157629696Y-107165000D01*
X157505715Y-107165000D01*
X157500620Y-107148203D01*
X157431667Y-107019201D01*
X157338871Y-106906129D01*
X157225799Y-106813333D01*
X157096797Y-106744380D01*
X156956820Y-106701918D01*
X156811250Y-106687581D01*
X156323750Y-106687581D01*
X156178180Y-106701918D01*
X156038203Y-106744380D01*
X155909201Y-106813333D01*
X155796129Y-106906129D01*
X155741193Y-106973069D01*
X155737010Y-106959279D01*
X155681296Y-106855045D01*
X155606317Y-106763683D01*
X155514955Y-106688704D01*
X155410721Y-106632990D01*
X155297621Y-106598682D01*
X155180000Y-106587097D01*
X154892500Y-106590000D01*
X154742500Y-106740000D01*
X154742500Y-107840000D01*
X154762500Y-107840000D01*
X154762500Y-107940000D01*
X154742500Y-107940000D01*
X154742500Y-109040000D01*
X154892500Y-109190000D01*
X155180000Y-109192903D01*
X155297621Y-109181318D01*
X155410721Y-109147010D01*
X155514955Y-109091296D01*
X155606317Y-109016317D01*
X155681296Y-108924955D01*
X155737010Y-108820721D01*
X155741193Y-108806931D01*
X155796129Y-108873871D01*
X155909201Y-108966667D01*
X156038203Y-109035620D01*
X156178180Y-109078082D01*
X156323750Y-109092419D01*
X156811250Y-109092419D01*
X156956820Y-109078082D01*
X157096797Y-109035620D01*
X157225799Y-108966667D01*
X157338871Y-108873871D01*
X157431667Y-108760799D01*
X157500620Y-108631797D01*
X157505715Y-108615000D01*
X157894403Y-108615000D01*
X157930000Y-108618506D01*
X157965597Y-108615000D01*
X157965607Y-108615000D01*
X158072125Y-108604509D01*
X158208788Y-108563053D01*
X158334737Y-108495731D01*
X158445132Y-108405132D01*
X158467832Y-108377472D01*
X159117482Y-107727823D01*
X159145131Y-107705132D01*
X159167823Y-107677482D01*
X159167830Y-107677475D01*
X159235731Y-107594737D01*
X159258508Y-107552124D01*
X159303053Y-107468788D01*
X159344509Y-107332125D01*
X159355000Y-107225607D01*
X159355000Y-107225598D01*
X159358506Y-107190001D01*
X159355000Y-107154404D01*
X159355000Y-106940000D01*
X160673819Y-106940000D01*
X164593423Y-117294917D01*
X168791311Y-130235996D01*
X167882096Y-131550000D01*
X166380000Y-131550000D01*
X166380000Y-130984230D01*
X166391769Y-130972461D01*
X166454251Y-130896326D01*
X166508707Y-130814827D01*
X166555137Y-130727963D01*
X166592646Y-130637407D01*
X166621235Y-130543159D01*
X166640357Y-130447026D01*
X166650011Y-130349009D01*
X166650011Y-130324448D01*
X166652419Y-130300000D01*
X166652419Y-129800000D01*
X166642765Y-129701983D01*
X166626996Y-129650000D01*
X166642765Y-129598017D01*
X166652419Y-129500000D01*
X166652419Y-129000000D01*
X166650011Y-128975552D01*
X166650011Y-128950991D01*
X166640357Y-128852974D01*
X166621235Y-128756841D01*
X166592646Y-128662593D01*
X166555137Y-128572037D01*
X166508707Y-128485173D01*
X166454251Y-128403674D01*
X166391769Y-128327539D01*
X166350000Y-128285770D01*
X166350000Y-125205098D01*
X166354446Y-125166905D01*
X166350000Y-125111769D01*
X166350000Y-125103335D01*
X166346248Y-125065243D01*
X166339405Y-124980377D01*
X166337086Y-124972214D01*
X166336254Y-124963768D01*
X166311528Y-124882256D01*
X166288262Y-124800367D01*
X166284397Y-124792817D01*
X166281932Y-124784692D01*
X166241774Y-124709561D01*
X166224353Y-124675533D01*
X166219798Y-124668448D01*
X166193718Y-124619655D01*
X166169320Y-124589926D01*
X164952419Y-122696969D01*
X164952419Y-119450000D01*
X164942765Y-119351983D01*
X164914175Y-119257733D01*
X164867746Y-119170871D01*
X164805264Y-119094736D01*
X164729129Y-119032254D01*
X164642267Y-118985825D01*
X164548017Y-118957235D01*
X164450000Y-118947581D01*
X161850000Y-118947581D01*
X161751983Y-118957235D01*
X161657733Y-118985825D01*
X161570871Y-119032254D01*
X161494736Y-119094736D01*
X161432254Y-119170871D01*
X161385825Y-119257733D01*
X161357235Y-119351983D01*
X161347581Y-119450000D01*
X161347581Y-123050000D01*
X161357235Y-123148017D01*
X161385825Y-123242267D01*
X161432254Y-123329129D01*
X161494736Y-123405264D01*
X161570871Y-123467746D01*
X161657733Y-123514175D01*
X161751983Y-123542765D01*
X161850000Y-123552419D01*
X162200001Y-123552419D01*
X162200000Y-128731232D01*
X159158050Y-132563797D01*
X158381480Y-131999586D01*
X158296509Y-131949784D01*
X158203454Y-131917515D01*
X158105892Y-131904020D01*
X158007571Y-131909819D01*
X157912271Y-131934687D01*
X157823653Y-131977669D01*
X157745124Y-132037114D01*
X157679701Y-132110737D01*
X157209472Y-132757950D01*
X157159669Y-132842922D01*
X157127400Y-132935978D01*
X157113905Y-133033540D01*
X157119704Y-133131861D01*
X157144572Y-133227161D01*
X157187554Y-133315778D01*
X157246999Y-133394307D01*
X157320623Y-133459731D01*
X158129640Y-134047516D01*
X158214611Y-134097318D01*
X158307666Y-134129587D01*
X158405228Y-134143082D01*
X158503549Y-134137283D01*
X158598849Y-134112415D01*
X158685822Y-134070231D01*
X158750935Y-134128092D01*
X158991100Y-134302582D01*
X158892511Y-134343419D01*
X158736915Y-134447385D01*
X158604592Y-134579708D01*
X158500626Y-134735304D01*
X158429013Y-134908193D01*
X158392505Y-135091731D01*
X158392505Y-135278865D01*
X158429013Y-135462403D01*
X158500626Y-135635292D01*
X158604592Y-135790888D01*
X158736915Y-135923211D01*
X158892511Y-136027177D01*
X159065400Y-136098790D01*
X159248938Y-136135298D01*
X159436072Y-136135298D01*
X159619610Y-136098790D01*
X159792499Y-136027177D01*
X159948095Y-135923211D01*
X160080418Y-135790888D01*
X160184384Y-135635292D01*
X160255997Y-135462403D01*
X160292505Y-135278865D01*
X160292505Y-135248109D01*
X160530772Y-135421220D01*
X160615744Y-135471023D01*
X160708800Y-135503292D01*
X160806362Y-135516787D01*
X160904683Y-135510988D01*
X160999983Y-135486120D01*
X161088600Y-135443138D01*
X161167129Y-135383693D01*
X161232553Y-135310069D01*
X161424622Y-135045708D01*
X161458006Y-135030731D01*
X161610519Y-134922293D01*
X161706766Y-134820291D01*
X162766305Y-133450000D01*
X165383335Y-133450000D01*
X165430000Y-133454596D01*
X165476664Y-133450000D01*
X168325595Y-133450000D01*
X168364489Y-133454470D01*
X168418924Y-133450000D01*
X168426665Y-133450000D01*
X168465483Y-133446177D01*
X168550994Y-133439155D01*
X168558474Y-133437018D01*
X168566232Y-133436254D01*
X168648440Y-133411317D01*
X168730929Y-133387751D01*
X168737853Y-133384193D01*
X168745308Y-133381932D01*
X168821051Y-133341447D01*
X168897378Y-133302230D01*
X168903474Y-133297390D01*
X168910345Y-133293718D01*
X168976737Y-133239231D01*
X169043944Y-133185879D01*
X169048979Y-133179943D01*
X169055001Y-133175001D01*
X169109469Y-133108632D01*
X169134663Y-133078931D01*
X169139064Y-133072571D01*
X169173718Y-133030345D01*
X169192175Y-132995814D01*
X170407924Y-131238806D01*
X170641593Y-131957996D01*
X167894147Y-135897581D01*
X166900000Y-135897581D01*
X166801983Y-135907235D01*
X166707733Y-135935825D01*
X166620871Y-135982254D01*
X166544736Y-136044736D01*
X166482254Y-136120871D01*
X166435825Y-136207733D01*
X166407235Y-136301983D01*
X166397581Y-136400000D01*
X166397581Y-138200000D01*
X166407235Y-138298017D01*
X166435825Y-138392267D01*
X166482254Y-138479129D01*
X166544736Y-138555264D01*
X166620871Y-138617746D01*
X166707733Y-138664175D01*
X166801983Y-138692765D01*
X166900000Y-138702419D01*
X168700000Y-138702419D01*
X168798017Y-138692765D01*
X168892267Y-138664175D01*
X168979129Y-138617746D01*
X169055264Y-138555264D01*
X169117746Y-138479129D01*
X169164175Y-138392267D01*
X169192765Y-138298017D01*
X169202419Y-138200000D01*
X169202419Y-138117423D01*
X169252549Y-138192448D01*
X169447552Y-138387451D01*
X169676851Y-138540664D01*
X169931635Y-138646199D01*
X170202112Y-138700000D01*
X170477888Y-138700000D01*
X170748365Y-138646199D01*
X171003149Y-138540664D01*
X171232448Y-138387451D01*
X171427451Y-138192448D01*
X171580664Y-137963149D01*
X171686199Y-137708365D01*
X171740000Y-137437888D01*
X171740000Y-137162112D01*
X171686199Y-136891635D01*
X171596416Y-136674880D01*
X173456222Y-133748994D01*
X178709648Y-149917378D01*
X178732621Y-150021864D01*
X178734244Y-150099350D01*
X178720785Y-150175678D01*
X178692757Y-150247938D01*
X178651228Y-150313377D01*
X178597777Y-150369506D01*
X178534446Y-150414181D01*
X178463643Y-150445705D01*
X178388064Y-150462876D01*
X178310588Y-150465039D01*
X178234171Y-150452114D01*
X178157765Y-150423090D01*
X178082825Y-150377705D01*
X163570119Y-139833606D01*
X163908467Y-139367911D01*
X163958270Y-139282939D01*
X163990539Y-139189883D01*
X164004034Y-139092321D01*
X163998235Y-138994000D01*
X163973367Y-138898700D01*
X163930385Y-138810083D01*
X163870940Y-138731554D01*
X163797316Y-138666130D01*
X162988299Y-138078345D01*
X162903328Y-138028543D01*
X162810273Y-137996274D01*
X162712711Y-137982779D01*
X162614390Y-137988578D01*
X162519090Y-138013446D01*
X162430472Y-138056428D01*
X162351943Y-138115873D01*
X162286520Y-138189496D01*
X161948171Y-138655192D01*
X159470538Y-136855086D01*
X160819556Y-136855086D01*
X160819556Y-137042220D01*
X160856064Y-137225758D01*
X160927677Y-137398647D01*
X161031643Y-137554243D01*
X161163966Y-137686566D01*
X161319562Y-137790532D01*
X161492451Y-137862145D01*
X161675989Y-137898653D01*
X161863123Y-137898653D01*
X162046661Y-137862145D01*
X162219550Y-137790532D01*
X162375146Y-137686566D01*
X162507469Y-137554243D01*
X162611435Y-137398647D01*
X162683048Y-137225758D01*
X162719556Y-137042220D01*
X162719556Y-137011465D01*
X162957823Y-137184576D01*
X163032974Y-137228623D01*
X163019730Y-137324372D01*
X163025529Y-137422693D01*
X163050397Y-137517993D01*
X163093379Y-137606610D01*
X163152824Y-137685139D01*
X163226448Y-137750563D01*
X164035465Y-138338348D01*
X164120436Y-138388150D01*
X164213491Y-138420419D01*
X164311053Y-138433914D01*
X164409374Y-138428115D01*
X164504674Y-138403247D01*
X164593292Y-138360265D01*
X164671821Y-138300820D01*
X164737244Y-138227197D01*
X165207473Y-137579984D01*
X165257276Y-137495012D01*
X165289545Y-137401956D01*
X165303040Y-137304394D01*
X165297241Y-137206073D01*
X165272373Y-137110773D01*
X165229391Y-137022156D01*
X165169946Y-136943627D01*
X165096322Y-136878203D01*
X164287305Y-136290418D01*
X164246057Y-136266242D01*
X164541282Y-135859899D01*
X164591084Y-135774928D01*
X164623353Y-135681873D01*
X164636848Y-135584310D01*
X164631049Y-135485989D01*
X164606181Y-135390689D01*
X164563199Y-135302072D01*
X164503754Y-135223543D01*
X164430131Y-135158120D01*
X163863819Y-134746670D01*
X163778847Y-134696867D01*
X163685791Y-134664598D01*
X163588229Y-134651103D01*
X163489908Y-134656902D01*
X163394608Y-134681770D01*
X163305991Y-134724752D01*
X163227462Y-134784197D01*
X163162038Y-134857821D01*
X162280360Y-136071347D01*
X162248326Y-136126002D01*
X162219550Y-136106774D01*
X162046661Y-136035161D01*
X161863123Y-135998653D01*
X161675989Y-135998653D01*
X161492451Y-136035161D01*
X161319562Y-136106774D01*
X161163966Y-136210740D01*
X161031643Y-136343063D01*
X160927677Y-136498659D01*
X160856064Y-136671548D01*
X160819556Y-136855086D01*
X159470538Y-136855086D01*
X157664295Y-135542774D01*
X158002643Y-135077079D01*
X158052446Y-134992107D01*
X158084715Y-134899051D01*
X158098210Y-134801489D01*
X158092411Y-134703168D01*
X158067543Y-134607868D01*
X158024561Y-134519251D01*
X157965116Y-134440722D01*
X157891492Y-134375298D01*
X157082475Y-133787513D01*
X156997504Y-133737711D01*
X156904449Y-133705442D01*
X156806887Y-133691947D01*
X156708566Y-133697746D01*
X156613266Y-133722614D01*
X156524648Y-133765596D01*
X156446119Y-133825041D01*
X156380696Y-133898664D01*
X156042347Y-134364360D01*
X149416611Y-129550481D01*
X149405746Y-129544113D01*
X149350061Y-129507116D01*
X149316786Y-129489423D01*
X149284807Y-129469441D01*
X149277278Y-129465769D01*
X149101270Y-129381441D01*
X149050220Y-129362861D01*
X148999335Y-129343531D01*
X148991235Y-129341391D01*
X148802201Y-129292855D01*
X148748503Y-129284543D01*
X148694841Y-129275466D01*
X148686480Y-129274941D01*
X148491620Y-129264046D01*
X148437331Y-129266321D01*
X148382924Y-129267841D01*
X148374620Y-129268949D01*
X148181354Y-129296111D01*
X148128518Y-129308893D01*
X148075467Y-129320946D01*
X148067547Y-129323644D01*
X148067537Y-129323646D01*
X148067528Y-129323650D01*
X147883227Y-129387831D01*
X147833922Y-129410613D01*
X147784183Y-129432758D01*
X147776928Y-129436947D01*
X147609614Y-129535110D01*
X147583388Y-129550481D01*
X118920569Y-150375240D01*
X118828283Y-150429384D01*
X118755093Y-150454871D01*
X118678340Y-150465658D01*
X118600954Y-150461332D01*
X118525884Y-150442057D01*
X118455988Y-150408569D01*
X118393927Y-150362141D01*
X118342070Y-150304548D01*
X118302380Y-150237968D01*
X118276382Y-150164956D01*
X118265060Y-150088286D01*
X118269053Y-150006647D01*
X118289056Y-149921364D01*
X123487469Y-133922293D01*
X123490029Y-133924955D01*
X125247581Y-136521505D01*
X125247581Y-138200000D01*
X125257235Y-138298017D01*
X125285825Y-138392267D01*
X125332254Y-138479129D01*
X125394736Y-138555264D01*
X125470871Y-138617746D01*
X125557733Y-138664175D01*
X125651983Y-138692765D01*
X125750000Y-138702419D01*
X127550000Y-138702419D01*
X127648017Y-138692765D01*
X127742267Y-138664175D01*
X127829129Y-138617746D01*
X127905264Y-138555264D01*
X127967746Y-138479129D01*
X128014175Y-138392267D01*
X128042765Y-138298017D01*
X128052419Y-138200000D01*
X128052419Y-138117423D01*
X128102549Y-138192448D01*
X128297552Y-138387451D01*
X128526851Y-138540664D01*
X128781635Y-138646199D01*
X129052112Y-138700000D01*
X129327888Y-138700000D01*
X129598365Y-138646199D01*
X129853149Y-138540664D01*
X130082448Y-138387451D01*
X130277451Y-138192448D01*
X130430664Y-137963149D01*
X130536199Y-137708365D01*
X130590000Y-137437888D01*
X130590000Y-137162112D01*
X130536199Y-136891635D01*
X130430664Y-136636851D01*
X130277451Y-136407552D01*
X130082448Y-136212549D01*
X129853149Y-136059336D01*
X129598365Y-135953801D01*
X129327888Y-135900000D01*
X129233894Y-135900000D01*
X127266147Y-132404354D01*
X130304165Y-123050000D01*
X131947097Y-123050000D01*
X131958682Y-123167621D01*
X131992990Y-123280721D01*
X132048704Y-123384955D01*
X132123683Y-123476317D01*
X132215045Y-123551296D01*
X132319279Y-123607010D01*
X132432379Y-123641318D01*
X132550000Y-123652903D01*
X133650000Y-123650000D01*
X133800000Y-123500000D01*
X133800000Y-121300000D01*
X133900000Y-121300000D01*
X133900000Y-123500000D01*
X134050000Y-123650000D01*
X135150000Y-123652903D01*
X135267621Y-123641318D01*
X135380721Y-123607010D01*
X135484955Y-123551296D01*
X135576317Y-123476317D01*
X135651296Y-123384955D01*
X135707010Y-123280721D01*
X135741318Y-123167621D01*
X135752903Y-123050000D01*
X135750000Y-121450000D01*
X135600000Y-121300000D01*
X133900000Y-121300000D01*
X133800000Y-121300000D01*
X132100000Y-121300000D01*
X131950000Y-121450000D01*
X131947097Y-123050000D01*
X130304165Y-123050000D01*
X131473339Y-119450000D01*
X131947097Y-119450000D01*
X131950000Y-121050000D01*
X132100000Y-121200000D01*
X133800000Y-121200000D01*
X133800000Y-119000000D01*
X133900000Y-119000000D01*
X133900000Y-121200000D01*
X135600000Y-121200000D01*
X135750000Y-121050000D01*
X135752903Y-119450000D01*
X135741318Y-119332379D01*
X135707010Y-119219279D01*
X135651296Y-119115045D01*
X135576317Y-119023683D01*
X135484955Y-118948704D01*
X135380721Y-118892990D01*
X135267621Y-118858682D01*
X135150000Y-118847097D01*
X134050000Y-118850000D01*
X133900000Y-119000000D01*
X133800000Y-119000000D01*
X133650000Y-118850000D01*
X132550000Y-118847097D01*
X132432379Y-118858682D01*
X132319279Y-118892990D01*
X132215045Y-118948704D01*
X132123683Y-119023683D01*
X132048704Y-119115045D01*
X131992990Y-119219279D01*
X131958682Y-119332379D01*
X131947097Y-119450000D01*
X131473339Y-119450000D01*
X132179691Y-117275077D01*
X132183053Y-117268788D01*
X132201728Y-117207223D01*
X132210544Y-117180079D01*
X132212061Y-117173161D01*
X132224509Y-117132125D01*
X132227322Y-117103563D01*
X132233469Y-117075530D01*
X132234305Y-117032666D01*
X132235000Y-117025607D01*
X132235000Y-116997008D01*
X132236253Y-116932744D01*
X132235000Y-116925733D01*
X132235000Y-114541698D01*
X132237973Y-114492134D01*
X132230149Y-114435144D01*
X132224509Y-114377875D01*
X132220451Y-114364498D01*
X132218550Y-114350649D01*
X132199757Y-114296278D01*
X132183053Y-114241212D01*
X132176461Y-114228880D01*
X132171896Y-114215672D01*
X132142859Y-114166015D01*
X132115731Y-114115263D01*
X132084225Y-114076874D01*
X130684432Y-112146124D01*
X130681123Y-112139304D01*
X130642557Y-112088366D01*
X130626067Y-112065621D01*
X130621073Y-112059989D01*
X130594918Y-112025444D01*
X130573793Y-112006675D01*
X130555051Y-111985541D01*
X130520545Y-111959366D01*
X130514904Y-111954354D01*
X130492116Y-111937801D01*
X130441271Y-111899231D01*
X130434463Y-111895920D01*
X117731529Y-102668319D01*
X117347006Y-99311133D01*
X117382448Y-99287451D01*
X117577451Y-99092448D01*
X117689336Y-98925000D01*
X130349696Y-98925000D01*
X140912172Y-109487477D01*
X140934868Y-109515132D01*
X140962523Y-109537828D01*
X140962525Y-109537830D01*
X141045263Y-109605731D01*
X141171212Y-109673053D01*
X141307875Y-109714509D01*
X141414393Y-109725000D01*
X141414402Y-109725000D01*
X141449999Y-109728506D01*
X141485596Y-109725000D01*
X145847581Y-109725000D01*
X145847581Y-109900000D01*
X145857235Y-109998017D01*
X145885825Y-110092267D01*
X145932254Y-110179129D01*
X145994736Y-110255264D01*
X146070871Y-110317746D01*
X146157733Y-110364175D01*
X146251983Y-110392765D01*
X146350000Y-110402419D01*
X148150000Y-110402419D01*
X148248017Y-110392765D01*
X148342267Y-110364175D01*
X148429129Y-110317746D01*
X148505264Y-110255264D01*
X148567746Y-110179129D01*
X148614175Y-110092267D01*
X148642765Y-109998017D01*
X148652419Y-109900000D01*
X148652419Y-109817423D01*
X148702549Y-109892448D01*
X148897552Y-110087451D01*
X149126851Y-110240664D01*
X149381635Y-110346199D01*
X149652112Y-110400000D01*
X149927888Y-110400000D01*
X150198365Y-110346199D01*
X150453149Y-110240664D01*
X150682448Y-110087451D01*
X150877451Y-109892448D01*
X151030664Y-109663149D01*
X151136199Y-109408365D01*
X151190000Y-109137888D01*
X151190000Y-108862112D01*
X151136199Y-108591635D01*
X151135522Y-108590000D01*
X153602097Y-108590000D01*
X153613682Y-108707621D01*
X153647990Y-108820721D01*
X153703704Y-108924955D01*
X153778683Y-109016317D01*
X153870045Y-109091296D01*
X153974279Y-109147010D01*
X154087379Y-109181318D01*
X154205000Y-109192903D01*
X154492500Y-109190000D01*
X154642500Y-109040000D01*
X154642500Y-107940000D01*
X153755000Y-107940000D01*
X153605000Y-108090000D01*
X153602097Y-108590000D01*
X151135522Y-108590000D01*
X151030664Y-108336851D01*
X150877451Y-108107552D01*
X150682448Y-107912549D01*
X150453149Y-107759336D01*
X150198365Y-107653801D01*
X149927888Y-107600000D01*
X149865305Y-107600000D01*
X149455305Y-107190000D01*
X153602097Y-107190000D01*
X153605000Y-107690000D01*
X153755000Y-107840000D01*
X154642500Y-107840000D01*
X154642500Y-106740000D01*
X154492500Y-106590000D01*
X154205000Y-106587097D01*
X154087379Y-106598682D01*
X153974279Y-106632990D01*
X153870045Y-106688704D01*
X153778683Y-106763683D01*
X153703704Y-106855045D01*
X153647990Y-106959279D01*
X153613682Y-107072379D01*
X153602097Y-107190000D01*
X149455305Y-107190000D01*
X149187832Y-106922528D01*
X149165132Y-106894868D01*
X149054737Y-106804269D01*
X148928788Y-106736947D01*
X148792125Y-106695491D01*
X148685607Y-106685000D01*
X148685597Y-106685000D01*
X148650000Y-106681494D01*
X148614403Y-106685000D01*
X142250305Y-106685000D01*
X139930305Y-104365000D01*
X153802097Y-104365000D01*
X153813682Y-104482621D01*
X153847990Y-104595721D01*
X153903704Y-104699955D01*
X153978683Y-104791317D01*
X154070045Y-104866296D01*
X154174279Y-104922010D01*
X154287379Y-104956318D01*
X154405000Y-104967903D01*
X154642500Y-104965000D01*
X154792500Y-104815000D01*
X154792500Y-103940000D01*
X153955000Y-103940000D01*
X153805000Y-104090000D01*
X153802097Y-104365000D01*
X139930305Y-104365000D01*
X138540305Y-102975000D01*
X147959598Y-102975000D01*
X147971183Y-103092621D01*
X148005491Y-103205721D01*
X148061205Y-103309955D01*
X148136184Y-103401317D01*
X148227546Y-103476296D01*
X148331780Y-103532010D01*
X148444880Y-103566318D01*
X148562501Y-103577903D01*
X148800001Y-103575000D01*
X148950001Y-103425000D01*
X148950001Y-102550000D01*
X148112501Y-102550000D01*
X147962501Y-102700000D01*
X147959598Y-102975000D01*
X138540305Y-102975000D01*
X137590305Y-102025000D01*
X147959598Y-102025000D01*
X147962501Y-102300000D01*
X148112501Y-102450000D01*
X148950001Y-102450000D01*
X148950001Y-101575000D01*
X148800001Y-101425000D01*
X148562501Y-101422097D01*
X148444880Y-101433682D01*
X148331780Y-101467990D01*
X148227546Y-101523704D01*
X148136184Y-101598683D01*
X148061205Y-101690045D01*
X148005491Y-101794279D01*
X147971183Y-101907379D01*
X147959598Y-102025000D01*
X137590305Y-102025000D01*
X133235000Y-97669696D01*
X133235000Y-97086384D01*
X135654420Y-97085030D01*
X135669657Y-97087389D01*
X135725707Y-97084990D01*
X135746013Y-97084979D01*
X135761258Y-97083469D01*
X135812338Y-97081283D01*
X135832191Y-97076443D01*
X135852525Y-97074429D01*
X135901435Y-97059562D01*
X135916326Y-97055932D01*
X135935500Y-97049208D01*
X135989164Y-97032896D01*
X136002754Y-97025622D01*
X138795313Y-96046289D01*
X138829022Y-96038178D01*
X138862483Y-96022732D01*
X138863528Y-96022366D01*
X138895225Y-96007619D01*
X138958687Y-95978325D01*
X138959572Y-95977681D01*
X138960572Y-95977216D01*
X139017534Y-95935525D01*
X139074183Y-95894324D01*
X139074925Y-95893520D01*
X139075815Y-95892869D01*
X139123500Y-95840920D01*
X139146798Y-95815691D01*
X139147453Y-95814825D01*
X139172389Y-95787659D01*
X139190412Y-95758015D01*
X140982841Y-93387700D01*
X142356888Y-91814779D01*
X143378400Y-91471675D01*
X143746282Y-91461328D01*
X143807733Y-91494175D01*
X143901983Y-91522765D01*
X144000000Y-91532419D01*
X145700000Y-91532419D01*
X145798017Y-91522765D01*
X145892267Y-91494175D01*
X145979129Y-91447746D01*
X146055264Y-91385264D01*
X146117746Y-91309129D01*
X146164175Y-91222267D01*
X146192765Y-91128017D01*
X146202419Y-91030000D01*
X146202419Y-90380000D01*
X146192765Y-90281983D01*
X146164175Y-90187733D01*
X146149351Y-90160000D01*
X146374696Y-90160000D01*
X146776830Y-90562134D01*
X146776830Y-90562134D01*
G37*
X146776830Y-90562134D02*
X146703690Y-90592430D01*
X146556283Y-90690924D01*
X146430924Y-90816283D01*
X146332430Y-90963690D01*
X146264586Y-91127480D01*
X146230000Y-91301358D01*
X146230000Y-91478642D01*
X146264586Y-91652520D01*
X146332430Y-91816310D01*
X146405001Y-91924920D01*
X146405000Y-92589695D01*
X145472523Y-93522173D01*
X145444869Y-93544868D01*
X145422173Y-93572523D01*
X145422170Y-93572526D01*
X145354269Y-93655264D01*
X145286947Y-93781213D01*
X145266246Y-93849458D01*
X145245492Y-93917875D01*
X145235000Y-94024393D01*
X145235000Y-94024403D01*
X145231494Y-94060000D01*
X145235000Y-94095597D01*
X145235000Y-94854393D01*
X145231493Y-94890000D01*
X145235000Y-94925606D01*
X145235001Y-97530394D01*
X145003806Y-97684874D01*
X144794874Y-97893806D01*
X144630717Y-98139483D01*
X144517644Y-98412466D01*
X144460000Y-98702263D01*
X144460000Y-98997737D01*
X144517644Y-99287534D01*
X144630717Y-99560517D01*
X144794874Y-99806194D01*
X145003806Y-100015126D01*
X145249483Y-100179283D01*
X145522466Y-100292356D01*
X145812263Y-100350000D01*
X146107737Y-100350000D01*
X146397534Y-100292356D01*
X146670517Y-100179283D01*
X146916194Y-100015126D01*
X146921487Y-100009833D01*
X146942990Y-100080721D01*
X146998704Y-100184955D01*
X147073683Y-100276317D01*
X147165045Y-100351296D01*
X147269279Y-100407010D01*
X147382379Y-100441318D01*
X147500000Y-100452903D01*
X148300000Y-100450000D01*
X148450000Y-100300000D01*
X148450000Y-98900000D01*
X148430000Y-98900000D01*
X148430000Y-98800000D01*
X148450000Y-98800000D01*
X148450000Y-97400000D01*
X148300000Y-97250000D01*
X147500000Y-97247097D01*
X147382379Y-97258682D01*
X147269279Y-97292990D01*
X147165045Y-97348704D01*
X147073683Y-97423683D01*
X146998704Y-97515045D01*
X146942990Y-97619279D01*
X146921487Y-97690167D01*
X146916194Y-97684874D01*
X146685000Y-97530394D01*
X146685000Y-95615000D01*
X146754285Y-95615000D01*
X146759380Y-95631797D01*
X146828333Y-95760799D01*
X146921129Y-95873871D01*
X147034201Y-95966667D01*
X147163203Y-96035620D01*
X147303180Y-96078082D01*
X147448750Y-96092419D01*
X147936250Y-96092419D01*
X148081820Y-96078082D01*
X148221797Y-96035620D01*
X148350799Y-95966667D01*
X148463871Y-95873871D01*
X148556667Y-95760799D01*
X148625620Y-95631797D01*
X148630000Y-95617358D01*
X148634380Y-95631797D01*
X148703333Y-95760799D01*
X148796129Y-95873871D01*
X148909201Y-95966667D01*
X149038203Y-96035620D01*
X149178180Y-96078082D01*
X149323750Y-96092419D01*
X149811250Y-96092419D01*
X149956820Y-96078082D01*
X150096797Y-96035620D01*
X150225799Y-95966667D01*
X150338871Y-95873871D01*
X150431667Y-95760799D01*
X150500620Y-95631797D01*
X150505715Y-95615000D01*
X150594402Y-95615000D01*
X150629999Y-95618506D01*
X150665596Y-95615000D01*
X154329696Y-95615000D01*
X157879695Y-99165000D01*
X157505715Y-99165000D01*
X157500620Y-99148203D01*
X157431667Y-99019201D01*
X157338871Y-98906129D01*
X157225799Y-98813333D01*
X157096797Y-98744380D01*
X156956820Y-98701918D01*
X156811250Y-98687581D01*
X156323750Y-98687581D01*
X156178180Y-98701918D01*
X156038203Y-98744380D01*
X155909201Y-98813333D01*
X155796129Y-98906129D01*
X155703333Y-99019201D01*
X155634380Y-99148203D01*
X155630000Y-99162642D01*
X155625620Y-99148203D01*
X155556667Y-99019201D01*
X155463871Y-98906129D01*
X155350799Y-98813333D01*
X155221797Y-98744380D01*
X155081820Y-98701918D01*
X154936250Y-98687581D01*
X154448750Y-98687581D01*
X154303180Y-98701918D01*
X154163203Y-98744380D01*
X154034201Y-98813333D01*
X153921129Y-98906129D01*
X153828333Y-99019201D01*
X153759380Y-99148203D01*
X153754285Y-99165000D01*
X152506729Y-99165000D01*
X152540000Y-98997737D01*
X152540000Y-98702263D01*
X152482356Y-98412466D01*
X152369283Y-98139483D01*
X152205126Y-97893806D01*
X151996194Y-97684874D01*
X151750517Y-97520717D01*
X151477534Y-97407644D01*
X151187737Y-97350000D01*
X150892263Y-97350000D01*
X150602466Y-97407644D01*
X150329483Y-97520717D01*
X150083806Y-97684874D01*
X150078513Y-97690167D01*
X150057010Y-97619279D01*
X150001296Y-97515045D01*
X149926317Y-97423683D01*
X149834955Y-97348704D01*
X149730721Y-97292990D01*
X149617621Y-97258682D01*
X149500000Y-97247097D01*
X148700000Y-97250000D01*
X148550000Y-97400000D01*
X148550000Y-98800000D01*
X148570000Y-98800000D01*
X148570000Y-98900000D01*
X148550000Y-98900000D01*
X148550000Y-100300000D01*
X148700000Y-100450000D01*
X149500000Y-100452903D01*
X149617621Y-100441318D01*
X149730721Y-100407010D01*
X149834955Y-100351296D01*
X149926317Y-100276317D01*
X150001296Y-100184955D01*
X150057010Y-100080721D01*
X150078513Y-100009833D01*
X150083806Y-100015126D01*
X150329483Y-100179283D01*
X150602466Y-100292356D01*
X150892263Y-100350000D01*
X151187737Y-100350000D01*
X151460450Y-100295754D01*
X151525000Y-100360305D01*
X151525001Y-101469694D01*
X151280183Y-101714512D01*
X151194411Y-101644120D01*
X151069730Y-101577477D01*
X150934444Y-101536438D01*
X150793751Y-101522581D01*
X150356251Y-101522581D01*
X150215558Y-101536438D01*
X150080272Y-101577477D01*
X149955591Y-101644120D01*
X149923035Y-101670839D01*
X149863818Y-101598683D01*
X149772456Y-101523704D01*
X149668222Y-101467990D01*
X149555122Y-101433682D01*
X149437501Y-101422097D01*
X149200001Y-101425000D01*
X149050001Y-101575000D01*
X149050001Y-102450000D01*
X149070001Y-102450000D01*
X149070001Y-102550000D01*
X149050001Y-102550000D01*
X149050001Y-103425000D01*
X149200001Y-103575000D01*
X149437501Y-103577903D01*
X149555122Y-103566318D01*
X149668222Y-103532010D01*
X149772456Y-103476296D01*
X149863818Y-103401317D01*
X149923035Y-103329161D01*
X149955591Y-103355880D01*
X150080272Y-103422523D01*
X150215558Y-103463562D01*
X150356251Y-103477419D01*
X150793751Y-103477419D01*
X150934444Y-103463562D01*
X151069730Y-103422523D01*
X151083804Y-103415000D01*
X153802097Y-103415000D01*
X153805000Y-103690000D01*
X153955000Y-103840000D01*
X154792500Y-103840000D01*
X154792500Y-102965000D01*
X154642500Y-102815000D01*
X154405000Y-102812097D01*
X154287379Y-102823682D01*
X154174279Y-102857990D01*
X154070045Y-102913704D01*
X153978683Y-102988683D01*
X153903704Y-103080045D01*
X153847990Y-103184279D01*
X153813682Y-103297379D01*
X153802097Y-103415000D01*
X151083804Y-103415000D01*
X151194411Y-103355880D01*
X151303694Y-103266193D01*
X151337501Y-103225000D01*
X151484403Y-103225000D01*
X151520000Y-103228506D01*
X151555597Y-103225000D01*
X151555607Y-103225000D01*
X151662125Y-103214509D01*
X151798788Y-103173053D01*
X151924737Y-103105731D01*
X152035132Y-103015132D01*
X152057832Y-102987472D01*
X152737477Y-102307828D01*
X152765132Y-102285132D01*
X152799094Y-102243750D01*
X152855731Y-102174737D01*
X152923053Y-102048788D01*
X152964509Y-101912125D01*
X152975000Y-101805607D01*
X152975000Y-101805597D01*
X152978506Y-101770000D01*
X152975000Y-101734403D01*
X152975000Y-100615000D01*
X153754285Y-100615000D01*
X153759380Y-100631797D01*
X153828333Y-100760799D01*
X153921129Y-100873871D01*
X154034201Y-100966667D01*
X154163203Y-101035620D01*
X154303180Y-101078082D01*
X154448750Y-101092419D01*
X154936250Y-101092419D01*
X155081820Y-101078082D01*
X155221797Y-101035620D01*
X155350799Y-100966667D01*
X155463871Y-100873871D01*
X155556667Y-100760799D01*
X155625620Y-100631797D01*
X155630000Y-100617358D01*
X155634380Y-100631797D01*
X155703333Y-100760799D01*
X155796129Y-100873871D01*
X155909201Y-100966667D01*
X156038203Y-101035620D01*
X156178180Y-101078082D01*
X156323750Y-101092419D01*
X156811250Y-101092419D01*
X156956820Y-101078082D01*
X157096797Y-101035620D01*
X157225799Y-100966667D01*
X157338871Y-100873871D01*
X157431667Y-100760799D01*
X157500620Y-100631797D01*
X157505715Y-100615000D01*
X157905001Y-100615000D01*
X157905000Y-102394391D01*
X157901493Y-102430000D01*
X157905000Y-102465607D01*
X157905000Y-102925607D01*
X157905001Y-102925616D01*
X157905001Y-103165000D01*
X157180000Y-103165000D01*
X157146193Y-103123807D01*
X157036910Y-103034120D01*
X156912229Y-102967477D01*
X156776943Y-102926438D01*
X156636250Y-102912581D01*
X156198750Y-102912581D01*
X156058057Y-102926438D01*
X155922771Y-102967477D01*
X155798090Y-103034120D01*
X155765534Y-103060839D01*
X155706317Y-102988683D01*
X155614955Y-102913704D01*
X155510721Y-102857990D01*
X155397621Y-102823682D01*
X155280000Y-102812097D01*
X155042500Y-102815000D01*
X154892500Y-102965000D01*
X154892500Y-103840000D01*
X154912500Y-103840000D01*
X154912500Y-103940000D01*
X154892500Y-103940000D01*
X154892500Y-104815000D01*
X155042500Y-104965000D01*
X155280000Y-104967903D01*
X155397621Y-104956318D01*
X155510721Y-104922010D01*
X155614955Y-104866296D01*
X155706317Y-104791317D01*
X155765534Y-104719161D01*
X155798090Y-104745880D01*
X155922771Y-104812523D01*
X156058057Y-104853562D01*
X156198750Y-104867419D01*
X156636250Y-104867419D01*
X156776943Y-104853562D01*
X156912229Y-104812523D01*
X157036910Y-104745880D01*
X157146193Y-104656193D01*
X157180000Y-104615000D01*
X157905001Y-104615000D01*
X157905000Y-105375922D01*
X157836282Y-105459655D01*
X157748068Y-105624692D01*
X157693746Y-105803768D01*
X157675404Y-105990000D01*
X157693746Y-106176232D01*
X157748068Y-106355308D01*
X157836282Y-106520345D01*
X157905000Y-106604078D01*
X157905000Y-106889695D01*
X157629696Y-107165000D01*
X157505715Y-107165000D01*
X157500620Y-107148203D01*
X157431667Y-107019201D01*
X157338871Y-106906129D01*
X157225799Y-106813333D01*
X157096797Y-106744380D01*
X156956820Y-106701918D01*
X156811250Y-106687581D01*
X156323750Y-106687581D01*
X156178180Y-106701918D01*
X156038203Y-106744380D01*
X155909201Y-106813333D01*
X155796129Y-106906129D01*
X155741193Y-106973069D01*
X155737010Y-106959279D01*
X155681296Y-106855045D01*
X155606317Y-106763683D01*
X155514955Y-106688704D01*
X155410721Y-106632990D01*
X155297621Y-106598682D01*
X155180000Y-106587097D01*
X154892500Y-106590000D01*
X154742500Y-106740000D01*
X154742500Y-107840000D01*
X154762500Y-107840000D01*
X154762500Y-107940000D01*
X154742500Y-107940000D01*
X154742500Y-109040000D01*
X154892500Y-109190000D01*
X155180000Y-109192903D01*
X155297621Y-109181318D01*
X155410721Y-109147010D01*
X155514955Y-109091296D01*
X155606317Y-109016317D01*
X155681296Y-108924955D01*
X155737010Y-108820721D01*
X155741193Y-108806931D01*
X155796129Y-108873871D01*
X155909201Y-108966667D01*
X156038203Y-109035620D01*
X156178180Y-109078082D01*
X156323750Y-109092419D01*
X156811250Y-109092419D01*
X156956820Y-109078082D01*
X157096797Y-109035620D01*
X157225799Y-108966667D01*
X157338871Y-108873871D01*
X157431667Y-108760799D01*
X157500620Y-108631797D01*
X157505715Y-108615000D01*
X157894403Y-108615000D01*
X157930000Y-108618506D01*
X157965597Y-108615000D01*
X157965607Y-108615000D01*
X158072125Y-108604509D01*
X158208788Y-108563053D01*
X158334737Y-108495731D01*
X158445132Y-108405132D01*
X158467832Y-108377472D01*
X159117482Y-107727823D01*
X159145131Y-107705132D01*
X159167823Y-107677482D01*
X159167830Y-107677475D01*
X159235731Y-107594737D01*
X159258508Y-107552124D01*
X159303053Y-107468788D01*
X159344509Y-107332125D01*
X159355000Y-107225607D01*
X159355000Y-107225598D01*
X159358506Y-107190001D01*
X159355000Y-107154404D01*
X159355000Y-106940000D01*
X160673819Y-106940000D01*
X164593423Y-117294917D01*
X168791311Y-130235996D01*
X167882096Y-131550000D01*
X166380000Y-131550000D01*
X166380000Y-130984230D01*
X166391769Y-130972461D01*
X166454251Y-130896326D01*
X166508707Y-130814827D01*
X166555137Y-130727963D01*
X166592646Y-130637407D01*
X166621235Y-130543159D01*
X166640357Y-130447026D01*
X166650011Y-130349009D01*
X166650011Y-130324448D01*
X166652419Y-130300000D01*
X166652419Y-129800000D01*
X166642765Y-129701983D01*
X166626996Y-129650000D01*
X166642765Y-129598017D01*
X166652419Y-129500000D01*
X166652419Y-129000000D01*
X166650011Y-128975552D01*
X166650011Y-128950991D01*
X166640357Y-128852974D01*
X166621235Y-128756841D01*
X166592646Y-128662593D01*
X166555137Y-128572037D01*
X166508707Y-128485173D01*
X166454251Y-128403674D01*
X166391769Y-128327539D01*
X166350000Y-128285770D01*
X166350000Y-125205098D01*
X166354446Y-125166905D01*
X166350000Y-125111769D01*
X166350000Y-125103335D01*
X166346248Y-125065243D01*
X166339405Y-124980377D01*
X166337086Y-124972214D01*
X166336254Y-124963768D01*
X166311528Y-124882256D01*
X166288262Y-124800367D01*
X166284397Y-124792817D01*
X166281932Y-124784692D01*
X166241774Y-124709561D01*
X166224353Y-124675533D01*
X166219798Y-124668448D01*
X166193718Y-124619655D01*
X166169320Y-124589926D01*
X164952419Y-122696969D01*
X164952419Y-119450000D01*
X164942765Y-119351983D01*
X164914175Y-119257733D01*
X164867746Y-119170871D01*
X164805264Y-119094736D01*
X164729129Y-119032254D01*
X164642267Y-118985825D01*
X164548017Y-118957235D01*
X164450000Y-118947581D01*
X161850000Y-118947581D01*
X161751983Y-118957235D01*
X161657733Y-118985825D01*
X161570871Y-119032254D01*
X161494736Y-119094736D01*
X161432254Y-119170871D01*
X161385825Y-119257733D01*
X161357235Y-119351983D01*
X161347581Y-119450000D01*
X161347581Y-123050000D01*
X161357235Y-123148017D01*
X161385825Y-123242267D01*
X161432254Y-123329129D01*
X161494736Y-123405264D01*
X161570871Y-123467746D01*
X161657733Y-123514175D01*
X161751983Y-123542765D01*
X161850000Y-123552419D01*
X162200001Y-123552419D01*
X162200000Y-128731232D01*
X159158050Y-132563797D01*
X158381480Y-131999586D01*
X158296509Y-131949784D01*
X158203454Y-131917515D01*
X158105892Y-131904020D01*
X158007571Y-131909819D01*
X157912271Y-131934687D01*
X157823653Y-131977669D01*
X157745124Y-132037114D01*
X157679701Y-132110737D01*
X157209472Y-132757950D01*
X157159669Y-132842922D01*
X157127400Y-132935978D01*
X157113905Y-133033540D01*
X157119704Y-133131861D01*
X157144572Y-133227161D01*
X157187554Y-133315778D01*
X157246999Y-133394307D01*
X157320623Y-133459731D01*
X158129640Y-134047516D01*
X158214611Y-134097318D01*
X158307666Y-134129587D01*
X158405228Y-134143082D01*
X158503549Y-134137283D01*
X158598849Y-134112415D01*
X158685822Y-134070231D01*
X158750935Y-134128092D01*
X158991100Y-134302582D01*
X158892511Y-134343419D01*
X158736915Y-134447385D01*
X158604592Y-134579708D01*
X158500626Y-134735304D01*
X158429013Y-134908193D01*
X158392505Y-135091731D01*
X158392505Y-135278865D01*
X158429013Y-135462403D01*
X158500626Y-135635292D01*
X158604592Y-135790888D01*
X158736915Y-135923211D01*
X158892511Y-136027177D01*
X159065400Y-136098790D01*
X159248938Y-136135298D01*
X159436072Y-136135298D01*
X159619610Y-136098790D01*
X159792499Y-136027177D01*
X159948095Y-135923211D01*
X160080418Y-135790888D01*
X160184384Y-135635292D01*
X160255997Y-135462403D01*
X160292505Y-135278865D01*
X160292505Y-135248109D01*
X160530772Y-135421220D01*
X160615744Y-135471023D01*
X160708800Y-135503292D01*
X160806362Y-135516787D01*
X160904683Y-135510988D01*
X160999983Y-135486120D01*
X161088600Y-135443138D01*
X161167129Y-135383693D01*
X161232553Y-135310069D01*
X161424622Y-135045708D01*
X161458006Y-135030731D01*
X161610519Y-134922293D01*
X161706766Y-134820291D01*
X162766305Y-133450000D01*
X165383335Y-133450000D01*
X165430000Y-133454596D01*
X165476664Y-133450000D01*
X168325595Y-133450000D01*
X168364489Y-133454470D01*
X168418924Y-133450000D01*
X168426665Y-133450000D01*
X168465483Y-133446177D01*
X168550994Y-133439155D01*
X168558474Y-133437018D01*
X168566232Y-133436254D01*
X168648440Y-133411317D01*
X168730929Y-133387751D01*
X168737853Y-133384193D01*
X168745308Y-133381932D01*
X168821051Y-133341447D01*
X168897378Y-133302230D01*
X168903474Y-133297390D01*
X168910345Y-133293718D01*
X168976737Y-133239231D01*
X169043944Y-133185879D01*
X169048979Y-133179943D01*
X169055001Y-133175001D01*
X169109469Y-133108632D01*
X169134663Y-133078931D01*
X169139064Y-133072571D01*
X169173718Y-133030345D01*
X169192175Y-132995814D01*
X170407924Y-131238806D01*
X170641593Y-131957996D01*
X167894147Y-135897581D01*
X166900000Y-135897581D01*
X166801983Y-135907235D01*
X166707733Y-135935825D01*
X166620871Y-135982254D01*
X166544736Y-136044736D01*
X166482254Y-136120871D01*
X166435825Y-136207733D01*
X166407235Y-136301983D01*
X166397581Y-136400000D01*
X166397581Y-138200000D01*
X166407235Y-138298017D01*
X166435825Y-138392267D01*
X166482254Y-138479129D01*
X166544736Y-138555264D01*
X166620871Y-138617746D01*
X166707733Y-138664175D01*
X166801983Y-138692765D01*
X166900000Y-138702419D01*
X168700000Y-138702419D01*
X168798017Y-138692765D01*
X168892267Y-138664175D01*
X168979129Y-138617746D01*
X169055264Y-138555264D01*
X169117746Y-138479129D01*
X169164175Y-138392267D01*
X169192765Y-138298017D01*
X169202419Y-138200000D01*
X169202419Y-138117423D01*
X169252549Y-138192448D01*
X169447552Y-138387451D01*
X169676851Y-138540664D01*
X169931635Y-138646199D01*
X170202112Y-138700000D01*
X170477888Y-138700000D01*
X170748365Y-138646199D01*
X171003149Y-138540664D01*
X171232448Y-138387451D01*
X171427451Y-138192448D01*
X171580664Y-137963149D01*
X171686199Y-137708365D01*
X171740000Y-137437888D01*
X171740000Y-137162112D01*
X171686199Y-136891635D01*
X171596416Y-136674880D01*
X173456222Y-133748994D01*
X178709648Y-149917378D01*
X178732621Y-150021864D01*
X178734244Y-150099350D01*
X178720785Y-150175678D01*
X178692757Y-150247938D01*
X178651228Y-150313377D01*
X178597777Y-150369506D01*
X178534446Y-150414181D01*
X178463643Y-150445705D01*
X178388064Y-150462876D01*
X178310588Y-150465039D01*
X178234171Y-150452114D01*
X178157765Y-150423090D01*
X178082825Y-150377705D01*
X163570119Y-139833606D01*
X163908467Y-139367911D01*
X163958270Y-139282939D01*
X163990539Y-139189883D01*
X164004034Y-139092321D01*
X163998235Y-138994000D01*
X163973367Y-138898700D01*
X163930385Y-138810083D01*
X163870940Y-138731554D01*
X163797316Y-138666130D01*
X162988299Y-138078345D01*
X162903328Y-138028543D01*
X162810273Y-137996274D01*
X162712711Y-137982779D01*
X162614390Y-137988578D01*
X162519090Y-138013446D01*
X162430472Y-138056428D01*
X162351943Y-138115873D01*
X162286520Y-138189496D01*
X161948171Y-138655192D01*
X159470538Y-136855086D01*
X160819556Y-136855086D01*
X160819556Y-137042220D01*
X160856064Y-137225758D01*
X160927677Y-137398647D01*
X161031643Y-137554243D01*
X161163966Y-137686566D01*
X161319562Y-137790532D01*
X161492451Y-137862145D01*
X161675989Y-137898653D01*
X161863123Y-137898653D01*
X162046661Y-137862145D01*
X162219550Y-137790532D01*
X162375146Y-137686566D01*
X162507469Y-137554243D01*
X162611435Y-137398647D01*
X162683048Y-137225758D01*
X162719556Y-137042220D01*
X162719556Y-137011465D01*
X162957823Y-137184576D01*
X163032974Y-137228623D01*
X163019730Y-137324372D01*
X163025529Y-137422693D01*
X163050397Y-137517993D01*
X163093379Y-137606610D01*
X163152824Y-137685139D01*
X163226448Y-137750563D01*
X164035465Y-138338348D01*
X164120436Y-138388150D01*
X164213491Y-138420419D01*
X164311053Y-138433914D01*
X164409374Y-138428115D01*
X164504674Y-138403247D01*
X164593292Y-138360265D01*
X164671821Y-138300820D01*
X164737244Y-138227197D01*
X165207473Y-137579984D01*
X165257276Y-137495012D01*
X165289545Y-137401956D01*
X165303040Y-137304394D01*
X165297241Y-137206073D01*
X165272373Y-137110773D01*
X165229391Y-137022156D01*
X165169946Y-136943627D01*
X165096322Y-136878203D01*
X164287305Y-136290418D01*
X164246057Y-136266242D01*
X164541282Y-135859899D01*
X164591084Y-135774928D01*
X164623353Y-135681873D01*
X164636848Y-135584310D01*
X164631049Y-135485989D01*
X164606181Y-135390689D01*
X164563199Y-135302072D01*
X164503754Y-135223543D01*
X164430131Y-135158120D01*
X163863819Y-134746670D01*
X163778847Y-134696867D01*
X163685791Y-134664598D01*
X163588229Y-134651103D01*
X163489908Y-134656902D01*
X163394608Y-134681770D01*
X163305991Y-134724752D01*
X163227462Y-134784197D01*
X163162038Y-134857821D01*
X162280360Y-136071347D01*
X162248326Y-136126002D01*
X162219550Y-136106774D01*
X162046661Y-136035161D01*
X161863123Y-135998653D01*
X161675989Y-135998653D01*
X161492451Y-136035161D01*
X161319562Y-136106774D01*
X161163966Y-136210740D01*
X161031643Y-136343063D01*
X160927677Y-136498659D01*
X160856064Y-136671548D01*
X160819556Y-136855086D01*
X159470538Y-136855086D01*
X157664295Y-135542774D01*
X158002643Y-135077079D01*
X158052446Y-134992107D01*
X158084715Y-134899051D01*
X158098210Y-134801489D01*
X158092411Y-134703168D01*
X158067543Y-134607868D01*
X158024561Y-134519251D01*
X157965116Y-134440722D01*
X157891492Y-134375298D01*
X157082475Y-133787513D01*
X156997504Y-133737711D01*
X156904449Y-133705442D01*
X156806887Y-133691947D01*
X156708566Y-133697746D01*
X156613266Y-133722614D01*
X156524648Y-133765596D01*
X156446119Y-133825041D01*
X156380696Y-133898664D01*
X156042347Y-134364360D01*
X149416611Y-129550481D01*
X149405746Y-129544113D01*
X149350061Y-129507116D01*
X149316786Y-129489423D01*
X149284807Y-129469441D01*
X149277278Y-129465769D01*
X149101270Y-129381441D01*
X149050220Y-129362861D01*
X148999335Y-129343531D01*
X148991235Y-129341391D01*
X148802201Y-129292855D01*
X148748503Y-129284543D01*
X148694841Y-129275466D01*
X148686480Y-129274941D01*
X148491620Y-129264046D01*
X148437331Y-129266321D01*
X148382924Y-129267841D01*
X148374620Y-129268949D01*
X148181354Y-129296111D01*
X148128518Y-129308893D01*
X148075467Y-129320946D01*
X148067547Y-129323644D01*
X148067537Y-129323646D01*
X148067528Y-129323650D01*
X147883227Y-129387831D01*
X147833922Y-129410613D01*
X147784183Y-129432758D01*
X147776928Y-129436947D01*
X147609614Y-129535110D01*
X147583388Y-129550481D01*
X118920569Y-150375240D01*
X118828283Y-150429384D01*
X118755093Y-150454871D01*
X118678340Y-150465658D01*
X118600954Y-150461332D01*
X118525884Y-150442057D01*
X118455988Y-150408569D01*
X118393927Y-150362141D01*
X118342070Y-150304548D01*
X118302380Y-150237968D01*
X118276382Y-150164956D01*
X118265060Y-150088286D01*
X118269053Y-150006647D01*
X118289056Y-149921364D01*
X123487469Y-133922293D01*
X123490029Y-133924955D01*
X125247581Y-136521505D01*
X125247581Y-138200000D01*
X125257235Y-138298017D01*
X125285825Y-138392267D01*
X125332254Y-138479129D01*
X125394736Y-138555264D01*
X125470871Y-138617746D01*
X125557733Y-138664175D01*
X125651983Y-138692765D01*
X125750000Y-138702419D01*
X127550000Y-138702419D01*
X127648017Y-138692765D01*
X127742267Y-138664175D01*
X127829129Y-138617746D01*
X127905264Y-138555264D01*
X127967746Y-138479129D01*
X128014175Y-138392267D01*
X128042765Y-138298017D01*
X128052419Y-138200000D01*
X128052419Y-138117423D01*
X128102549Y-138192448D01*
X128297552Y-138387451D01*
X128526851Y-138540664D01*
X128781635Y-138646199D01*
X129052112Y-138700000D01*
X129327888Y-138700000D01*
X129598365Y-138646199D01*
X129853149Y-138540664D01*
X130082448Y-138387451D01*
X130277451Y-138192448D01*
X130430664Y-137963149D01*
X130536199Y-137708365D01*
X130590000Y-137437888D01*
X130590000Y-137162112D01*
X130536199Y-136891635D01*
X130430664Y-136636851D01*
X130277451Y-136407552D01*
X130082448Y-136212549D01*
X129853149Y-136059336D01*
X129598365Y-135953801D01*
X129327888Y-135900000D01*
X129233894Y-135900000D01*
X127266147Y-132404354D01*
X130304165Y-123050000D01*
X131947097Y-123050000D01*
X131958682Y-123167621D01*
X131992990Y-123280721D01*
X132048704Y-123384955D01*
X132123683Y-123476317D01*
X132215045Y-123551296D01*
X132319279Y-123607010D01*
X132432379Y-123641318D01*
X132550000Y-123652903D01*
X133650000Y-123650000D01*
X133800000Y-123500000D01*
X133800000Y-121300000D01*
X133900000Y-121300000D01*
X133900000Y-123500000D01*
X134050000Y-123650000D01*
X135150000Y-123652903D01*
X135267621Y-123641318D01*
X135380721Y-123607010D01*
X135484955Y-123551296D01*
X135576317Y-123476317D01*
X135651296Y-123384955D01*
X135707010Y-123280721D01*
X135741318Y-123167621D01*
X135752903Y-123050000D01*
X135750000Y-121450000D01*
X135600000Y-121300000D01*
X133900000Y-121300000D01*
X133800000Y-121300000D01*
X132100000Y-121300000D01*
X131950000Y-121450000D01*
X131947097Y-123050000D01*
X130304165Y-123050000D01*
X131473339Y-119450000D01*
X131947097Y-119450000D01*
X131950000Y-121050000D01*
X132100000Y-121200000D01*
X133800000Y-121200000D01*
X133800000Y-119000000D01*
X133900000Y-119000000D01*
X133900000Y-121200000D01*
X135600000Y-121200000D01*
X135750000Y-121050000D01*
X135752903Y-119450000D01*
X135741318Y-119332379D01*
X135707010Y-119219279D01*
X135651296Y-119115045D01*
X135576317Y-119023683D01*
X135484955Y-118948704D01*
X135380721Y-118892990D01*
X135267621Y-118858682D01*
X135150000Y-118847097D01*
X134050000Y-118850000D01*
X133900000Y-119000000D01*
X133800000Y-119000000D01*
X133650000Y-118850000D01*
X132550000Y-118847097D01*
X132432379Y-118858682D01*
X132319279Y-118892990D01*
X132215045Y-118948704D01*
X132123683Y-119023683D01*
X132048704Y-119115045D01*
X131992990Y-119219279D01*
X131958682Y-119332379D01*
X131947097Y-119450000D01*
X131473339Y-119450000D01*
X132179691Y-117275077D01*
X132183053Y-117268788D01*
X132201728Y-117207223D01*
X132210544Y-117180079D01*
X132212061Y-117173161D01*
X132224509Y-117132125D01*
X132227322Y-117103563D01*
X132233469Y-117075530D01*
X132234305Y-117032666D01*
X132235000Y-117025607D01*
X132235000Y-116997008D01*
X132236253Y-116932744D01*
X132235000Y-116925733D01*
X132235000Y-114541698D01*
X132237973Y-114492134D01*
X132230149Y-114435144D01*
X132224509Y-114377875D01*
X132220451Y-114364498D01*
X132218550Y-114350649D01*
X132199757Y-114296278D01*
X132183053Y-114241212D01*
X132176461Y-114228880D01*
X132171896Y-114215672D01*
X132142859Y-114166015D01*
X132115731Y-114115263D01*
X132084225Y-114076874D01*
X130684432Y-112146124D01*
X130681123Y-112139304D01*
X130642557Y-112088366D01*
X130626067Y-112065621D01*
X130621073Y-112059989D01*
X130594918Y-112025444D01*
X130573793Y-112006675D01*
X130555051Y-111985541D01*
X130520545Y-111959366D01*
X130514904Y-111954354D01*
X130492116Y-111937801D01*
X130441271Y-111899231D01*
X130434463Y-111895920D01*
X117731529Y-102668319D01*
X117347006Y-99311133D01*
X117382448Y-99287451D01*
X117577451Y-99092448D01*
X117689336Y-98925000D01*
X130349696Y-98925000D01*
X140912172Y-109487477D01*
X140934868Y-109515132D01*
X140962523Y-109537828D01*
X140962525Y-109537830D01*
X141045263Y-109605731D01*
X141171212Y-109673053D01*
X141307875Y-109714509D01*
X141414393Y-109725000D01*
X141414402Y-109725000D01*
X141449999Y-109728506D01*
X141485596Y-109725000D01*
X145847581Y-109725000D01*
X145847581Y-109900000D01*
X145857235Y-109998017D01*
X145885825Y-110092267D01*
X145932254Y-110179129D01*
X145994736Y-110255264D01*
X146070871Y-110317746D01*
X146157733Y-110364175D01*
X146251983Y-110392765D01*
X146350000Y-110402419D01*
X148150000Y-110402419D01*
X148248017Y-110392765D01*
X148342267Y-110364175D01*
X148429129Y-110317746D01*
X148505264Y-110255264D01*
X148567746Y-110179129D01*
X148614175Y-110092267D01*
X148642765Y-109998017D01*
X148652419Y-109900000D01*
X148652419Y-109817423D01*
X148702549Y-109892448D01*
X148897552Y-110087451D01*
X149126851Y-110240664D01*
X149381635Y-110346199D01*
X149652112Y-110400000D01*
X149927888Y-110400000D01*
X150198365Y-110346199D01*
X150453149Y-110240664D01*
X150682448Y-110087451D01*
X150877451Y-109892448D01*
X151030664Y-109663149D01*
X151136199Y-109408365D01*
X151190000Y-109137888D01*
X151190000Y-108862112D01*
X151136199Y-108591635D01*
X151135522Y-108590000D01*
X153602097Y-108590000D01*
X153613682Y-108707621D01*
X153647990Y-108820721D01*
X153703704Y-108924955D01*
X153778683Y-109016317D01*
X153870045Y-109091296D01*
X153974279Y-109147010D01*
X154087379Y-109181318D01*
X154205000Y-109192903D01*
X154492500Y-109190000D01*
X154642500Y-109040000D01*
X154642500Y-107940000D01*
X153755000Y-107940000D01*
X153605000Y-108090000D01*
X153602097Y-108590000D01*
X151135522Y-108590000D01*
X151030664Y-108336851D01*
X150877451Y-108107552D01*
X150682448Y-107912549D01*
X150453149Y-107759336D01*
X150198365Y-107653801D01*
X149927888Y-107600000D01*
X149865305Y-107600000D01*
X149455305Y-107190000D01*
X153602097Y-107190000D01*
X153605000Y-107690000D01*
X153755000Y-107840000D01*
X154642500Y-107840000D01*
X154642500Y-106740000D01*
X154492500Y-106590000D01*
X154205000Y-106587097D01*
X154087379Y-106598682D01*
X153974279Y-106632990D01*
X153870045Y-106688704D01*
X153778683Y-106763683D01*
X153703704Y-106855045D01*
X153647990Y-106959279D01*
X153613682Y-107072379D01*
X153602097Y-107190000D01*
X149455305Y-107190000D01*
X149187832Y-106922528D01*
X149165132Y-106894868D01*
X149054737Y-106804269D01*
X148928788Y-106736947D01*
X148792125Y-106695491D01*
X148685607Y-106685000D01*
X148685597Y-106685000D01*
X148650000Y-106681494D01*
X148614403Y-106685000D01*
X142250305Y-106685000D01*
X139930305Y-104365000D01*
X153802097Y-104365000D01*
X153813682Y-104482621D01*
X153847990Y-104595721D01*
X153903704Y-104699955D01*
X153978683Y-104791317D01*
X154070045Y-104866296D01*
X154174279Y-104922010D01*
X154287379Y-104956318D01*
X154405000Y-104967903D01*
X154642500Y-104965000D01*
X154792500Y-104815000D01*
X154792500Y-103940000D01*
X153955000Y-103940000D01*
X153805000Y-104090000D01*
X153802097Y-104365000D01*
X139930305Y-104365000D01*
X138540305Y-102975000D01*
X147959598Y-102975000D01*
X147971183Y-103092621D01*
X148005491Y-103205721D01*
X148061205Y-103309955D01*
X148136184Y-103401317D01*
X148227546Y-103476296D01*
X148331780Y-103532010D01*
X148444880Y-103566318D01*
X148562501Y-103577903D01*
X148800001Y-103575000D01*
X148950001Y-103425000D01*
X148950001Y-102550000D01*
X148112501Y-102550000D01*
X147962501Y-102700000D01*
X147959598Y-102975000D01*
X138540305Y-102975000D01*
X137590305Y-102025000D01*
X147959598Y-102025000D01*
X147962501Y-102300000D01*
X148112501Y-102450000D01*
X148950001Y-102450000D01*
X148950001Y-101575000D01*
X148800001Y-101425000D01*
X148562501Y-101422097D01*
X148444880Y-101433682D01*
X148331780Y-101467990D01*
X148227546Y-101523704D01*
X148136184Y-101598683D01*
X148061205Y-101690045D01*
X148005491Y-101794279D01*
X147971183Y-101907379D01*
X147959598Y-102025000D01*
X137590305Y-102025000D01*
X133235000Y-97669696D01*
X133235000Y-97086384D01*
X135654420Y-97085030D01*
X135669657Y-97087389D01*
X135725707Y-97084990D01*
X135746013Y-97084979D01*
X135761258Y-97083469D01*
X135812338Y-97081283D01*
X135832191Y-97076443D01*
X135852525Y-97074429D01*
X135901435Y-97059562D01*
X135916326Y-97055932D01*
X135935500Y-97049208D01*
X135989164Y-97032896D01*
X136002754Y-97025622D01*
X138795313Y-96046289D01*
X138829022Y-96038178D01*
X138862483Y-96022732D01*
X138863528Y-96022366D01*
X138895225Y-96007619D01*
X138958687Y-95978325D01*
X138959572Y-95977681D01*
X138960572Y-95977216D01*
X139017534Y-95935525D01*
X139074183Y-95894324D01*
X139074925Y-95893520D01*
X139075815Y-95892869D01*
X139123500Y-95840920D01*
X139146798Y-95815691D01*
X139147453Y-95814825D01*
X139172389Y-95787659D01*
X139190412Y-95758015D01*
X140982841Y-93387700D01*
X142356888Y-91814779D01*
X143378400Y-91471675D01*
X143746282Y-91461328D01*
X143807733Y-91494175D01*
X143901983Y-91522765D01*
X144000000Y-91532419D01*
X145700000Y-91532419D01*
X145798017Y-91522765D01*
X145892267Y-91494175D01*
X145979129Y-91447746D01*
X146055264Y-91385264D01*
X146117746Y-91309129D01*
X146164175Y-91222267D01*
X146192765Y-91128017D01*
X146202419Y-91030000D01*
X146202419Y-90380000D01*
X146192765Y-90281983D01*
X146164175Y-90187733D01*
X146149351Y-90160000D01*
X146374696Y-90160000D01*
X146776830Y-90562134D01*
G36*
X181624359Y-96148287D02*
G01*
X181984156Y-97275945D01*
X181952549Y-97307552D01*
X181902419Y-97382577D01*
X181902419Y-97300000D01*
X181892765Y-97201983D01*
X181864175Y-97107733D01*
X181817746Y-97020871D01*
X181755264Y-96944736D01*
X181679129Y-96882254D01*
X181592267Y-96835825D01*
X181498017Y-96807235D01*
X181400000Y-96797581D01*
X179600000Y-96797581D01*
X179501983Y-96807235D01*
X179407733Y-96835825D01*
X179320871Y-96882254D01*
X179244736Y-96944736D01*
X179182254Y-97020871D01*
X179135825Y-97107733D01*
X179107235Y-97201983D01*
X179097581Y-97300000D01*
X179097581Y-99100000D01*
X179107235Y-99198017D01*
X179135825Y-99292267D01*
X179182254Y-99379129D01*
X179244736Y-99455264D01*
X179320871Y-99517746D01*
X179407733Y-99564175D01*
X179501983Y-99592765D01*
X179600000Y-99602419D01*
X181400000Y-99602419D01*
X181498017Y-99592765D01*
X181592267Y-99564175D01*
X181660225Y-99527851D01*
X179942716Y-103412518D01*
X169356373Y-111106393D01*
X169356370Y-111106395D01*
X168844031Y-111478750D01*
X164895000Y-105899388D01*
X164895000Y-103743310D01*
X165007387Y-103683238D01*
X165235792Y-103495792D01*
X165381076Y-103318762D01*
X165569597Y-103552268D01*
X165810453Y-103753186D01*
X166085878Y-103903254D01*
X166385288Y-103996706D01*
X166410443Y-104001708D01*
X166660000Y-103879138D01*
X166660000Y-102480000D01*
X166760000Y-102480000D01*
X166760000Y-103879138D01*
X167009557Y-104001708D01*
X167034712Y-103996706D01*
X167334122Y-103903254D01*
X167609547Y-103753186D01*
X167850403Y-103552268D01*
X168047434Y-103308222D01*
X168193068Y-103030427D01*
X168281709Y-102729558D01*
X168159220Y-102480000D01*
X166760000Y-102480000D01*
X166660000Y-102480000D01*
X166640000Y-102480000D01*
X166640000Y-102380000D01*
X166660000Y-102380000D01*
X166660000Y-102360000D01*
X166760000Y-102360000D01*
X166760000Y-102380000D01*
X168159220Y-102380000D01*
X168281709Y-102130442D01*
X168193068Y-101829573D01*
X168047434Y-101551778D01*
X167850403Y-101307732D01*
X167609547Y-101106814D01*
X167598863Y-101100993D01*
X167775792Y-100955792D01*
X167963238Y-100727387D01*
X168102524Y-100466802D01*
X168188295Y-100184051D01*
X168217257Y-99890000D01*
X168188295Y-99595949D01*
X168102524Y-99313198D01*
X167963238Y-99052613D01*
X167775792Y-98824208D01*
X167547387Y-98636762D01*
X167435000Y-98576690D01*
X167435000Y-97005596D01*
X167438506Y-96969999D01*
X167435000Y-96934402D01*
X167435000Y-96934393D01*
X167424509Y-96827875D01*
X167383053Y-96691212D01*
X167315731Y-96565263D01*
X167272449Y-96512524D01*
X167247830Y-96482525D01*
X167247823Y-96482518D01*
X167225131Y-96454868D01*
X167197482Y-96432177D01*
X165800304Y-95035000D01*
X179305014Y-95035000D01*
X181624359Y-96148287D01*
X181624359Y-96148287D01*
G37*
X181624359Y-96148287D02*
X181984156Y-97275945D01*
X181952549Y-97307552D01*
X181902419Y-97382577D01*
X181902419Y-97300000D01*
X181892765Y-97201983D01*
X181864175Y-97107733D01*
X181817746Y-97020871D01*
X181755264Y-96944736D01*
X181679129Y-96882254D01*
X181592267Y-96835825D01*
X181498017Y-96807235D01*
X181400000Y-96797581D01*
X179600000Y-96797581D01*
X179501983Y-96807235D01*
X179407733Y-96835825D01*
X179320871Y-96882254D01*
X179244736Y-96944736D01*
X179182254Y-97020871D01*
X179135825Y-97107733D01*
X179107235Y-97201983D01*
X179097581Y-97300000D01*
X179097581Y-99100000D01*
X179107235Y-99198017D01*
X179135825Y-99292267D01*
X179182254Y-99379129D01*
X179244736Y-99455264D01*
X179320871Y-99517746D01*
X179407733Y-99564175D01*
X179501983Y-99592765D01*
X179600000Y-99602419D01*
X181400000Y-99602419D01*
X181498017Y-99592765D01*
X181592267Y-99564175D01*
X181660225Y-99527851D01*
X179942716Y-103412518D01*
X169356373Y-111106393D01*
X169356370Y-111106395D01*
X168844031Y-111478750D01*
X164895000Y-105899388D01*
X164895000Y-103743310D01*
X165007387Y-103683238D01*
X165235792Y-103495792D01*
X165381076Y-103318762D01*
X165569597Y-103552268D01*
X165810453Y-103753186D01*
X166085878Y-103903254D01*
X166385288Y-103996706D01*
X166410443Y-104001708D01*
X166660000Y-103879138D01*
X166660000Y-102480000D01*
X166760000Y-102480000D01*
X166760000Y-103879138D01*
X167009557Y-104001708D01*
X167034712Y-103996706D01*
X167334122Y-103903254D01*
X167609547Y-103753186D01*
X167850403Y-103552268D01*
X168047434Y-103308222D01*
X168193068Y-103030427D01*
X168281709Y-102729558D01*
X168159220Y-102480000D01*
X166760000Y-102480000D01*
X166660000Y-102480000D01*
X166640000Y-102480000D01*
X166640000Y-102380000D01*
X166660000Y-102380000D01*
X166660000Y-102360000D01*
X166760000Y-102360000D01*
X166760000Y-102380000D01*
X168159220Y-102380000D01*
X168281709Y-102130442D01*
X168193068Y-101829573D01*
X168047434Y-101551778D01*
X167850403Y-101307732D01*
X167609547Y-101106814D01*
X167598863Y-101100993D01*
X167775792Y-100955792D01*
X167963238Y-100727387D01*
X168102524Y-100466802D01*
X168188295Y-100184051D01*
X168217257Y-99890000D01*
X168188295Y-99595949D01*
X168102524Y-99313198D01*
X167963238Y-99052613D01*
X167775792Y-98824208D01*
X167547387Y-98636762D01*
X167435000Y-98576690D01*
X167435000Y-97005596D01*
X167438506Y-96969999D01*
X167435000Y-96934402D01*
X167435000Y-96934393D01*
X167424509Y-96827875D01*
X167383053Y-96691212D01*
X167315731Y-96565263D01*
X167272449Y-96512524D01*
X167247830Y-96482525D01*
X167247823Y-96482518D01*
X167225131Y-96454868D01*
X167197482Y-96432177D01*
X165800304Y-95035000D01*
X179305014Y-95035000D01*
X181624359Y-96148287D01*
G36*
X155305000Y-88990305D02*
G01*
X155305001Y-91654393D01*
X155302030Y-91684562D01*
X155272125Y-91675491D01*
X155165607Y-91665000D01*
X155165597Y-91665000D01*
X155130000Y-91661494D01*
X155094403Y-91665000D01*
X151430305Y-91665000D01*
X151397771Y-91632466D01*
X151950000Y-91630000D01*
X152100000Y-91480000D01*
X152100000Y-90755000D01*
X152200000Y-90755000D01*
X152200000Y-91480000D01*
X152350000Y-91630000D01*
X153000000Y-91632903D01*
X153117621Y-91621318D01*
X153230721Y-91587010D01*
X153334955Y-91531296D01*
X153426317Y-91456317D01*
X153501296Y-91364955D01*
X153557010Y-91260721D01*
X153591318Y-91147621D01*
X153602903Y-91030000D01*
X153600000Y-90905000D01*
X153450000Y-90755000D01*
X152200000Y-90755000D01*
X152100000Y-90755000D01*
X150850000Y-90755000D01*
X150700000Y-90905000D01*
X150699326Y-90934021D01*
X149583170Y-89817866D01*
X149656310Y-89787570D01*
X149803717Y-89689076D01*
X149929076Y-89563717D01*
X150027570Y-89416310D01*
X150095414Y-89252520D01*
X150130000Y-89078642D01*
X150130000Y-88901358D01*
X150124548Y-88873950D01*
X150142875Y-88879509D01*
X150249393Y-88890000D01*
X150249402Y-88890000D01*
X150284999Y-88893506D01*
X150320596Y-88890000D01*
X150850649Y-88890000D01*
X150835825Y-88917733D01*
X150807235Y-89011983D01*
X150797581Y-89110000D01*
X150797581Y-89760000D01*
X150807235Y-89858017D01*
X150835825Y-89952267D01*
X150851215Y-89981060D01*
X150798704Y-90045045D01*
X150742990Y-90149279D01*
X150708682Y-90262379D01*
X150697097Y-90380000D01*
X150700000Y-90505000D01*
X150850000Y-90655000D01*
X152100000Y-90655000D01*
X152100000Y-90635000D01*
X152200000Y-90635000D01*
X152200000Y-90655000D01*
X153450000Y-90655000D01*
X153600000Y-90505000D01*
X153602903Y-90380000D01*
X153591318Y-90262379D01*
X153557010Y-90149279D01*
X153501296Y-90045045D01*
X153448785Y-89981060D01*
X153464175Y-89952267D01*
X153492765Y-89858017D01*
X153502419Y-89760000D01*
X153502419Y-89110000D01*
X153492765Y-89011983D01*
X153464175Y-88917733D01*
X153417746Y-88830871D01*
X153392411Y-88800000D01*
X153417746Y-88769129D01*
X153464175Y-88682267D01*
X153492765Y-88588017D01*
X153502419Y-88490000D01*
X153502419Y-87840000D01*
X153492765Y-87741983D01*
X153464175Y-87647733D01*
X153449351Y-87620000D01*
X153934696Y-87620000D01*
X155305000Y-88990305D01*
X155305000Y-88990305D01*
G37*
X155305000Y-88990305D02*
X155305001Y-91654393D01*
X155302030Y-91684562D01*
X155272125Y-91675491D01*
X155165607Y-91665000D01*
X155165597Y-91665000D01*
X155130000Y-91661494D01*
X155094403Y-91665000D01*
X151430305Y-91665000D01*
X151397771Y-91632466D01*
X151950000Y-91630000D01*
X152100000Y-91480000D01*
X152100000Y-90755000D01*
X152200000Y-90755000D01*
X152200000Y-91480000D01*
X152350000Y-91630000D01*
X153000000Y-91632903D01*
X153117621Y-91621318D01*
X153230721Y-91587010D01*
X153334955Y-91531296D01*
X153426317Y-91456317D01*
X153501296Y-91364955D01*
X153557010Y-91260721D01*
X153591318Y-91147621D01*
X153602903Y-91030000D01*
X153600000Y-90905000D01*
X153450000Y-90755000D01*
X152200000Y-90755000D01*
X152100000Y-90755000D01*
X150850000Y-90755000D01*
X150700000Y-90905000D01*
X150699326Y-90934021D01*
X149583170Y-89817866D01*
X149656310Y-89787570D01*
X149803717Y-89689076D01*
X149929076Y-89563717D01*
X150027570Y-89416310D01*
X150095414Y-89252520D01*
X150130000Y-89078642D01*
X150130000Y-88901358D01*
X150124548Y-88873950D01*
X150142875Y-88879509D01*
X150249393Y-88890000D01*
X150249402Y-88890000D01*
X150284999Y-88893506D01*
X150320596Y-88890000D01*
X150850649Y-88890000D01*
X150835825Y-88917733D01*
X150807235Y-89011983D01*
X150797581Y-89110000D01*
X150797581Y-89760000D01*
X150807235Y-89858017D01*
X150835825Y-89952267D01*
X150851215Y-89981060D01*
X150798704Y-90045045D01*
X150742990Y-90149279D01*
X150708682Y-90262379D01*
X150697097Y-90380000D01*
X150700000Y-90505000D01*
X150850000Y-90655000D01*
X152100000Y-90655000D01*
X152100000Y-90635000D01*
X152200000Y-90635000D01*
X152200000Y-90655000D01*
X153450000Y-90655000D01*
X153600000Y-90505000D01*
X153602903Y-90380000D01*
X153591318Y-90262379D01*
X153557010Y-90149279D01*
X153501296Y-90045045D01*
X153448785Y-89981060D01*
X153464175Y-89952267D01*
X153492765Y-89858017D01*
X153502419Y-89760000D01*
X153502419Y-89110000D01*
X153492765Y-89011983D01*
X153464175Y-88917733D01*
X153417746Y-88830871D01*
X153392411Y-88800000D01*
X153417746Y-88769129D01*
X153464175Y-88682267D01*
X153492765Y-88588017D01*
X153502419Y-88490000D01*
X153502419Y-87840000D01*
X153492765Y-87741983D01*
X153464175Y-87647733D01*
X153449351Y-87620000D01*
X153934696Y-87620000D01*
X155305000Y-88990305D01*
M02*
