G04 #@! TF.GenerationSoftware,KiCad,Pcbnew,(5.1.2)-2*
G04 #@! TF.CreationDate,2019-11-11T22:41:20-05:00*
G04 #@! TF.ProjectId,LightStar_RevA,4c696768-7453-4746-9172-5f526576412e,rev?*
G04 #@! TF.SameCoordinates,Original*
G04 #@! TF.FileFunction,Paste,Bot*
G04 #@! TF.FilePolarity,Positive*
%FSLAX46Y46*%
G04 Gerber Fmt 4.6, Leading zero omitted, Abs format (unit mm)*
G04 Created by KiCad (PCBNEW (5.1.2)-2) date 2019-11-11 22:41:20*
%MOMM*%
%LPD*%
G04 APERTURE LIST*
%ADD10R,2.600000X3.600000*%
%ADD11R,1.800000X2.000000*%
%ADD12O,2.000000X2.000000*%
%ADD13O,1.800000X2.000000*%
%ADD14C,0.050000*%
%ADD15C,0.875000*%
%ADD16C,0.975000*%
%ADD17C,0.700000*%
%ADD18C,0.800000*%
%ADD19R,1.700000X0.650000*%
G04 APERTURE END LIST*
D10*
X133850000Y-121250000D03*
X163150000Y-121250000D03*
D11*
X161630000Y-99890000D03*
D12*
X161630000Y-102430000D03*
D13*
X164170000Y-99890000D03*
D12*
X164170000Y-102430000D03*
X166710000Y-99890000D03*
X166710000Y-102430000D03*
D14*
G36*
X155082691Y-103416053D02*
G01*
X155103926Y-103419203D01*
X155124750Y-103424419D01*
X155144962Y-103431651D01*
X155164368Y-103440830D01*
X155182781Y-103451866D01*
X155200024Y-103464654D01*
X155215930Y-103479070D01*
X155230346Y-103494976D01*
X155243134Y-103512219D01*
X155254170Y-103530632D01*
X155263349Y-103550038D01*
X155270581Y-103570250D01*
X155275797Y-103591074D01*
X155278947Y-103612309D01*
X155280000Y-103633750D01*
X155280000Y-104146250D01*
X155278947Y-104167691D01*
X155275797Y-104188926D01*
X155270581Y-104209750D01*
X155263349Y-104229962D01*
X155254170Y-104249368D01*
X155243134Y-104267781D01*
X155230346Y-104285024D01*
X155215930Y-104300930D01*
X155200024Y-104315346D01*
X155182781Y-104328134D01*
X155164368Y-104339170D01*
X155144962Y-104348349D01*
X155124750Y-104355581D01*
X155103926Y-104360797D01*
X155082691Y-104363947D01*
X155061250Y-104365000D01*
X154623750Y-104365000D01*
X154602309Y-104363947D01*
X154581074Y-104360797D01*
X154560250Y-104355581D01*
X154540038Y-104348349D01*
X154520632Y-104339170D01*
X154502219Y-104328134D01*
X154484976Y-104315346D01*
X154469070Y-104300930D01*
X154454654Y-104285024D01*
X154441866Y-104267781D01*
X154430830Y-104249368D01*
X154421651Y-104229962D01*
X154414419Y-104209750D01*
X154409203Y-104188926D01*
X154406053Y-104167691D01*
X154405000Y-104146250D01*
X154405000Y-103633750D01*
X154406053Y-103612309D01*
X154409203Y-103591074D01*
X154414419Y-103570250D01*
X154421651Y-103550038D01*
X154430830Y-103530632D01*
X154441866Y-103512219D01*
X154454654Y-103494976D01*
X154469070Y-103479070D01*
X154484976Y-103464654D01*
X154502219Y-103451866D01*
X154520632Y-103440830D01*
X154540038Y-103431651D01*
X154560250Y-103424419D01*
X154581074Y-103419203D01*
X154602309Y-103416053D01*
X154623750Y-103415000D01*
X155061250Y-103415000D01*
X155082691Y-103416053D01*
X155082691Y-103416053D01*
G37*
D15*
X154842500Y-103890000D03*
D14*
G36*
X156657691Y-103416053D02*
G01*
X156678926Y-103419203D01*
X156699750Y-103424419D01*
X156719962Y-103431651D01*
X156739368Y-103440830D01*
X156757781Y-103451866D01*
X156775024Y-103464654D01*
X156790930Y-103479070D01*
X156805346Y-103494976D01*
X156818134Y-103512219D01*
X156829170Y-103530632D01*
X156838349Y-103550038D01*
X156845581Y-103570250D01*
X156850797Y-103591074D01*
X156853947Y-103612309D01*
X156855000Y-103633750D01*
X156855000Y-104146250D01*
X156853947Y-104167691D01*
X156850797Y-104188926D01*
X156845581Y-104209750D01*
X156838349Y-104229962D01*
X156829170Y-104249368D01*
X156818134Y-104267781D01*
X156805346Y-104285024D01*
X156790930Y-104300930D01*
X156775024Y-104315346D01*
X156757781Y-104328134D01*
X156739368Y-104339170D01*
X156719962Y-104348349D01*
X156699750Y-104355581D01*
X156678926Y-104360797D01*
X156657691Y-104363947D01*
X156636250Y-104365000D01*
X156198750Y-104365000D01*
X156177309Y-104363947D01*
X156156074Y-104360797D01*
X156135250Y-104355581D01*
X156115038Y-104348349D01*
X156095632Y-104339170D01*
X156077219Y-104328134D01*
X156059976Y-104315346D01*
X156044070Y-104300930D01*
X156029654Y-104285024D01*
X156016866Y-104267781D01*
X156005830Y-104249368D01*
X155996651Y-104229962D01*
X155989419Y-104209750D01*
X155984203Y-104188926D01*
X155981053Y-104167691D01*
X155980000Y-104146250D01*
X155980000Y-103633750D01*
X155981053Y-103612309D01*
X155984203Y-103591074D01*
X155989419Y-103570250D01*
X155996651Y-103550038D01*
X156005830Y-103530632D01*
X156016866Y-103512219D01*
X156029654Y-103494976D01*
X156044070Y-103479070D01*
X156059976Y-103464654D01*
X156077219Y-103451866D01*
X156095632Y-103440830D01*
X156115038Y-103431651D01*
X156135250Y-103424419D01*
X156156074Y-103419203D01*
X156177309Y-103416053D01*
X156198750Y-103415000D01*
X156636250Y-103415000D01*
X156657691Y-103416053D01*
X156657691Y-103416053D01*
G37*
D15*
X156417500Y-103890000D03*
D14*
G36*
X156835142Y-107191174D02*
G01*
X156858803Y-107194684D01*
X156882007Y-107200496D01*
X156904529Y-107208554D01*
X156926153Y-107218782D01*
X156946670Y-107231079D01*
X156965883Y-107245329D01*
X156983607Y-107261393D01*
X156999671Y-107279117D01*
X157013921Y-107298330D01*
X157026218Y-107318847D01*
X157036446Y-107340471D01*
X157044504Y-107362993D01*
X157050316Y-107386197D01*
X157053826Y-107409858D01*
X157055000Y-107433750D01*
X157055000Y-108346250D01*
X157053826Y-108370142D01*
X157050316Y-108393803D01*
X157044504Y-108417007D01*
X157036446Y-108439529D01*
X157026218Y-108461153D01*
X157013921Y-108481670D01*
X156999671Y-108500883D01*
X156983607Y-108518607D01*
X156965883Y-108534671D01*
X156946670Y-108548921D01*
X156926153Y-108561218D01*
X156904529Y-108571446D01*
X156882007Y-108579504D01*
X156858803Y-108585316D01*
X156835142Y-108588826D01*
X156811250Y-108590000D01*
X156323750Y-108590000D01*
X156299858Y-108588826D01*
X156276197Y-108585316D01*
X156252993Y-108579504D01*
X156230471Y-108571446D01*
X156208847Y-108561218D01*
X156188330Y-108548921D01*
X156169117Y-108534671D01*
X156151393Y-108518607D01*
X156135329Y-108500883D01*
X156121079Y-108481670D01*
X156108782Y-108461153D01*
X156098554Y-108439529D01*
X156090496Y-108417007D01*
X156084684Y-108393803D01*
X156081174Y-108370142D01*
X156080000Y-108346250D01*
X156080000Y-107433750D01*
X156081174Y-107409858D01*
X156084684Y-107386197D01*
X156090496Y-107362993D01*
X156098554Y-107340471D01*
X156108782Y-107318847D01*
X156121079Y-107298330D01*
X156135329Y-107279117D01*
X156151393Y-107261393D01*
X156169117Y-107245329D01*
X156188330Y-107231079D01*
X156208847Y-107218782D01*
X156230471Y-107208554D01*
X156252993Y-107200496D01*
X156276197Y-107194684D01*
X156299858Y-107191174D01*
X156323750Y-107190000D01*
X156811250Y-107190000D01*
X156835142Y-107191174D01*
X156835142Y-107191174D01*
G37*
D16*
X156567500Y-107890000D03*
D14*
G36*
X154960142Y-107191174D02*
G01*
X154983803Y-107194684D01*
X155007007Y-107200496D01*
X155029529Y-107208554D01*
X155051153Y-107218782D01*
X155071670Y-107231079D01*
X155090883Y-107245329D01*
X155108607Y-107261393D01*
X155124671Y-107279117D01*
X155138921Y-107298330D01*
X155151218Y-107318847D01*
X155161446Y-107340471D01*
X155169504Y-107362993D01*
X155175316Y-107386197D01*
X155178826Y-107409858D01*
X155180000Y-107433750D01*
X155180000Y-108346250D01*
X155178826Y-108370142D01*
X155175316Y-108393803D01*
X155169504Y-108417007D01*
X155161446Y-108439529D01*
X155151218Y-108461153D01*
X155138921Y-108481670D01*
X155124671Y-108500883D01*
X155108607Y-108518607D01*
X155090883Y-108534671D01*
X155071670Y-108548921D01*
X155051153Y-108561218D01*
X155029529Y-108571446D01*
X155007007Y-108579504D01*
X154983803Y-108585316D01*
X154960142Y-108588826D01*
X154936250Y-108590000D01*
X154448750Y-108590000D01*
X154424858Y-108588826D01*
X154401197Y-108585316D01*
X154377993Y-108579504D01*
X154355471Y-108571446D01*
X154333847Y-108561218D01*
X154313330Y-108548921D01*
X154294117Y-108534671D01*
X154276393Y-108518607D01*
X154260329Y-108500883D01*
X154246079Y-108481670D01*
X154233782Y-108461153D01*
X154223554Y-108439529D01*
X154215496Y-108417007D01*
X154209684Y-108393803D01*
X154206174Y-108370142D01*
X154205000Y-108346250D01*
X154205000Y-107433750D01*
X154206174Y-107409858D01*
X154209684Y-107386197D01*
X154215496Y-107362993D01*
X154223554Y-107340471D01*
X154233782Y-107318847D01*
X154246079Y-107298330D01*
X154260329Y-107279117D01*
X154276393Y-107261393D01*
X154294117Y-107245329D01*
X154313330Y-107231079D01*
X154333847Y-107218782D01*
X154355471Y-107208554D01*
X154377993Y-107200496D01*
X154401197Y-107194684D01*
X154424858Y-107191174D01*
X154448750Y-107190000D01*
X154936250Y-107190000D01*
X154960142Y-107191174D01*
X154960142Y-107191174D01*
G37*
D16*
X154692500Y-107890000D03*
D14*
G36*
X150815192Y-102026053D02*
G01*
X150836427Y-102029203D01*
X150857251Y-102034419D01*
X150877463Y-102041651D01*
X150896869Y-102050830D01*
X150915282Y-102061866D01*
X150932525Y-102074654D01*
X150948431Y-102089070D01*
X150962847Y-102104976D01*
X150975635Y-102122219D01*
X150986671Y-102140632D01*
X150995850Y-102160038D01*
X151003082Y-102180250D01*
X151008298Y-102201074D01*
X151011448Y-102222309D01*
X151012501Y-102243750D01*
X151012501Y-102756250D01*
X151011448Y-102777691D01*
X151008298Y-102798926D01*
X151003082Y-102819750D01*
X150995850Y-102839962D01*
X150986671Y-102859368D01*
X150975635Y-102877781D01*
X150962847Y-102895024D01*
X150948431Y-102910930D01*
X150932525Y-102925346D01*
X150915282Y-102938134D01*
X150896869Y-102949170D01*
X150877463Y-102958349D01*
X150857251Y-102965581D01*
X150836427Y-102970797D01*
X150815192Y-102973947D01*
X150793751Y-102975000D01*
X150356251Y-102975000D01*
X150334810Y-102973947D01*
X150313575Y-102970797D01*
X150292751Y-102965581D01*
X150272539Y-102958349D01*
X150253133Y-102949170D01*
X150234720Y-102938134D01*
X150217477Y-102925346D01*
X150201571Y-102910930D01*
X150187155Y-102895024D01*
X150174367Y-102877781D01*
X150163331Y-102859368D01*
X150154152Y-102839962D01*
X150146920Y-102819750D01*
X150141704Y-102798926D01*
X150138554Y-102777691D01*
X150137501Y-102756250D01*
X150137501Y-102243750D01*
X150138554Y-102222309D01*
X150141704Y-102201074D01*
X150146920Y-102180250D01*
X150154152Y-102160038D01*
X150163331Y-102140632D01*
X150174367Y-102122219D01*
X150187155Y-102104976D01*
X150201571Y-102089070D01*
X150217477Y-102074654D01*
X150234720Y-102061866D01*
X150253133Y-102050830D01*
X150272539Y-102041651D01*
X150292751Y-102034419D01*
X150313575Y-102029203D01*
X150334810Y-102026053D01*
X150356251Y-102025000D01*
X150793751Y-102025000D01*
X150815192Y-102026053D01*
X150815192Y-102026053D01*
G37*
D15*
X150575001Y-102500000D03*
D14*
G36*
X149240192Y-102026053D02*
G01*
X149261427Y-102029203D01*
X149282251Y-102034419D01*
X149302463Y-102041651D01*
X149321869Y-102050830D01*
X149340282Y-102061866D01*
X149357525Y-102074654D01*
X149373431Y-102089070D01*
X149387847Y-102104976D01*
X149400635Y-102122219D01*
X149411671Y-102140632D01*
X149420850Y-102160038D01*
X149428082Y-102180250D01*
X149433298Y-102201074D01*
X149436448Y-102222309D01*
X149437501Y-102243750D01*
X149437501Y-102756250D01*
X149436448Y-102777691D01*
X149433298Y-102798926D01*
X149428082Y-102819750D01*
X149420850Y-102839962D01*
X149411671Y-102859368D01*
X149400635Y-102877781D01*
X149387847Y-102895024D01*
X149373431Y-102910930D01*
X149357525Y-102925346D01*
X149340282Y-102938134D01*
X149321869Y-102949170D01*
X149302463Y-102958349D01*
X149282251Y-102965581D01*
X149261427Y-102970797D01*
X149240192Y-102973947D01*
X149218751Y-102975000D01*
X148781251Y-102975000D01*
X148759810Y-102973947D01*
X148738575Y-102970797D01*
X148717751Y-102965581D01*
X148697539Y-102958349D01*
X148678133Y-102949170D01*
X148659720Y-102938134D01*
X148642477Y-102925346D01*
X148626571Y-102910930D01*
X148612155Y-102895024D01*
X148599367Y-102877781D01*
X148588331Y-102859368D01*
X148579152Y-102839962D01*
X148571920Y-102819750D01*
X148566704Y-102798926D01*
X148563554Y-102777691D01*
X148562501Y-102756250D01*
X148562501Y-102243750D01*
X148563554Y-102222309D01*
X148566704Y-102201074D01*
X148571920Y-102180250D01*
X148579152Y-102160038D01*
X148588331Y-102140632D01*
X148599367Y-102122219D01*
X148612155Y-102104976D01*
X148626571Y-102089070D01*
X148642477Y-102074654D01*
X148659720Y-102061866D01*
X148678133Y-102050830D01*
X148697539Y-102041651D01*
X148717751Y-102034419D01*
X148738575Y-102029203D01*
X148759810Y-102026053D01*
X148781251Y-102025000D01*
X149218751Y-102025000D01*
X149240192Y-102026053D01*
X149240192Y-102026053D01*
G37*
D15*
X149000001Y-102500000D03*
D14*
G36*
X149705142Y-81301174D02*
G01*
X149728803Y-81304684D01*
X149752007Y-81310496D01*
X149774529Y-81318554D01*
X149796153Y-81328782D01*
X149816670Y-81341079D01*
X149835883Y-81355329D01*
X149853607Y-81371393D01*
X149869671Y-81389117D01*
X149883921Y-81408330D01*
X149896218Y-81428847D01*
X149906446Y-81450471D01*
X149914504Y-81472993D01*
X149920316Y-81496197D01*
X149923826Y-81519858D01*
X149925000Y-81543750D01*
X149925000Y-82456250D01*
X149923826Y-82480142D01*
X149920316Y-82503803D01*
X149914504Y-82527007D01*
X149906446Y-82549529D01*
X149896218Y-82571153D01*
X149883921Y-82591670D01*
X149869671Y-82610883D01*
X149853607Y-82628607D01*
X149835883Y-82644671D01*
X149816670Y-82658921D01*
X149796153Y-82671218D01*
X149774529Y-82681446D01*
X149752007Y-82689504D01*
X149728803Y-82695316D01*
X149705142Y-82698826D01*
X149681250Y-82700000D01*
X149193750Y-82700000D01*
X149169858Y-82698826D01*
X149146197Y-82695316D01*
X149122993Y-82689504D01*
X149100471Y-82681446D01*
X149078847Y-82671218D01*
X149058330Y-82658921D01*
X149039117Y-82644671D01*
X149021393Y-82628607D01*
X149005329Y-82610883D01*
X148991079Y-82591670D01*
X148978782Y-82571153D01*
X148968554Y-82549529D01*
X148960496Y-82527007D01*
X148954684Y-82503803D01*
X148951174Y-82480142D01*
X148950000Y-82456250D01*
X148950000Y-81543750D01*
X148951174Y-81519858D01*
X148954684Y-81496197D01*
X148960496Y-81472993D01*
X148968554Y-81450471D01*
X148978782Y-81428847D01*
X148991079Y-81408330D01*
X149005329Y-81389117D01*
X149021393Y-81371393D01*
X149039117Y-81355329D01*
X149058330Y-81341079D01*
X149078847Y-81328782D01*
X149100471Y-81318554D01*
X149122993Y-81310496D01*
X149146197Y-81304684D01*
X149169858Y-81301174D01*
X149193750Y-81300000D01*
X149681250Y-81300000D01*
X149705142Y-81301174D01*
X149705142Y-81301174D01*
G37*
D16*
X149437500Y-82000000D03*
D14*
G36*
X147830142Y-81301174D02*
G01*
X147853803Y-81304684D01*
X147877007Y-81310496D01*
X147899529Y-81318554D01*
X147921153Y-81328782D01*
X147941670Y-81341079D01*
X147960883Y-81355329D01*
X147978607Y-81371393D01*
X147994671Y-81389117D01*
X148008921Y-81408330D01*
X148021218Y-81428847D01*
X148031446Y-81450471D01*
X148039504Y-81472993D01*
X148045316Y-81496197D01*
X148048826Y-81519858D01*
X148050000Y-81543750D01*
X148050000Y-82456250D01*
X148048826Y-82480142D01*
X148045316Y-82503803D01*
X148039504Y-82527007D01*
X148031446Y-82549529D01*
X148021218Y-82571153D01*
X148008921Y-82591670D01*
X147994671Y-82610883D01*
X147978607Y-82628607D01*
X147960883Y-82644671D01*
X147941670Y-82658921D01*
X147921153Y-82671218D01*
X147899529Y-82681446D01*
X147877007Y-82689504D01*
X147853803Y-82695316D01*
X147830142Y-82698826D01*
X147806250Y-82700000D01*
X147318750Y-82700000D01*
X147294858Y-82698826D01*
X147271197Y-82695316D01*
X147247993Y-82689504D01*
X147225471Y-82681446D01*
X147203847Y-82671218D01*
X147183330Y-82658921D01*
X147164117Y-82644671D01*
X147146393Y-82628607D01*
X147130329Y-82610883D01*
X147116079Y-82591670D01*
X147103782Y-82571153D01*
X147093554Y-82549529D01*
X147085496Y-82527007D01*
X147079684Y-82503803D01*
X147076174Y-82480142D01*
X147075000Y-82456250D01*
X147075000Y-81543750D01*
X147076174Y-81519858D01*
X147079684Y-81496197D01*
X147085496Y-81472993D01*
X147093554Y-81450471D01*
X147103782Y-81428847D01*
X147116079Y-81408330D01*
X147130329Y-81389117D01*
X147146393Y-81371393D01*
X147164117Y-81355329D01*
X147183330Y-81341079D01*
X147203847Y-81328782D01*
X147225471Y-81318554D01*
X147247993Y-81310496D01*
X147271197Y-81304684D01*
X147294858Y-81301174D01*
X147318750Y-81300000D01*
X147806250Y-81300000D01*
X147830142Y-81301174D01*
X147830142Y-81301174D01*
G37*
D16*
X147562500Y-82000000D03*
D14*
G36*
X154960142Y-99191174D02*
G01*
X154983803Y-99194684D01*
X155007007Y-99200496D01*
X155029529Y-99208554D01*
X155051153Y-99218782D01*
X155071670Y-99231079D01*
X155090883Y-99245329D01*
X155108607Y-99261393D01*
X155124671Y-99279117D01*
X155138921Y-99298330D01*
X155151218Y-99318847D01*
X155161446Y-99340471D01*
X155169504Y-99362993D01*
X155175316Y-99386197D01*
X155178826Y-99409858D01*
X155180000Y-99433750D01*
X155180000Y-100346250D01*
X155178826Y-100370142D01*
X155175316Y-100393803D01*
X155169504Y-100417007D01*
X155161446Y-100439529D01*
X155151218Y-100461153D01*
X155138921Y-100481670D01*
X155124671Y-100500883D01*
X155108607Y-100518607D01*
X155090883Y-100534671D01*
X155071670Y-100548921D01*
X155051153Y-100561218D01*
X155029529Y-100571446D01*
X155007007Y-100579504D01*
X154983803Y-100585316D01*
X154960142Y-100588826D01*
X154936250Y-100590000D01*
X154448750Y-100590000D01*
X154424858Y-100588826D01*
X154401197Y-100585316D01*
X154377993Y-100579504D01*
X154355471Y-100571446D01*
X154333847Y-100561218D01*
X154313330Y-100548921D01*
X154294117Y-100534671D01*
X154276393Y-100518607D01*
X154260329Y-100500883D01*
X154246079Y-100481670D01*
X154233782Y-100461153D01*
X154223554Y-100439529D01*
X154215496Y-100417007D01*
X154209684Y-100393803D01*
X154206174Y-100370142D01*
X154205000Y-100346250D01*
X154205000Y-99433750D01*
X154206174Y-99409858D01*
X154209684Y-99386197D01*
X154215496Y-99362993D01*
X154223554Y-99340471D01*
X154233782Y-99318847D01*
X154246079Y-99298330D01*
X154260329Y-99279117D01*
X154276393Y-99261393D01*
X154294117Y-99245329D01*
X154313330Y-99231079D01*
X154333847Y-99218782D01*
X154355471Y-99208554D01*
X154377993Y-99200496D01*
X154401197Y-99194684D01*
X154424858Y-99191174D01*
X154448750Y-99190000D01*
X154936250Y-99190000D01*
X154960142Y-99191174D01*
X154960142Y-99191174D01*
G37*
D16*
X154692500Y-99890000D03*
D14*
G36*
X156835142Y-99191174D02*
G01*
X156858803Y-99194684D01*
X156882007Y-99200496D01*
X156904529Y-99208554D01*
X156926153Y-99218782D01*
X156946670Y-99231079D01*
X156965883Y-99245329D01*
X156983607Y-99261393D01*
X156999671Y-99279117D01*
X157013921Y-99298330D01*
X157026218Y-99318847D01*
X157036446Y-99340471D01*
X157044504Y-99362993D01*
X157050316Y-99386197D01*
X157053826Y-99409858D01*
X157055000Y-99433750D01*
X157055000Y-100346250D01*
X157053826Y-100370142D01*
X157050316Y-100393803D01*
X157044504Y-100417007D01*
X157036446Y-100439529D01*
X157026218Y-100461153D01*
X157013921Y-100481670D01*
X156999671Y-100500883D01*
X156983607Y-100518607D01*
X156965883Y-100534671D01*
X156946670Y-100548921D01*
X156926153Y-100561218D01*
X156904529Y-100571446D01*
X156882007Y-100579504D01*
X156858803Y-100585316D01*
X156835142Y-100588826D01*
X156811250Y-100590000D01*
X156323750Y-100590000D01*
X156299858Y-100588826D01*
X156276197Y-100585316D01*
X156252993Y-100579504D01*
X156230471Y-100571446D01*
X156208847Y-100561218D01*
X156188330Y-100548921D01*
X156169117Y-100534671D01*
X156151393Y-100518607D01*
X156135329Y-100500883D01*
X156121079Y-100481670D01*
X156108782Y-100461153D01*
X156098554Y-100439529D01*
X156090496Y-100417007D01*
X156084684Y-100393803D01*
X156081174Y-100370142D01*
X156080000Y-100346250D01*
X156080000Y-99433750D01*
X156081174Y-99409858D01*
X156084684Y-99386197D01*
X156090496Y-99362993D01*
X156098554Y-99340471D01*
X156108782Y-99318847D01*
X156121079Y-99298330D01*
X156135329Y-99279117D01*
X156151393Y-99261393D01*
X156169117Y-99245329D01*
X156188330Y-99231079D01*
X156208847Y-99218782D01*
X156230471Y-99208554D01*
X156252993Y-99200496D01*
X156276197Y-99194684D01*
X156299858Y-99191174D01*
X156323750Y-99190000D01*
X156811250Y-99190000D01*
X156835142Y-99191174D01*
X156835142Y-99191174D01*
G37*
D16*
X156567500Y-99890000D03*
D14*
G36*
X149835142Y-94191174D02*
G01*
X149858803Y-94194684D01*
X149882007Y-94200496D01*
X149904529Y-94208554D01*
X149926153Y-94218782D01*
X149946670Y-94231079D01*
X149965883Y-94245329D01*
X149983607Y-94261393D01*
X149999671Y-94279117D01*
X150013921Y-94298330D01*
X150026218Y-94318847D01*
X150036446Y-94340471D01*
X150044504Y-94362993D01*
X150050316Y-94386197D01*
X150053826Y-94409858D01*
X150055000Y-94433750D01*
X150055000Y-95346250D01*
X150053826Y-95370142D01*
X150050316Y-95393803D01*
X150044504Y-95417007D01*
X150036446Y-95439529D01*
X150026218Y-95461153D01*
X150013921Y-95481670D01*
X149999671Y-95500883D01*
X149983607Y-95518607D01*
X149965883Y-95534671D01*
X149946670Y-95548921D01*
X149926153Y-95561218D01*
X149904529Y-95571446D01*
X149882007Y-95579504D01*
X149858803Y-95585316D01*
X149835142Y-95588826D01*
X149811250Y-95590000D01*
X149323750Y-95590000D01*
X149299858Y-95588826D01*
X149276197Y-95585316D01*
X149252993Y-95579504D01*
X149230471Y-95571446D01*
X149208847Y-95561218D01*
X149188330Y-95548921D01*
X149169117Y-95534671D01*
X149151393Y-95518607D01*
X149135329Y-95500883D01*
X149121079Y-95481670D01*
X149108782Y-95461153D01*
X149098554Y-95439529D01*
X149090496Y-95417007D01*
X149084684Y-95393803D01*
X149081174Y-95370142D01*
X149080000Y-95346250D01*
X149080000Y-94433750D01*
X149081174Y-94409858D01*
X149084684Y-94386197D01*
X149090496Y-94362993D01*
X149098554Y-94340471D01*
X149108782Y-94318847D01*
X149121079Y-94298330D01*
X149135329Y-94279117D01*
X149151393Y-94261393D01*
X149169117Y-94245329D01*
X149188330Y-94231079D01*
X149208847Y-94218782D01*
X149230471Y-94208554D01*
X149252993Y-94200496D01*
X149276197Y-94194684D01*
X149299858Y-94191174D01*
X149323750Y-94190000D01*
X149811250Y-94190000D01*
X149835142Y-94191174D01*
X149835142Y-94191174D01*
G37*
D16*
X149567500Y-94890000D03*
D14*
G36*
X147960142Y-94191174D02*
G01*
X147983803Y-94194684D01*
X148007007Y-94200496D01*
X148029529Y-94208554D01*
X148051153Y-94218782D01*
X148071670Y-94231079D01*
X148090883Y-94245329D01*
X148108607Y-94261393D01*
X148124671Y-94279117D01*
X148138921Y-94298330D01*
X148151218Y-94318847D01*
X148161446Y-94340471D01*
X148169504Y-94362993D01*
X148175316Y-94386197D01*
X148178826Y-94409858D01*
X148180000Y-94433750D01*
X148180000Y-95346250D01*
X148178826Y-95370142D01*
X148175316Y-95393803D01*
X148169504Y-95417007D01*
X148161446Y-95439529D01*
X148151218Y-95461153D01*
X148138921Y-95481670D01*
X148124671Y-95500883D01*
X148108607Y-95518607D01*
X148090883Y-95534671D01*
X148071670Y-95548921D01*
X148051153Y-95561218D01*
X148029529Y-95571446D01*
X148007007Y-95579504D01*
X147983803Y-95585316D01*
X147960142Y-95588826D01*
X147936250Y-95590000D01*
X147448750Y-95590000D01*
X147424858Y-95588826D01*
X147401197Y-95585316D01*
X147377993Y-95579504D01*
X147355471Y-95571446D01*
X147333847Y-95561218D01*
X147313330Y-95548921D01*
X147294117Y-95534671D01*
X147276393Y-95518607D01*
X147260329Y-95500883D01*
X147246079Y-95481670D01*
X147233782Y-95461153D01*
X147223554Y-95439529D01*
X147215496Y-95417007D01*
X147209684Y-95393803D01*
X147206174Y-95370142D01*
X147205000Y-95346250D01*
X147205000Y-94433750D01*
X147206174Y-94409858D01*
X147209684Y-94386197D01*
X147215496Y-94362993D01*
X147223554Y-94340471D01*
X147233782Y-94318847D01*
X147246079Y-94298330D01*
X147260329Y-94279117D01*
X147276393Y-94261393D01*
X147294117Y-94245329D01*
X147313330Y-94231079D01*
X147333847Y-94218782D01*
X147355471Y-94208554D01*
X147377993Y-94200496D01*
X147401197Y-94194684D01*
X147424858Y-94191174D01*
X147448750Y-94190000D01*
X147936250Y-94190000D01*
X147960142Y-94191174D01*
X147960142Y-94191174D01*
G37*
D16*
X147692500Y-94890000D03*
D17*
X163410821Y-135965623D03*
D14*
G36*
X164134816Y-135564585D02*
G01*
X163253138Y-136778111D01*
X162686826Y-136366661D01*
X163568504Y-135153135D01*
X164134816Y-135564585D01*
X164134816Y-135564585D01*
G37*
D17*
X160983770Y-134202267D03*
D14*
G36*
X161707765Y-133801229D02*
G01*
X160826087Y-135014755D01*
X160259775Y-134603305D01*
X161141453Y-133389779D01*
X161707765Y-133801229D01*
X161707765Y-133801229D01*
G37*
D17*
X159770245Y-133320589D03*
D14*
G36*
X160494240Y-132919551D02*
G01*
X159612562Y-134133077D01*
X159046250Y-133721627D01*
X159927928Y-132508101D01*
X160494240Y-132919551D01*
X160494240Y-132919551D01*
G37*
D18*
X162862379Y-139102310D03*
D14*
G36*
X163502002Y-139072596D02*
G01*
X163031773Y-139719809D01*
X162222756Y-139132024D01*
X162692985Y-138484811D01*
X163502002Y-139072596D01*
X163502002Y-139072596D01*
G37*
D18*
X156956555Y-134811478D03*
D14*
G36*
X157596178Y-134781764D02*
G01*
X157125949Y-135428977D01*
X156316932Y-134841192D01*
X156787161Y-134193979D01*
X157596178Y-134781764D01*
X157596178Y-134781764D01*
G37*
D18*
X158255560Y-133023551D03*
D14*
G36*
X158895183Y-132993837D02*
G01*
X158424954Y-133641050D01*
X157615937Y-133053265D01*
X158086166Y-132406052D01*
X158895183Y-132993837D01*
X158895183Y-132993837D01*
G37*
D18*
X164161385Y-137314383D03*
D14*
G36*
X164801008Y-137284669D02*
G01*
X164330779Y-137931882D01*
X163521762Y-137344097D01*
X163991991Y-136696884D01*
X164801008Y-137284669D01*
X164801008Y-137284669D01*
G37*
D19*
X152150000Y-86895000D03*
X152150000Y-88165000D03*
X152150000Y-89435000D03*
X152150000Y-90705000D03*
X144850000Y-90705000D03*
X144850000Y-89435000D03*
X144850000Y-88165000D03*
X144850000Y-86895000D03*
M02*
