G04 #@! TF.GenerationSoftware,KiCad,Pcbnew,(5.1.2)-2*
G04 #@! TF.CreationDate,2019-11-11T22:41:20-05:00*
G04 #@! TF.ProjectId,LightStar_RevA,4c696768-7453-4746-9172-5f526576412e,rev?*
G04 #@! TF.SameCoordinates,Original*
G04 #@! TF.FileFunction,Copper,L1,Top*
G04 #@! TF.FilePolarity,Positive*
%FSLAX46Y46*%
G04 Gerber Fmt 4.6, Leading zero omitted, Abs format (unit mm)*
G04 Created by KiCad (PCBNEW (5.1.2)-2) date 2019-11-11 22:41:20*
%MOMM*%
%LPD*%
G04 APERTURE LIST*
%ADD10R,1.800000X1.800000*%
%ADD11C,1.800000*%
%ADD12C,2.000000*%
%ADD13R,2.000000X2.000000*%
%ADD14C,0.800000*%
%ADD15C,0.450000*%
%ADD16C,0.400000*%
G04 APERTURE END LIST*
D10*
X147250000Y-109000000D03*
D11*
X149790000Y-109000000D03*
X129190000Y-137300000D03*
D10*
X126650000Y-137300000D03*
X113950000Y-98200000D03*
D11*
X116490000Y-98200000D03*
X149790000Y-74000000D03*
D10*
X147250000Y-74000000D03*
X180500000Y-98200000D03*
D11*
X183040000Y-98200000D03*
X170340000Y-137300000D03*
D10*
X167800000Y-137300000D03*
D12*
X151040000Y-98850000D03*
D13*
X148500000Y-98850000D03*
D12*
X145960000Y-98850000D03*
D14*
X148630000Y-92890000D03*
X149230000Y-88990000D03*
X150130000Y-89890000D03*
X180530000Y-96290000D03*
X117830000Y-96370000D03*
X183490000Y-100530000D03*
X148510000Y-71050000D03*
X147130000Y-91390000D03*
X147630000Y-88890000D03*
D15*
X148630000Y-89590000D02*
X148630000Y-92890000D01*
X149230000Y-88990000D02*
X148630000Y-89590000D01*
X150130000Y-97220000D02*
X148500000Y-98850000D01*
X150130000Y-89890000D02*
X150130000Y-96290000D01*
X150130000Y-96290000D02*
X150130000Y-97220000D01*
X180530000Y-96290000D02*
X150130000Y-96290000D01*
X113950000Y-98200000D02*
X115382661Y-96308887D01*
X115382661Y-96308887D02*
X117830000Y-96370000D01*
X180500000Y-98200000D02*
X183490000Y-100530000D01*
X149790000Y-74000000D02*
X148510000Y-71050000D01*
X147130000Y-89390000D02*
X147630000Y-88890000D01*
X147130000Y-89390000D02*
X147130000Y-91390000D01*
D16*
G36*
X159837715Y-91835540D02*
G01*
X159842761Y-91847076D01*
X159866064Y-91909737D01*
X159882585Y-91943610D01*
X159896712Y-91978577D01*
X159900646Y-91985973D01*
X159993472Y-92157650D01*
X160023854Y-92202694D01*
X160053656Y-92248236D01*
X160058951Y-92254727D01*
X160183354Y-92405106D01*
X160221936Y-92443419D01*
X160259990Y-92482279D01*
X160266445Y-92487618D01*
X160417688Y-92610969D01*
X160462932Y-92641029D01*
X160507853Y-92671787D01*
X160515222Y-92675771D01*
X160687544Y-92767396D01*
X160737780Y-92788102D01*
X160787806Y-92809543D01*
X160795808Y-92812020D01*
X160982644Y-92868429D01*
X161035972Y-92878988D01*
X161089181Y-92890298D01*
X161097504Y-92891172D01*
X161097514Y-92891174D01*
X161097523Y-92891174D01*
X161291746Y-92910218D01*
X161320824Y-92913082D01*
X195738612Y-92913082D01*
X195707595Y-92987963D01*
X195664761Y-93203303D01*
X195664761Y-93422861D01*
X195707595Y-93638201D01*
X195791616Y-93841046D01*
X195913596Y-94023602D01*
X196068848Y-94178854D01*
X196172725Y-94248262D01*
X168327918Y-114478699D01*
X168318537Y-114487036D01*
X168266110Y-114528588D01*
X168238991Y-114554776D01*
X168210112Y-114579009D01*
X168204293Y-114585035D01*
X168069703Y-114726369D01*
X168036226Y-114769218D01*
X168002148Y-114811602D01*
X167997610Y-114818644D01*
X167893035Y-114983428D01*
X167868525Y-115031950D01*
X167843321Y-115080160D01*
X167840240Y-115087944D01*
X167840237Y-115087950D01*
X167840235Y-115087956D01*
X167769661Y-115269907D01*
X167755043Y-115322262D01*
X167739682Y-115374454D01*
X167738170Y-115382694D01*
X167704280Y-115574895D01*
X167700111Y-115629079D01*
X167695179Y-115683274D01*
X167695297Y-115691651D01*
X167699385Y-115886774D01*
X167705816Y-115940710D01*
X167711507Y-115994853D01*
X167713249Y-116003043D01*
X167713250Y-116003050D01*
X167713252Y-116003056D01*
X167755159Y-116193660D01*
X167755162Y-116193669D01*
X167761421Y-116222196D01*
X178709648Y-149917378D01*
X178732621Y-150021864D01*
X178734244Y-150099350D01*
X178720785Y-150175678D01*
X178692757Y-150247938D01*
X178651228Y-150313377D01*
X178597777Y-150369506D01*
X178534446Y-150414181D01*
X178463643Y-150445705D01*
X178388064Y-150462876D01*
X178310588Y-150465039D01*
X178234171Y-150452114D01*
X178157765Y-150423090D01*
X178082825Y-150377705D01*
X159470538Y-136855086D01*
X160819556Y-136855086D01*
X160819556Y-137042220D01*
X160856064Y-137225758D01*
X160927677Y-137398647D01*
X161031643Y-137554243D01*
X161163966Y-137686566D01*
X161319562Y-137790532D01*
X161492451Y-137862145D01*
X161675989Y-137898653D01*
X161863123Y-137898653D01*
X162046661Y-137862145D01*
X162219550Y-137790532D01*
X162375146Y-137686566D01*
X162507469Y-137554243D01*
X162611435Y-137398647D01*
X162683048Y-137225758D01*
X162719556Y-137042220D01*
X162719556Y-136855086D01*
X162683048Y-136671548D01*
X162611435Y-136498659D01*
X162545514Y-136400000D01*
X166397581Y-136400000D01*
X166397581Y-138200000D01*
X166407235Y-138298017D01*
X166435825Y-138392267D01*
X166482254Y-138479129D01*
X166544736Y-138555264D01*
X166620871Y-138617746D01*
X166707733Y-138664175D01*
X166801983Y-138692765D01*
X166900000Y-138702419D01*
X168700000Y-138702419D01*
X168798017Y-138692765D01*
X168892267Y-138664175D01*
X168979129Y-138617746D01*
X169055264Y-138555264D01*
X169117746Y-138479129D01*
X169164175Y-138392267D01*
X169192765Y-138298017D01*
X169202419Y-138200000D01*
X169202419Y-138117423D01*
X169252549Y-138192448D01*
X169447552Y-138387451D01*
X169676851Y-138540664D01*
X169931635Y-138646199D01*
X170202112Y-138700000D01*
X170477888Y-138700000D01*
X170748365Y-138646199D01*
X171003149Y-138540664D01*
X171232448Y-138387451D01*
X171427451Y-138192448D01*
X171580664Y-137963149D01*
X171686199Y-137708365D01*
X171740000Y-137437888D01*
X171740000Y-137162112D01*
X171686199Y-136891635D01*
X171580664Y-136636851D01*
X171427451Y-136407552D01*
X171232448Y-136212549D01*
X171003149Y-136059336D01*
X170748365Y-135953801D01*
X170477888Y-135900000D01*
X170202112Y-135900000D01*
X169931635Y-135953801D01*
X169676851Y-136059336D01*
X169447552Y-136212549D01*
X169252549Y-136407552D01*
X169202419Y-136482577D01*
X169202419Y-136400000D01*
X169192765Y-136301983D01*
X169164175Y-136207733D01*
X169117746Y-136120871D01*
X169055264Y-136044736D01*
X168979129Y-135982254D01*
X168892267Y-135935825D01*
X168798017Y-135907235D01*
X168700000Y-135897581D01*
X166900000Y-135897581D01*
X166801983Y-135907235D01*
X166707733Y-135935825D01*
X166620871Y-135982254D01*
X166544736Y-136044736D01*
X166482254Y-136120871D01*
X166435825Y-136207733D01*
X166407235Y-136301983D01*
X166397581Y-136400000D01*
X162545514Y-136400000D01*
X162507469Y-136343063D01*
X162375146Y-136210740D01*
X162219550Y-136106774D01*
X162046661Y-136035161D01*
X161863123Y-135998653D01*
X161675989Y-135998653D01*
X161492451Y-136035161D01*
X161319562Y-136106774D01*
X161163966Y-136210740D01*
X161031643Y-136343063D01*
X160927677Y-136498659D01*
X160856064Y-136671548D01*
X160819556Y-136855086D01*
X159470538Y-136855086D01*
X157043488Y-135091731D01*
X158392505Y-135091731D01*
X158392505Y-135278865D01*
X158429013Y-135462403D01*
X158500626Y-135635292D01*
X158604592Y-135790888D01*
X158736915Y-135923211D01*
X158892511Y-136027177D01*
X159065400Y-136098790D01*
X159248938Y-136135298D01*
X159436072Y-136135298D01*
X159619610Y-136098790D01*
X159792499Y-136027177D01*
X159948095Y-135923211D01*
X160080418Y-135790888D01*
X160184384Y-135635292D01*
X160255997Y-135462403D01*
X160292505Y-135278865D01*
X160292505Y-135091731D01*
X160255997Y-134908193D01*
X160184384Y-134735304D01*
X160080418Y-134579708D01*
X159948095Y-134447385D01*
X159792499Y-134343419D01*
X159619610Y-134271806D01*
X159436072Y-134235298D01*
X159248938Y-134235298D01*
X159065400Y-134271806D01*
X158892511Y-134343419D01*
X158736915Y-134447385D01*
X158604592Y-134579708D01*
X158500626Y-134735304D01*
X158429013Y-134908193D01*
X158392505Y-135091731D01*
X157043488Y-135091731D01*
X149416611Y-129550481D01*
X149405746Y-129544113D01*
X149350061Y-129507116D01*
X149316786Y-129489423D01*
X149284807Y-129469441D01*
X149277278Y-129465769D01*
X149101270Y-129381441D01*
X149050220Y-129362861D01*
X148999335Y-129343531D01*
X148991235Y-129341391D01*
X148802201Y-129292855D01*
X148748503Y-129284543D01*
X148694841Y-129275466D01*
X148686480Y-129274941D01*
X148491620Y-129264046D01*
X148437331Y-129266321D01*
X148382924Y-129267841D01*
X148374620Y-129268949D01*
X148181354Y-129296111D01*
X148128518Y-129308893D01*
X148075467Y-129320946D01*
X148067547Y-129323644D01*
X148067537Y-129323646D01*
X148067528Y-129323650D01*
X147883227Y-129387831D01*
X147833922Y-129410613D01*
X147784183Y-129432758D01*
X147776928Y-129436947D01*
X147609614Y-129535110D01*
X147583388Y-129550481D01*
X118920569Y-150375240D01*
X118828283Y-150429384D01*
X118755093Y-150454871D01*
X118678340Y-150465658D01*
X118600954Y-150461332D01*
X118525884Y-150442057D01*
X118455988Y-150408569D01*
X118393927Y-150362141D01*
X118342070Y-150304548D01*
X118302380Y-150237968D01*
X118276382Y-150164956D01*
X118265060Y-150088286D01*
X118269053Y-150006647D01*
X118289056Y-149921364D01*
X122682413Y-136400000D01*
X125247581Y-136400000D01*
X125247581Y-138200000D01*
X125257235Y-138298017D01*
X125285825Y-138392267D01*
X125332254Y-138479129D01*
X125394736Y-138555264D01*
X125470871Y-138617746D01*
X125557733Y-138664175D01*
X125651983Y-138692765D01*
X125750000Y-138702419D01*
X127550000Y-138702419D01*
X127648017Y-138692765D01*
X127742267Y-138664175D01*
X127829129Y-138617746D01*
X127905264Y-138555264D01*
X127967746Y-138479129D01*
X128014175Y-138392267D01*
X128042765Y-138298017D01*
X128052419Y-138200000D01*
X128052419Y-138117423D01*
X128102549Y-138192448D01*
X128297552Y-138387451D01*
X128526851Y-138540664D01*
X128781635Y-138646199D01*
X129052112Y-138700000D01*
X129327888Y-138700000D01*
X129598365Y-138646199D01*
X129853149Y-138540664D01*
X130082448Y-138387451D01*
X130277451Y-138192448D01*
X130430664Y-137963149D01*
X130536199Y-137708365D01*
X130590000Y-137437888D01*
X130590000Y-137162112D01*
X130536199Y-136891635D01*
X130430664Y-136636851D01*
X130277451Y-136407552D01*
X130082448Y-136212549D01*
X129853149Y-136059336D01*
X129598365Y-135953801D01*
X129327888Y-135900000D01*
X129052112Y-135900000D01*
X128781635Y-135953801D01*
X128526851Y-136059336D01*
X128297552Y-136212549D01*
X128102549Y-136407552D01*
X128052419Y-136482577D01*
X128052419Y-136400000D01*
X128042765Y-136301983D01*
X128014175Y-136207733D01*
X127967746Y-136120871D01*
X127905264Y-136044736D01*
X127829129Y-135982254D01*
X127742267Y-135935825D01*
X127648017Y-135907235D01*
X127550000Y-135897581D01*
X125750000Y-135897581D01*
X125651983Y-135907235D01*
X125557733Y-135935825D01*
X125470871Y-135982254D01*
X125394736Y-136044736D01*
X125332254Y-136120871D01*
X125285825Y-136207733D01*
X125257235Y-136301983D01*
X125247581Y-136400000D01*
X122682413Y-136400000D01*
X129238579Y-116222197D01*
X129241278Y-116209895D01*
X129259257Y-116145501D01*
X129265801Y-116108386D01*
X129274923Y-116071801D01*
X129276088Y-116063505D01*
X129301900Y-115870053D01*
X129303797Y-115815743D01*
X129306455Y-115761387D01*
X129305987Y-115753023D01*
X129293732Y-115558243D01*
X129285040Y-115504574D01*
X129277094Y-115450766D01*
X129275010Y-115442653D01*
X129275010Y-115442650D01*
X129275007Y-115442643D01*
X129225156Y-115253961D01*
X129206213Y-115203023D01*
X129187958Y-115151759D01*
X129184338Y-115144204D01*
X129098783Y-114968791D01*
X129070298Y-114922489D01*
X129042444Y-114875764D01*
X129037426Y-114869056D01*
X128919429Y-114713601D01*
X128882501Y-114673722D01*
X128846090Y-114633284D01*
X128839864Y-114627679D01*
X128694551Y-114498665D01*
X128672081Y-114478698D01*
X119892557Y-108100000D01*
X145847581Y-108100000D01*
X145847581Y-109900000D01*
X145857235Y-109998017D01*
X145885825Y-110092267D01*
X145932254Y-110179129D01*
X145994736Y-110255264D01*
X146070871Y-110317746D01*
X146157733Y-110364175D01*
X146251983Y-110392765D01*
X146350000Y-110402419D01*
X148150000Y-110402419D01*
X148248017Y-110392765D01*
X148342267Y-110364175D01*
X148429129Y-110317746D01*
X148505264Y-110255264D01*
X148567746Y-110179129D01*
X148614175Y-110092267D01*
X148642765Y-109998017D01*
X148652419Y-109900000D01*
X148652419Y-109817423D01*
X148702549Y-109892448D01*
X148897552Y-110087451D01*
X149126851Y-110240664D01*
X149381635Y-110346199D01*
X149652112Y-110400000D01*
X149927888Y-110400000D01*
X150198365Y-110346199D01*
X150453149Y-110240664D01*
X150682448Y-110087451D01*
X150877451Y-109892448D01*
X151030664Y-109663149D01*
X151136199Y-109408365D01*
X151190000Y-109137888D01*
X151190000Y-108862112D01*
X151136199Y-108591635D01*
X151030664Y-108336851D01*
X150877451Y-108107552D01*
X150682448Y-107912549D01*
X150453149Y-107759336D01*
X150198365Y-107653801D01*
X149927888Y-107600000D01*
X149652112Y-107600000D01*
X149381635Y-107653801D01*
X149126851Y-107759336D01*
X148897552Y-107912549D01*
X148702549Y-108107552D01*
X148652419Y-108182577D01*
X148652419Y-108100000D01*
X148642765Y-108001983D01*
X148614175Y-107907733D01*
X148567746Y-107820871D01*
X148505264Y-107744736D01*
X148429129Y-107682254D01*
X148342267Y-107635825D01*
X148248017Y-107607235D01*
X148150000Y-107597581D01*
X146350000Y-107597581D01*
X146251983Y-107607235D01*
X146157733Y-107635825D01*
X146070871Y-107682254D01*
X145994736Y-107744736D01*
X145932254Y-107820871D01*
X145885825Y-107907733D01*
X145857235Y-108001983D01*
X145847581Y-108100000D01*
X119892557Y-108100000D01*
X105027632Y-97300000D01*
X112547581Y-97300000D01*
X112547581Y-99100000D01*
X112557235Y-99198017D01*
X112585825Y-99292267D01*
X112632254Y-99379129D01*
X112694736Y-99455264D01*
X112770871Y-99517746D01*
X112857733Y-99564175D01*
X112951983Y-99592765D01*
X113050000Y-99602419D01*
X114850000Y-99602419D01*
X114948017Y-99592765D01*
X115042267Y-99564175D01*
X115129129Y-99517746D01*
X115205264Y-99455264D01*
X115267746Y-99379129D01*
X115314175Y-99292267D01*
X115342765Y-99198017D01*
X115352419Y-99100000D01*
X115352419Y-99017423D01*
X115402549Y-99092448D01*
X115597552Y-99287451D01*
X115826851Y-99440664D01*
X116081635Y-99546199D01*
X116352112Y-99600000D01*
X116627888Y-99600000D01*
X116898365Y-99546199D01*
X117153149Y-99440664D01*
X117382448Y-99287451D01*
X117577451Y-99092448D01*
X117730664Y-98863149D01*
X117797305Y-98702263D01*
X144460000Y-98702263D01*
X144460000Y-98997737D01*
X144517644Y-99287534D01*
X144630717Y-99560517D01*
X144794874Y-99806194D01*
X145003806Y-100015126D01*
X145249483Y-100179283D01*
X145522466Y-100292356D01*
X145812263Y-100350000D01*
X146107737Y-100350000D01*
X146397534Y-100292356D01*
X146670517Y-100179283D01*
X146916194Y-100015126D01*
X146921487Y-100009833D01*
X146942990Y-100080721D01*
X146998704Y-100184955D01*
X147073683Y-100276317D01*
X147165045Y-100351296D01*
X147269279Y-100407010D01*
X147382379Y-100441318D01*
X147500000Y-100452903D01*
X148300000Y-100450000D01*
X148450000Y-100300000D01*
X148450000Y-98900000D01*
X148430000Y-98900000D01*
X148430000Y-98800000D01*
X148450000Y-98800000D01*
X148450000Y-97400000D01*
X148550000Y-97400000D01*
X148550000Y-98800000D01*
X148570000Y-98800000D01*
X148570000Y-98900000D01*
X148550000Y-98900000D01*
X148550000Y-100300000D01*
X148700000Y-100450000D01*
X149500000Y-100452903D01*
X149617621Y-100441318D01*
X149730721Y-100407010D01*
X149834955Y-100351296D01*
X149926317Y-100276317D01*
X150001296Y-100184955D01*
X150057010Y-100080721D01*
X150078513Y-100009833D01*
X150083806Y-100015126D01*
X150329483Y-100179283D01*
X150602466Y-100292356D01*
X150892263Y-100350000D01*
X151187737Y-100350000D01*
X151477534Y-100292356D01*
X151750517Y-100179283D01*
X151996194Y-100015126D01*
X152205126Y-99806194D01*
X152369283Y-99560517D01*
X152482356Y-99287534D01*
X152540000Y-98997737D01*
X152540000Y-98702263D01*
X152482356Y-98412466D01*
X152369283Y-98139483D01*
X152205126Y-97893806D01*
X151996194Y-97684874D01*
X151750517Y-97520717D01*
X151477534Y-97407644D01*
X151187737Y-97350000D01*
X150892263Y-97350000D01*
X150602466Y-97407644D01*
X150329483Y-97520717D01*
X150083806Y-97684874D01*
X150078513Y-97690167D01*
X150057010Y-97619279D01*
X150001296Y-97515045D01*
X149926317Y-97423683D01*
X149834955Y-97348704D01*
X149743836Y-97300000D01*
X179097581Y-97300000D01*
X179097581Y-99100000D01*
X179107235Y-99198017D01*
X179135825Y-99292267D01*
X179182254Y-99379129D01*
X179244736Y-99455264D01*
X179320871Y-99517746D01*
X179407733Y-99564175D01*
X179501983Y-99592765D01*
X179600000Y-99602419D01*
X181120179Y-99602419D01*
X182620403Y-100771491D01*
X182624586Y-100792520D01*
X182692430Y-100956310D01*
X182790924Y-101103717D01*
X182916283Y-101229076D01*
X183063690Y-101327570D01*
X183227480Y-101395414D01*
X183401358Y-101430000D01*
X183578642Y-101430000D01*
X183752520Y-101395414D01*
X183916310Y-101327570D01*
X184063717Y-101229076D01*
X184189076Y-101103717D01*
X184287570Y-100956310D01*
X184355414Y-100792520D01*
X184390000Y-100618642D01*
X184390000Y-100441358D01*
X184355414Y-100267480D01*
X184287570Y-100103690D01*
X184189076Y-99956283D01*
X184063717Y-99830924D01*
X183916310Y-99732430D01*
X183752520Y-99664586D01*
X183578642Y-99630000D01*
X183514557Y-99630000D01*
X183415426Y-99552751D01*
X183448365Y-99546199D01*
X183703149Y-99440664D01*
X183932448Y-99287451D01*
X184127451Y-99092448D01*
X184280664Y-98863149D01*
X184386199Y-98608365D01*
X184440000Y-98337888D01*
X184440000Y-98062112D01*
X184386199Y-97791635D01*
X184280664Y-97536851D01*
X184127451Y-97307552D01*
X183932448Y-97112549D01*
X183703149Y-96959336D01*
X183448365Y-96853801D01*
X183177888Y-96800000D01*
X182902112Y-96800000D01*
X182631635Y-96853801D01*
X182376851Y-96959336D01*
X182147552Y-97112549D01*
X181952549Y-97307552D01*
X181902419Y-97382577D01*
X181902419Y-97300000D01*
X181892765Y-97201983D01*
X181864175Y-97107733D01*
X181817746Y-97020871D01*
X181755264Y-96944736D01*
X181679129Y-96882254D01*
X181592267Y-96835825D01*
X181498017Y-96807235D01*
X181400000Y-96797581D01*
X179600000Y-96797581D01*
X179501983Y-96807235D01*
X179407733Y-96835825D01*
X179320871Y-96882254D01*
X179244736Y-96944736D01*
X179182254Y-97020871D01*
X179135825Y-97107733D01*
X179107235Y-97201983D01*
X179097581Y-97300000D01*
X149743836Y-97300000D01*
X149730721Y-97292990D01*
X149617621Y-97258682D01*
X149500000Y-97247097D01*
X148700000Y-97250000D01*
X148550000Y-97400000D01*
X148450000Y-97400000D01*
X148300000Y-97250000D01*
X147500000Y-97247097D01*
X147382379Y-97258682D01*
X147269279Y-97292990D01*
X147165045Y-97348704D01*
X147073683Y-97423683D01*
X146998704Y-97515045D01*
X146942990Y-97619279D01*
X146921487Y-97690167D01*
X146916194Y-97684874D01*
X146670517Y-97520717D01*
X146397534Y-97407644D01*
X146107737Y-97350000D01*
X145812263Y-97350000D01*
X145522466Y-97407644D01*
X145249483Y-97520717D01*
X145003806Y-97684874D01*
X144794874Y-97893806D01*
X144630717Y-98139483D01*
X144517644Y-98412466D01*
X144460000Y-98702263D01*
X117797305Y-98702263D01*
X117836199Y-98608365D01*
X117890000Y-98337888D01*
X117890000Y-98062112D01*
X117836199Y-97791635D01*
X117730664Y-97536851D01*
X117577451Y-97307552D01*
X117461354Y-97191455D01*
X117567480Y-97235414D01*
X117741358Y-97270000D01*
X117918642Y-97270000D01*
X118092520Y-97235414D01*
X118256310Y-97167570D01*
X118403717Y-97069076D01*
X118529076Y-96943717D01*
X118627570Y-96796310D01*
X118695414Y-96632520D01*
X118730000Y-96458642D01*
X118730000Y-96281358D01*
X118695414Y-96107480D01*
X118627570Y-95943690D01*
X118529076Y-95796283D01*
X118403717Y-95670924D01*
X118256310Y-95572430D01*
X118092520Y-95504586D01*
X117918642Y-95470000D01*
X117741358Y-95470000D01*
X117567480Y-95504586D01*
X117403690Y-95572430D01*
X117314677Y-95631906D01*
X115448840Y-95585314D01*
X115425823Y-95581660D01*
X115377615Y-95583536D01*
X115365164Y-95583225D01*
X115342055Y-95584920D01*
X115283119Y-95587213D01*
X115270924Y-95590136D01*
X115258417Y-95591053D01*
X115201583Y-95606755D01*
X115144241Y-95620499D01*
X115132849Y-95625746D01*
X115120762Y-95629085D01*
X115068108Y-95655561D01*
X115014524Y-95680239D01*
X115004367Y-95687613D01*
X114993172Y-95693242D01*
X114946708Y-95729471D01*
X114898954Y-95764139D01*
X114890432Y-95773351D01*
X114880549Y-95781057D01*
X114842048Y-95825653D01*
X114826270Y-95842708D01*
X114818725Y-95852667D01*
X114787223Y-95889156D01*
X114775737Y-95909412D01*
X114102882Y-96797581D01*
X113050000Y-96797581D01*
X112951983Y-96807235D01*
X112857733Y-96835825D01*
X112770871Y-96882254D01*
X112694736Y-96944736D01*
X112632254Y-97020871D01*
X112585825Y-97107733D01*
X112557235Y-97201983D01*
X112547581Y-97300000D01*
X105027632Y-97300000D01*
X100827275Y-94248262D01*
X100931152Y-94178854D01*
X101086404Y-94023602D01*
X101208384Y-93841046D01*
X101292405Y-93638201D01*
X101335239Y-93422861D01*
X101335239Y-93203303D01*
X101292405Y-92987963D01*
X101261388Y-92913082D01*
X135679176Y-92913082D01*
X135691694Y-92911849D01*
X135758504Y-92909049D01*
X135795835Y-92903803D01*
X135833441Y-92901173D01*
X135841691Y-92899718D01*
X136033650Y-92864487D01*
X136085883Y-92849510D01*
X136138404Y-92835240D01*
X136146214Y-92832210D01*
X136327674Y-92760365D01*
X136376011Y-92735523D01*
X136424752Y-92711328D01*
X136431825Y-92706839D01*
X136595875Y-92601116D01*
X136638478Y-92567349D01*
X136681579Y-92534157D01*
X136687645Y-92528380D01*
X136828036Y-92392806D01*
X136863253Y-92351425D01*
X136899101Y-92310477D01*
X136903930Y-92303631D01*
X137015314Y-92143371D01*
X137041841Y-92095907D01*
X137069036Y-92048803D01*
X137072439Y-92041160D01*
X137072443Y-92041152D01*
X137072446Y-92041144D01*
X137150577Y-91862307D01*
X137150581Y-91862296D01*
X137162284Y-91835540D01*
X137335850Y-91301358D01*
X146230000Y-91301358D01*
X146230000Y-91478642D01*
X146264586Y-91652520D01*
X146332430Y-91816310D01*
X146430924Y-91963717D01*
X146556283Y-92089076D01*
X146703690Y-92187570D01*
X146867480Y-92255414D01*
X147041358Y-92290000D01*
X147218642Y-92290000D01*
X147392520Y-92255414D01*
X147556310Y-92187570D01*
X147703717Y-92089076D01*
X147829076Y-91963717D01*
X147905001Y-91850087D01*
X147905001Y-92355080D01*
X147832430Y-92463690D01*
X147764586Y-92627480D01*
X147730000Y-92801358D01*
X147730000Y-92978642D01*
X147764586Y-93152520D01*
X147832430Y-93316310D01*
X147930924Y-93463717D01*
X148056283Y-93589076D01*
X148203690Y-93687570D01*
X148367480Y-93755414D01*
X148541358Y-93790000D01*
X148718642Y-93790000D01*
X148892520Y-93755414D01*
X149056310Y-93687570D01*
X149203717Y-93589076D01*
X149329076Y-93463717D01*
X149427570Y-93316310D01*
X149495414Y-93152520D01*
X149530000Y-92978642D01*
X149530000Y-92801358D01*
X149495414Y-92627480D01*
X149427570Y-92463690D01*
X149355000Y-92355081D01*
X149355000Y-89890304D01*
X149364408Y-89880897D01*
X149492520Y-89855414D01*
X149656310Y-89787570D01*
X149803717Y-89689076D01*
X149929076Y-89563717D01*
X150027570Y-89416310D01*
X150095414Y-89252520D01*
X150130000Y-89078642D01*
X150130000Y-88901358D01*
X150095414Y-88727480D01*
X150027570Y-88563690D01*
X149929076Y-88416283D01*
X149803717Y-88290924D01*
X149656310Y-88192430D01*
X149492520Y-88124586D01*
X149318642Y-88090000D01*
X149141358Y-88090000D01*
X148967480Y-88124586D01*
X148803690Y-88192430D01*
X148656283Y-88290924D01*
X148530924Y-88416283D01*
X148455000Y-88529912D01*
X148427570Y-88463690D01*
X148329076Y-88316283D01*
X148203717Y-88190924D01*
X148056310Y-88092430D01*
X147892520Y-88024586D01*
X147718642Y-87990000D01*
X147541358Y-87990000D01*
X147367480Y-88024586D01*
X147203690Y-88092430D01*
X147056283Y-88190924D01*
X146930924Y-88316283D01*
X146832430Y-88463690D01*
X146764586Y-88627480D01*
X146739103Y-88755593D01*
X146642523Y-88852173D01*
X146614868Y-88874869D01*
X146524269Y-88985264D01*
X146456947Y-89111213D01*
X146415491Y-89247876D01*
X146405000Y-89354394D01*
X146405000Y-89354403D01*
X146401494Y-89390000D01*
X146405000Y-89425597D01*
X146405001Y-90855080D01*
X146332430Y-90963690D01*
X146264586Y-91127480D01*
X146230000Y-91301358D01*
X137335850Y-91301358D01*
X143249830Y-73100000D01*
X145847581Y-73100000D01*
X145847581Y-74900000D01*
X145857235Y-74998017D01*
X145885825Y-75092267D01*
X145932254Y-75179129D01*
X145994736Y-75255264D01*
X146070871Y-75317746D01*
X146157733Y-75364175D01*
X146251983Y-75392765D01*
X146350000Y-75402419D01*
X148150000Y-75402419D01*
X148248017Y-75392765D01*
X148342267Y-75364175D01*
X148429129Y-75317746D01*
X148505264Y-75255264D01*
X148567746Y-75179129D01*
X148614175Y-75092267D01*
X148642765Y-74998017D01*
X148652419Y-74900000D01*
X148652419Y-74817423D01*
X148702549Y-74892448D01*
X148897552Y-75087451D01*
X149126851Y-75240664D01*
X149381635Y-75346199D01*
X149652112Y-75400000D01*
X149927888Y-75400000D01*
X150198365Y-75346199D01*
X150453149Y-75240664D01*
X150682448Y-75087451D01*
X150877451Y-74892448D01*
X151030664Y-74663149D01*
X151136199Y-74408365D01*
X151190000Y-74137888D01*
X151190000Y-73862112D01*
X151136199Y-73591635D01*
X151030664Y-73336851D01*
X150877451Y-73107552D01*
X150682448Y-72912549D01*
X150453149Y-72759336D01*
X150198365Y-72653801D01*
X149977095Y-72609788D01*
X149387609Y-71251209D01*
X149410000Y-71138642D01*
X149410000Y-70961358D01*
X149375414Y-70787480D01*
X149307570Y-70623690D01*
X149209076Y-70476283D01*
X149083717Y-70350924D01*
X148936310Y-70252430D01*
X148772520Y-70184586D01*
X148598642Y-70150000D01*
X148421358Y-70150000D01*
X148247480Y-70184586D01*
X148083690Y-70252430D01*
X147936283Y-70350924D01*
X147810924Y-70476283D01*
X147712430Y-70623690D01*
X147644586Y-70787480D01*
X147610000Y-70961358D01*
X147610000Y-71138642D01*
X147644586Y-71312520D01*
X147712430Y-71476310D01*
X147810924Y-71623717D01*
X147936283Y-71749076D01*
X148058438Y-71830697D01*
X148427564Y-72681417D01*
X148342267Y-72635825D01*
X148248017Y-72607235D01*
X148150000Y-72597581D01*
X146350000Y-72597581D01*
X146251983Y-72607235D01*
X146157733Y-72635825D01*
X146070871Y-72682254D01*
X145994736Y-72744736D01*
X145932254Y-72820871D01*
X145885825Y-72907733D01*
X145857235Y-73001983D01*
X145847581Y-73100000D01*
X143249830Y-73100000D01*
X147796569Y-59106577D01*
X147972036Y-59223820D01*
X148174881Y-59307841D01*
X148390221Y-59350675D01*
X148609779Y-59350675D01*
X148825119Y-59307841D01*
X149027964Y-59223820D01*
X149203432Y-59106576D01*
X159837715Y-91835540D01*
X159837715Y-91835540D01*
G37*
X159837715Y-91835540D02*
X159842761Y-91847076D01*
X159866064Y-91909737D01*
X159882585Y-91943610D01*
X159896712Y-91978577D01*
X159900646Y-91985973D01*
X159993472Y-92157650D01*
X160023854Y-92202694D01*
X160053656Y-92248236D01*
X160058951Y-92254727D01*
X160183354Y-92405106D01*
X160221936Y-92443419D01*
X160259990Y-92482279D01*
X160266445Y-92487618D01*
X160417688Y-92610969D01*
X160462932Y-92641029D01*
X160507853Y-92671787D01*
X160515222Y-92675771D01*
X160687544Y-92767396D01*
X160737780Y-92788102D01*
X160787806Y-92809543D01*
X160795808Y-92812020D01*
X160982644Y-92868429D01*
X161035972Y-92878988D01*
X161089181Y-92890298D01*
X161097504Y-92891172D01*
X161097514Y-92891174D01*
X161097523Y-92891174D01*
X161291746Y-92910218D01*
X161320824Y-92913082D01*
X195738612Y-92913082D01*
X195707595Y-92987963D01*
X195664761Y-93203303D01*
X195664761Y-93422861D01*
X195707595Y-93638201D01*
X195791616Y-93841046D01*
X195913596Y-94023602D01*
X196068848Y-94178854D01*
X196172725Y-94248262D01*
X168327918Y-114478699D01*
X168318537Y-114487036D01*
X168266110Y-114528588D01*
X168238991Y-114554776D01*
X168210112Y-114579009D01*
X168204293Y-114585035D01*
X168069703Y-114726369D01*
X168036226Y-114769218D01*
X168002148Y-114811602D01*
X167997610Y-114818644D01*
X167893035Y-114983428D01*
X167868525Y-115031950D01*
X167843321Y-115080160D01*
X167840240Y-115087944D01*
X167840237Y-115087950D01*
X167840235Y-115087956D01*
X167769661Y-115269907D01*
X167755043Y-115322262D01*
X167739682Y-115374454D01*
X167738170Y-115382694D01*
X167704280Y-115574895D01*
X167700111Y-115629079D01*
X167695179Y-115683274D01*
X167695297Y-115691651D01*
X167699385Y-115886774D01*
X167705816Y-115940710D01*
X167711507Y-115994853D01*
X167713249Y-116003043D01*
X167713250Y-116003050D01*
X167713252Y-116003056D01*
X167755159Y-116193660D01*
X167755162Y-116193669D01*
X167761421Y-116222196D01*
X178709648Y-149917378D01*
X178732621Y-150021864D01*
X178734244Y-150099350D01*
X178720785Y-150175678D01*
X178692757Y-150247938D01*
X178651228Y-150313377D01*
X178597777Y-150369506D01*
X178534446Y-150414181D01*
X178463643Y-150445705D01*
X178388064Y-150462876D01*
X178310588Y-150465039D01*
X178234171Y-150452114D01*
X178157765Y-150423090D01*
X178082825Y-150377705D01*
X159470538Y-136855086D01*
X160819556Y-136855086D01*
X160819556Y-137042220D01*
X160856064Y-137225758D01*
X160927677Y-137398647D01*
X161031643Y-137554243D01*
X161163966Y-137686566D01*
X161319562Y-137790532D01*
X161492451Y-137862145D01*
X161675989Y-137898653D01*
X161863123Y-137898653D01*
X162046661Y-137862145D01*
X162219550Y-137790532D01*
X162375146Y-137686566D01*
X162507469Y-137554243D01*
X162611435Y-137398647D01*
X162683048Y-137225758D01*
X162719556Y-137042220D01*
X162719556Y-136855086D01*
X162683048Y-136671548D01*
X162611435Y-136498659D01*
X162545514Y-136400000D01*
X166397581Y-136400000D01*
X166397581Y-138200000D01*
X166407235Y-138298017D01*
X166435825Y-138392267D01*
X166482254Y-138479129D01*
X166544736Y-138555264D01*
X166620871Y-138617746D01*
X166707733Y-138664175D01*
X166801983Y-138692765D01*
X166900000Y-138702419D01*
X168700000Y-138702419D01*
X168798017Y-138692765D01*
X168892267Y-138664175D01*
X168979129Y-138617746D01*
X169055264Y-138555264D01*
X169117746Y-138479129D01*
X169164175Y-138392267D01*
X169192765Y-138298017D01*
X169202419Y-138200000D01*
X169202419Y-138117423D01*
X169252549Y-138192448D01*
X169447552Y-138387451D01*
X169676851Y-138540664D01*
X169931635Y-138646199D01*
X170202112Y-138700000D01*
X170477888Y-138700000D01*
X170748365Y-138646199D01*
X171003149Y-138540664D01*
X171232448Y-138387451D01*
X171427451Y-138192448D01*
X171580664Y-137963149D01*
X171686199Y-137708365D01*
X171740000Y-137437888D01*
X171740000Y-137162112D01*
X171686199Y-136891635D01*
X171580664Y-136636851D01*
X171427451Y-136407552D01*
X171232448Y-136212549D01*
X171003149Y-136059336D01*
X170748365Y-135953801D01*
X170477888Y-135900000D01*
X170202112Y-135900000D01*
X169931635Y-135953801D01*
X169676851Y-136059336D01*
X169447552Y-136212549D01*
X169252549Y-136407552D01*
X169202419Y-136482577D01*
X169202419Y-136400000D01*
X169192765Y-136301983D01*
X169164175Y-136207733D01*
X169117746Y-136120871D01*
X169055264Y-136044736D01*
X168979129Y-135982254D01*
X168892267Y-135935825D01*
X168798017Y-135907235D01*
X168700000Y-135897581D01*
X166900000Y-135897581D01*
X166801983Y-135907235D01*
X166707733Y-135935825D01*
X166620871Y-135982254D01*
X166544736Y-136044736D01*
X166482254Y-136120871D01*
X166435825Y-136207733D01*
X166407235Y-136301983D01*
X166397581Y-136400000D01*
X162545514Y-136400000D01*
X162507469Y-136343063D01*
X162375146Y-136210740D01*
X162219550Y-136106774D01*
X162046661Y-136035161D01*
X161863123Y-135998653D01*
X161675989Y-135998653D01*
X161492451Y-136035161D01*
X161319562Y-136106774D01*
X161163966Y-136210740D01*
X161031643Y-136343063D01*
X160927677Y-136498659D01*
X160856064Y-136671548D01*
X160819556Y-136855086D01*
X159470538Y-136855086D01*
X157043488Y-135091731D01*
X158392505Y-135091731D01*
X158392505Y-135278865D01*
X158429013Y-135462403D01*
X158500626Y-135635292D01*
X158604592Y-135790888D01*
X158736915Y-135923211D01*
X158892511Y-136027177D01*
X159065400Y-136098790D01*
X159248938Y-136135298D01*
X159436072Y-136135298D01*
X159619610Y-136098790D01*
X159792499Y-136027177D01*
X159948095Y-135923211D01*
X160080418Y-135790888D01*
X160184384Y-135635292D01*
X160255997Y-135462403D01*
X160292505Y-135278865D01*
X160292505Y-135091731D01*
X160255997Y-134908193D01*
X160184384Y-134735304D01*
X160080418Y-134579708D01*
X159948095Y-134447385D01*
X159792499Y-134343419D01*
X159619610Y-134271806D01*
X159436072Y-134235298D01*
X159248938Y-134235298D01*
X159065400Y-134271806D01*
X158892511Y-134343419D01*
X158736915Y-134447385D01*
X158604592Y-134579708D01*
X158500626Y-134735304D01*
X158429013Y-134908193D01*
X158392505Y-135091731D01*
X157043488Y-135091731D01*
X149416611Y-129550481D01*
X149405746Y-129544113D01*
X149350061Y-129507116D01*
X149316786Y-129489423D01*
X149284807Y-129469441D01*
X149277278Y-129465769D01*
X149101270Y-129381441D01*
X149050220Y-129362861D01*
X148999335Y-129343531D01*
X148991235Y-129341391D01*
X148802201Y-129292855D01*
X148748503Y-129284543D01*
X148694841Y-129275466D01*
X148686480Y-129274941D01*
X148491620Y-129264046D01*
X148437331Y-129266321D01*
X148382924Y-129267841D01*
X148374620Y-129268949D01*
X148181354Y-129296111D01*
X148128518Y-129308893D01*
X148075467Y-129320946D01*
X148067547Y-129323644D01*
X148067537Y-129323646D01*
X148067528Y-129323650D01*
X147883227Y-129387831D01*
X147833922Y-129410613D01*
X147784183Y-129432758D01*
X147776928Y-129436947D01*
X147609614Y-129535110D01*
X147583388Y-129550481D01*
X118920569Y-150375240D01*
X118828283Y-150429384D01*
X118755093Y-150454871D01*
X118678340Y-150465658D01*
X118600954Y-150461332D01*
X118525884Y-150442057D01*
X118455988Y-150408569D01*
X118393927Y-150362141D01*
X118342070Y-150304548D01*
X118302380Y-150237968D01*
X118276382Y-150164956D01*
X118265060Y-150088286D01*
X118269053Y-150006647D01*
X118289056Y-149921364D01*
X122682413Y-136400000D01*
X125247581Y-136400000D01*
X125247581Y-138200000D01*
X125257235Y-138298017D01*
X125285825Y-138392267D01*
X125332254Y-138479129D01*
X125394736Y-138555264D01*
X125470871Y-138617746D01*
X125557733Y-138664175D01*
X125651983Y-138692765D01*
X125750000Y-138702419D01*
X127550000Y-138702419D01*
X127648017Y-138692765D01*
X127742267Y-138664175D01*
X127829129Y-138617746D01*
X127905264Y-138555264D01*
X127967746Y-138479129D01*
X128014175Y-138392267D01*
X128042765Y-138298017D01*
X128052419Y-138200000D01*
X128052419Y-138117423D01*
X128102549Y-138192448D01*
X128297552Y-138387451D01*
X128526851Y-138540664D01*
X128781635Y-138646199D01*
X129052112Y-138700000D01*
X129327888Y-138700000D01*
X129598365Y-138646199D01*
X129853149Y-138540664D01*
X130082448Y-138387451D01*
X130277451Y-138192448D01*
X130430664Y-137963149D01*
X130536199Y-137708365D01*
X130590000Y-137437888D01*
X130590000Y-137162112D01*
X130536199Y-136891635D01*
X130430664Y-136636851D01*
X130277451Y-136407552D01*
X130082448Y-136212549D01*
X129853149Y-136059336D01*
X129598365Y-135953801D01*
X129327888Y-135900000D01*
X129052112Y-135900000D01*
X128781635Y-135953801D01*
X128526851Y-136059336D01*
X128297552Y-136212549D01*
X128102549Y-136407552D01*
X128052419Y-136482577D01*
X128052419Y-136400000D01*
X128042765Y-136301983D01*
X128014175Y-136207733D01*
X127967746Y-136120871D01*
X127905264Y-136044736D01*
X127829129Y-135982254D01*
X127742267Y-135935825D01*
X127648017Y-135907235D01*
X127550000Y-135897581D01*
X125750000Y-135897581D01*
X125651983Y-135907235D01*
X125557733Y-135935825D01*
X125470871Y-135982254D01*
X125394736Y-136044736D01*
X125332254Y-136120871D01*
X125285825Y-136207733D01*
X125257235Y-136301983D01*
X125247581Y-136400000D01*
X122682413Y-136400000D01*
X129238579Y-116222197D01*
X129241278Y-116209895D01*
X129259257Y-116145501D01*
X129265801Y-116108386D01*
X129274923Y-116071801D01*
X129276088Y-116063505D01*
X129301900Y-115870053D01*
X129303797Y-115815743D01*
X129306455Y-115761387D01*
X129305987Y-115753023D01*
X129293732Y-115558243D01*
X129285040Y-115504574D01*
X129277094Y-115450766D01*
X129275010Y-115442653D01*
X129275010Y-115442650D01*
X129275007Y-115442643D01*
X129225156Y-115253961D01*
X129206213Y-115203023D01*
X129187958Y-115151759D01*
X129184338Y-115144204D01*
X129098783Y-114968791D01*
X129070298Y-114922489D01*
X129042444Y-114875764D01*
X129037426Y-114869056D01*
X128919429Y-114713601D01*
X128882501Y-114673722D01*
X128846090Y-114633284D01*
X128839864Y-114627679D01*
X128694551Y-114498665D01*
X128672081Y-114478698D01*
X119892557Y-108100000D01*
X145847581Y-108100000D01*
X145847581Y-109900000D01*
X145857235Y-109998017D01*
X145885825Y-110092267D01*
X145932254Y-110179129D01*
X145994736Y-110255264D01*
X146070871Y-110317746D01*
X146157733Y-110364175D01*
X146251983Y-110392765D01*
X146350000Y-110402419D01*
X148150000Y-110402419D01*
X148248017Y-110392765D01*
X148342267Y-110364175D01*
X148429129Y-110317746D01*
X148505264Y-110255264D01*
X148567746Y-110179129D01*
X148614175Y-110092267D01*
X148642765Y-109998017D01*
X148652419Y-109900000D01*
X148652419Y-109817423D01*
X148702549Y-109892448D01*
X148897552Y-110087451D01*
X149126851Y-110240664D01*
X149381635Y-110346199D01*
X149652112Y-110400000D01*
X149927888Y-110400000D01*
X150198365Y-110346199D01*
X150453149Y-110240664D01*
X150682448Y-110087451D01*
X150877451Y-109892448D01*
X151030664Y-109663149D01*
X151136199Y-109408365D01*
X151190000Y-109137888D01*
X151190000Y-108862112D01*
X151136199Y-108591635D01*
X151030664Y-108336851D01*
X150877451Y-108107552D01*
X150682448Y-107912549D01*
X150453149Y-107759336D01*
X150198365Y-107653801D01*
X149927888Y-107600000D01*
X149652112Y-107600000D01*
X149381635Y-107653801D01*
X149126851Y-107759336D01*
X148897552Y-107912549D01*
X148702549Y-108107552D01*
X148652419Y-108182577D01*
X148652419Y-108100000D01*
X148642765Y-108001983D01*
X148614175Y-107907733D01*
X148567746Y-107820871D01*
X148505264Y-107744736D01*
X148429129Y-107682254D01*
X148342267Y-107635825D01*
X148248017Y-107607235D01*
X148150000Y-107597581D01*
X146350000Y-107597581D01*
X146251983Y-107607235D01*
X146157733Y-107635825D01*
X146070871Y-107682254D01*
X145994736Y-107744736D01*
X145932254Y-107820871D01*
X145885825Y-107907733D01*
X145857235Y-108001983D01*
X145847581Y-108100000D01*
X119892557Y-108100000D01*
X105027632Y-97300000D01*
X112547581Y-97300000D01*
X112547581Y-99100000D01*
X112557235Y-99198017D01*
X112585825Y-99292267D01*
X112632254Y-99379129D01*
X112694736Y-99455264D01*
X112770871Y-99517746D01*
X112857733Y-99564175D01*
X112951983Y-99592765D01*
X113050000Y-99602419D01*
X114850000Y-99602419D01*
X114948017Y-99592765D01*
X115042267Y-99564175D01*
X115129129Y-99517746D01*
X115205264Y-99455264D01*
X115267746Y-99379129D01*
X115314175Y-99292267D01*
X115342765Y-99198017D01*
X115352419Y-99100000D01*
X115352419Y-99017423D01*
X115402549Y-99092448D01*
X115597552Y-99287451D01*
X115826851Y-99440664D01*
X116081635Y-99546199D01*
X116352112Y-99600000D01*
X116627888Y-99600000D01*
X116898365Y-99546199D01*
X117153149Y-99440664D01*
X117382448Y-99287451D01*
X117577451Y-99092448D01*
X117730664Y-98863149D01*
X117797305Y-98702263D01*
X144460000Y-98702263D01*
X144460000Y-98997737D01*
X144517644Y-99287534D01*
X144630717Y-99560517D01*
X144794874Y-99806194D01*
X145003806Y-100015126D01*
X145249483Y-100179283D01*
X145522466Y-100292356D01*
X145812263Y-100350000D01*
X146107737Y-100350000D01*
X146397534Y-100292356D01*
X146670517Y-100179283D01*
X146916194Y-100015126D01*
X146921487Y-100009833D01*
X146942990Y-100080721D01*
X146998704Y-100184955D01*
X147073683Y-100276317D01*
X147165045Y-100351296D01*
X147269279Y-100407010D01*
X147382379Y-100441318D01*
X147500000Y-100452903D01*
X148300000Y-100450000D01*
X148450000Y-100300000D01*
X148450000Y-98900000D01*
X148430000Y-98900000D01*
X148430000Y-98800000D01*
X148450000Y-98800000D01*
X148450000Y-97400000D01*
X148550000Y-97400000D01*
X148550000Y-98800000D01*
X148570000Y-98800000D01*
X148570000Y-98900000D01*
X148550000Y-98900000D01*
X148550000Y-100300000D01*
X148700000Y-100450000D01*
X149500000Y-100452903D01*
X149617621Y-100441318D01*
X149730721Y-100407010D01*
X149834955Y-100351296D01*
X149926317Y-100276317D01*
X150001296Y-100184955D01*
X150057010Y-100080721D01*
X150078513Y-100009833D01*
X150083806Y-100015126D01*
X150329483Y-100179283D01*
X150602466Y-100292356D01*
X150892263Y-100350000D01*
X151187737Y-100350000D01*
X151477534Y-100292356D01*
X151750517Y-100179283D01*
X151996194Y-100015126D01*
X152205126Y-99806194D01*
X152369283Y-99560517D01*
X152482356Y-99287534D01*
X152540000Y-98997737D01*
X152540000Y-98702263D01*
X152482356Y-98412466D01*
X152369283Y-98139483D01*
X152205126Y-97893806D01*
X151996194Y-97684874D01*
X151750517Y-97520717D01*
X151477534Y-97407644D01*
X151187737Y-97350000D01*
X150892263Y-97350000D01*
X150602466Y-97407644D01*
X150329483Y-97520717D01*
X150083806Y-97684874D01*
X150078513Y-97690167D01*
X150057010Y-97619279D01*
X150001296Y-97515045D01*
X149926317Y-97423683D01*
X149834955Y-97348704D01*
X149743836Y-97300000D01*
X179097581Y-97300000D01*
X179097581Y-99100000D01*
X179107235Y-99198017D01*
X179135825Y-99292267D01*
X179182254Y-99379129D01*
X179244736Y-99455264D01*
X179320871Y-99517746D01*
X179407733Y-99564175D01*
X179501983Y-99592765D01*
X179600000Y-99602419D01*
X181120179Y-99602419D01*
X182620403Y-100771491D01*
X182624586Y-100792520D01*
X182692430Y-100956310D01*
X182790924Y-101103717D01*
X182916283Y-101229076D01*
X183063690Y-101327570D01*
X183227480Y-101395414D01*
X183401358Y-101430000D01*
X183578642Y-101430000D01*
X183752520Y-101395414D01*
X183916310Y-101327570D01*
X184063717Y-101229076D01*
X184189076Y-101103717D01*
X184287570Y-100956310D01*
X184355414Y-100792520D01*
X184390000Y-100618642D01*
X184390000Y-100441358D01*
X184355414Y-100267480D01*
X184287570Y-100103690D01*
X184189076Y-99956283D01*
X184063717Y-99830924D01*
X183916310Y-99732430D01*
X183752520Y-99664586D01*
X183578642Y-99630000D01*
X183514557Y-99630000D01*
X183415426Y-99552751D01*
X183448365Y-99546199D01*
X183703149Y-99440664D01*
X183932448Y-99287451D01*
X184127451Y-99092448D01*
X184280664Y-98863149D01*
X184386199Y-98608365D01*
X184440000Y-98337888D01*
X184440000Y-98062112D01*
X184386199Y-97791635D01*
X184280664Y-97536851D01*
X184127451Y-97307552D01*
X183932448Y-97112549D01*
X183703149Y-96959336D01*
X183448365Y-96853801D01*
X183177888Y-96800000D01*
X182902112Y-96800000D01*
X182631635Y-96853801D01*
X182376851Y-96959336D01*
X182147552Y-97112549D01*
X181952549Y-97307552D01*
X181902419Y-97382577D01*
X181902419Y-97300000D01*
X181892765Y-97201983D01*
X181864175Y-97107733D01*
X181817746Y-97020871D01*
X181755264Y-96944736D01*
X181679129Y-96882254D01*
X181592267Y-96835825D01*
X181498017Y-96807235D01*
X181400000Y-96797581D01*
X179600000Y-96797581D01*
X179501983Y-96807235D01*
X179407733Y-96835825D01*
X179320871Y-96882254D01*
X179244736Y-96944736D01*
X179182254Y-97020871D01*
X179135825Y-97107733D01*
X179107235Y-97201983D01*
X179097581Y-97300000D01*
X149743836Y-97300000D01*
X149730721Y-97292990D01*
X149617621Y-97258682D01*
X149500000Y-97247097D01*
X148700000Y-97250000D01*
X148550000Y-97400000D01*
X148450000Y-97400000D01*
X148300000Y-97250000D01*
X147500000Y-97247097D01*
X147382379Y-97258682D01*
X147269279Y-97292990D01*
X147165045Y-97348704D01*
X147073683Y-97423683D01*
X146998704Y-97515045D01*
X146942990Y-97619279D01*
X146921487Y-97690167D01*
X146916194Y-97684874D01*
X146670517Y-97520717D01*
X146397534Y-97407644D01*
X146107737Y-97350000D01*
X145812263Y-97350000D01*
X145522466Y-97407644D01*
X145249483Y-97520717D01*
X145003806Y-97684874D01*
X144794874Y-97893806D01*
X144630717Y-98139483D01*
X144517644Y-98412466D01*
X144460000Y-98702263D01*
X117797305Y-98702263D01*
X117836199Y-98608365D01*
X117890000Y-98337888D01*
X117890000Y-98062112D01*
X117836199Y-97791635D01*
X117730664Y-97536851D01*
X117577451Y-97307552D01*
X117461354Y-97191455D01*
X117567480Y-97235414D01*
X117741358Y-97270000D01*
X117918642Y-97270000D01*
X118092520Y-97235414D01*
X118256310Y-97167570D01*
X118403717Y-97069076D01*
X118529076Y-96943717D01*
X118627570Y-96796310D01*
X118695414Y-96632520D01*
X118730000Y-96458642D01*
X118730000Y-96281358D01*
X118695414Y-96107480D01*
X118627570Y-95943690D01*
X118529076Y-95796283D01*
X118403717Y-95670924D01*
X118256310Y-95572430D01*
X118092520Y-95504586D01*
X117918642Y-95470000D01*
X117741358Y-95470000D01*
X117567480Y-95504586D01*
X117403690Y-95572430D01*
X117314677Y-95631906D01*
X115448840Y-95585314D01*
X115425823Y-95581660D01*
X115377615Y-95583536D01*
X115365164Y-95583225D01*
X115342055Y-95584920D01*
X115283119Y-95587213D01*
X115270924Y-95590136D01*
X115258417Y-95591053D01*
X115201583Y-95606755D01*
X115144241Y-95620499D01*
X115132849Y-95625746D01*
X115120762Y-95629085D01*
X115068108Y-95655561D01*
X115014524Y-95680239D01*
X115004367Y-95687613D01*
X114993172Y-95693242D01*
X114946708Y-95729471D01*
X114898954Y-95764139D01*
X114890432Y-95773351D01*
X114880549Y-95781057D01*
X114842048Y-95825653D01*
X114826270Y-95842708D01*
X114818725Y-95852667D01*
X114787223Y-95889156D01*
X114775737Y-95909412D01*
X114102882Y-96797581D01*
X113050000Y-96797581D01*
X112951983Y-96807235D01*
X112857733Y-96835825D01*
X112770871Y-96882254D01*
X112694736Y-96944736D01*
X112632254Y-97020871D01*
X112585825Y-97107733D01*
X112557235Y-97201983D01*
X112547581Y-97300000D01*
X105027632Y-97300000D01*
X100827275Y-94248262D01*
X100931152Y-94178854D01*
X101086404Y-94023602D01*
X101208384Y-93841046D01*
X101292405Y-93638201D01*
X101335239Y-93422861D01*
X101335239Y-93203303D01*
X101292405Y-92987963D01*
X101261388Y-92913082D01*
X135679176Y-92913082D01*
X135691694Y-92911849D01*
X135758504Y-92909049D01*
X135795835Y-92903803D01*
X135833441Y-92901173D01*
X135841691Y-92899718D01*
X136033650Y-92864487D01*
X136085883Y-92849510D01*
X136138404Y-92835240D01*
X136146214Y-92832210D01*
X136327674Y-92760365D01*
X136376011Y-92735523D01*
X136424752Y-92711328D01*
X136431825Y-92706839D01*
X136595875Y-92601116D01*
X136638478Y-92567349D01*
X136681579Y-92534157D01*
X136687645Y-92528380D01*
X136828036Y-92392806D01*
X136863253Y-92351425D01*
X136899101Y-92310477D01*
X136903930Y-92303631D01*
X137015314Y-92143371D01*
X137041841Y-92095907D01*
X137069036Y-92048803D01*
X137072439Y-92041160D01*
X137072443Y-92041152D01*
X137072446Y-92041144D01*
X137150577Y-91862307D01*
X137150581Y-91862296D01*
X137162284Y-91835540D01*
X137335850Y-91301358D01*
X146230000Y-91301358D01*
X146230000Y-91478642D01*
X146264586Y-91652520D01*
X146332430Y-91816310D01*
X146430924Y-91963717D01*
X146556283Y-92089076D01*
X146703690Y-92187570D01*
X146867480Y-92255414D01*
X147041358Y-92290000D01*
X147218642Y-92290000D01*
X147392520Y-92255414D01*
X147556310Y-92187570D01*
X147703717Y-92089076D01*
X147829076Y-91963717D01*
X147905001Y-91850087D01*
X147905001Y-92355080D01*
X147832430Y-92463690D01*
X147764586Y-92627480D01*
X147730000Y-92801358D01*
X147730000Y-92978642D01*
X147764586Y-93152520D01*
X147832430Y-93316310D01*
X147930924Y-93463717D01*
X148056283Y-93589076D01*
X148203690Y-93687570D01*
X148367480Y-93755414D01*
X148541358Y-93790000D01*
X148718642Y-93790000D01*
X148892520Y-93755414D01*
X149056310Y-93687570D01*
X149203717Y-93589076D01*
X149329076Y-93463717D01*
X149427570Y-93316310D01*
X149495414Y-93152520D01*
X149530000Y-92978642D01*
X149530000Y-92801358D01*
X149495414Y-92627480D01*
X149427570Y-92463690D01*
X149355000Y-92355081D01*
X149355000Y-89890304D01*
X149364408Y-89880897D01*
X149492520Y-89855414D01*
X149656310Y-89787570D01*
X149803717Y-89689076D01*
X149929076Y-89563717D01*
X150027570Y-89416310D01*
X150095414Y-89252520D01*
X150130000Y-89078642D01*
X150130000Y-88901358D01*
X150095414Y-88727480D01*
X150027570Y-88563690D01*
X149929076Y-88416283D01*
X149803717Y-88290924D01*
X149656310Y-88192430D01*
X149492520Y-88124586D01*
X149318642Y-88090000D01*
X149141358Y-88090000D01*
X148967480Y-88124586D01*
X148803690Y-88192430D01*
X148656283Y-88290924D01*
X148530924Y-88416283D01*
X148455000Y-88529912D01*
X148427570Y-88463690D01*
X148329076Y-88316283D01*
X148203717Y-88190924D01*
X148056310Y-88092430D01*
X147892520Y-88024586D01*
X147718642Y-87990000D01*
X147541358Y-87990000D01*
X147367480Y-88024586D01*
X147203690Y-88092430D01*
X147056283Y-88190924D01*
X146930924Y-88316283D01*
X146832430Y-88463690D01*
X146764586Y-88627480D01*
X146739103Y-88755593D01*
X146642523Y-88852173D01*
X146614868Y-88874869D01*
X146524269Y-88985264D01*
X146456947Y-89111213D01*
X146415491Y-89247876D01*
X146405000Y-89354394D01*
X146405000Y-89354403D01*
X146401494Y-89390000D01*
X146405000Y-89425597D01*
X146405001Y-90855080D01*
X146332430Y-90963690D01*
X146264586Y-91127480D01*
X146230000Y-91301358D01*
X137335850Y-91301358D01*
X143249830Y-73100000D01*
X145847581Y-73100000D01*
X145847581Y-74900000D01*
X145857235Y-74998017D01*
X145885825Y-75092267D01*
X145932254Y-75179129D01*
X145994736Y-75255264D01*
X146070871Y-75317746D01*
X146157733Y-75364175D01*
X146251983Y-75392765D01*
X146350000Y-75402419D01*
X148150000Y-75402419D01*
X148248017Y-75392765D01*
X148342267Y-75364175D01*
X148429129Y-75317746D01*
X148505264Y-75255264D01*
X148567746Y-75179129D01*
X148614175Y-75092267D01*
X148642765Y-74998017D01*
X148652419Y-74900000D01*
X148652419Y-74817423D01*
X148702549Y-74892448D01*
X148897552Y-75087451D01*
X149126851Y-75240664D01*
X149381635Y-75346199D01*
X149652112Y-75400000D01*
X149927888Y-75400000D01*
X150198365Y-75346199D01*
X150453149Y-75240664D01*
X150682448Y-75087451D01*
X150877451Y-74892448D01*
X151030664Y-74663149D01*
X151136199Y-74408365D01*
X151190000Y-74137888D01*
X151190000Y-73862112D01*
X151136199Y-73591635D01*
X151030664Y-73336851D01*
X150877451Y-73107552D01*
X150682448Y-72912549D01*
X150453149Y-72759336D01*
X150198365Y-72653801D01*
X149977095Y-72609788D01*
X149387609Y-71251209D01*
X149410000Y-71138642D01*
X149410000Y-70961358D01*
X149375414Y-70787480D01*
X149307570Y-70623690D01*
X149209076Y-70476283D01*
X149083717Y-70350924D01*
X148936310Y-70252430D01*
X148772520Y-70184586D01*
X148598642Y-70150000D01*
X148421358Y-70150000D01*
X148247480Y-70184586D01*
X148083690Y-70252430D01*
X147936283Y-70350924D01*
X147810924Y-70476283D01*
X147712430Y-70623690D01*
X147644586Y-70787480D01*
X147610000Y-70961358D01*
X147610000Y-71138642D01*
X147644586Y-71312520D01*
X147712430Y-71476310D01*
X147810924Y-71623717D01*
X147936283Y-71749076D01*
X148058438Y-71830697D01*
X148427564Y-72681417D01*
X148342267Y-72635825D01*
X148248017Y-72607235D01*
X148150000Y-72597581D01*
X146350000Y-72597581D01*
X146251983Y-72607235D01*
X146157733Y-72635825D01*
X146070871Y-72682254D01*
X145994736Y-72744736D01*
X145932254Y-72820871D01*
X145885825Y-72907733D01*
X145857235Y-73001983D01*
X145847581Y-73100000D01*
X143249830Y-73100000D01*
X147796569Y-59106577D01*
X147972036Y-59223820D01*
X148174881Y-59307841D01*
X148390221Y-59350675D01*
X148609779Y-59350675D01*
X148825119Y-59307841D01*
X149027964Y-59223820D01*
X149203432Y-59106576D01*
X159837715Y-91835540D01*
M02*
